<svg width="11" height="12" viewBox="0 0 11 12" fill="none" xmlns="http://www.w3.org/2000/svg">
<path d="M4 8.68042V2.18042L10 1.18042V7.68042M4 8.68042C4 9.50885 3.32843 10.1804 2.5 10.1804C1.67157 10.1804 1 9.50885 1 8.68042C1 7.85199 1.67157 7.18042 2.5 7.18042C3.32843 7.18042 4 7.85199 4 8.68042ZM10 7.68042C10 8.50885 9.32843 9.18042 8.5 9.18042C7.67157 9.18042 7 8.50885 7 7.68042C7 6.85199 7.67157 6.18042 8.5 6.18042C9.32843 6.18042 10 6.85199 10 7.68042Z" stroke="white" stroke-opacity="0.8" stroke-width="2" stroke-linecap="round"/>
</svg>
