<svg width="32" height="27" viewBox="0 0 32 27" fill="none" xmlns="http://www.w3.org/2000/svg">
<path d="M10.406 8.91504H24.281C25.099 8.91517 25.7712 9.5882 25.7712 10.4062V17.166L27.1189 16.0439L30.3962 13.3145V21.3711L27.1189 18.6436L25.7712 17.5215V24.2812C25.7711 25.0992 25.0989 25.7713 24.281 25.7715H10.406C9.58795 25.7715 8.91493 25.0993 8.91479 24.2812V10.4062C8.91479 9.58811 9.58787 8.91504 10.406 8.91504Z" stroke="black" stroke-width="1.64307"/>
<path d="M10.2263 6.20371C10.1882 6.09177 10.0937 6.0074 9.9769 5.98911C8.9682 5.83124 7.95088 6.05322 7.0919 6.62137C6.32272 7.13011 5.75928 7.86432 5.47077 8.72314C5.38114 8.98995 5.56226 9.2606 5.83805 9.3168C6.11384 9.37301 6.37897 9.19261 6.47943 8.92969C6.70579 8.33729 7.10988 7.82904 7.64879 7.4726C8.18681 7.11674 8.80971 6.94111 9.44301 6.96491C9.74321 6.97619 10.0407 6.83256 10.1644 6.55879L10.2145 6.44785C10.2493 6.37091 10.2535 6.28364 10.2263 6.20371Z" fill="black"/>
<path d="M10.4716 4.52543C10.5292 4.24817 10.3505 3.97468 10.0693 3.94095C8.62777 3.76796 7.1887 4.10602 5.96372 4.91624C4.73874 5.72646 3.86448 6.91848 3.45955 8.31276C3.38057 8.58469 3.56232 8.85616 3.83998 8.91172C4.11626 8.96701 4.38269 8.78736 4.46562 8.51808C4.81274 7.39095 5.5319 6.42754 6.52769 5.76891C7.52348 5.11028 8.69149 4.82549 9.86457 4.94713C10.1448 4.97619 10.4144 4.80131 10.4716 4.52543Z" fill="black"/>
<path d="M1.43857 7.88224C1.36608 8.1541 1.54577 8.42356 1.82147 8.47974C2.09749 8.536 2.36506 8.35715 2.44047 8.08573C2.90137 6.42695 3.93409 5.00217 5.38584 4.04195C6.83809 3.08141 8.5505 2.69102 10.2605 2.91479C10.5395 2.9513 10.8082 2.77506 10.8644 2.49938C10.9207 2.22332 10.7425 1.95226 10.4635 1.91293C8.48749 1.63435 6.4999 2.0794 4.82187 3.18928C3.14339 4.29945 1.95345 5.95133 1.43857 7.88224Z" fill="black"/>
</svg>
