<svg width="24" height="24" viewBox="0 0 24 24" fill="none" xmlns="http://www.w3.org/2000/svg">
<path d="M11.8085 16.638H7.9859C5.5747 16.638 4.7734 15.035 4.7734 13.425V7C4.7734 4.589 5.5747 3.788 7.9859 3.788H11.8085C14.2197 3.788 15.0209 4.589 15.0209 7V13.425C15.0209 15.836 14.2121 16.638 11.8085 16.638Z" stroke="black" stroke-width="1.48797" stroke-linecap="round" stroke-linejoin="round"/>
<path d="M17.1418 14.105L15.0205 12.617V7.802L17.1418 6.314C18.1796 5.589 19.0342 6.031 19.0342 7.306V13.12C19.0342 14.395 18.1796 14.837 17.1418 14.105Z" stroke="black" stroke-width="1.48797" stroke-linecap="round" stroke-linejoin="round"/>
<path d="M10.2411 7.107H8.637V9.513H6.2307V11.117H8.637V13.524H10.2411V11.117H12.6474V9.513H10.2411V7.107Z" fill="black"/>
</svg>
