<svg width="24" height="24" viewBox="0 0 24 24" fill="none" xmlns="http://www.w3.org/2000/svg">
<path d="M17.6666 8.5H4.3333C3.4166 8.5 2.6666 9.25 2.6666 10.1667V21.833C2.6666 22.75 3.4166 23.5 4.3333 23.5H17.6666C18.5833 23.5 19.3333 22.75 19.3333 21.833V10.1667C19.3333 9.25 18.5833 8.5 17.6666 8.5ZM8.95 13.5L6.725 10.1667H8.8916L11.1166 13.5H8.95ZM13.1166 13.5L10.8916 10.1667H13.0583L15.2833 13.5H13.1166ZM4.3333 10.1667H4.7166L6.9416 13.5H4.3333V10.1667ZM4.3333 21.833V15.167H17.6666V13.5H17.2833L15.0583 10.1667H17.6666V21.833H4.3333Z" fill="black"/>
<path d="M9.3334 21L13.5 18.5L9.3334 16V21Z" fill="black"/>
</svg>
