<svg width="24" height="24" viewBox="0 0 24 24" fill="none" xmlns="http://www.w3.org/2000/svg">
<path d="M5.0225 13.621H9.1891C9.8808 13.621 10.4391 13.0627 10.4391 12.371V8.2043C10.4391 7.5127 9.8808 6.9543 9.1891 6.9543H5.0225C4.3308 6.9543 3.7725 7.5127 3.7725 8.2043V12.371C3.7725 13.0627 4.3308 13.621 5.0225 13.621ZM5.4391 8.621H8.7725V11.9543H5.4391V8.621ZM17.5225 6.9543H13.3558C12.6641 6.9543 12.1058 7.5127 12.1058 8.2043V12.371C12.1058 13.0627 12.6641 13.621 13.3558 13.621H17.5225C18.2141 13.621 18.7725 13.0627 18.7725 12.371V8.2043C18.7725 7.5127 18.2141 6.9543 17.5225 6.9543ZM17.1058 11.9543H13.7725V8.621H17.1058V11.9543ZM5.0225 21.9543H9.1891C9.8808 21.9543 10.4391 21.396 10.4391 20.7043V16.5377C10.4391 15.846 9.8808 15.2877 9.1891 15.2877H5.0225C4.3308 15.2877 3.7725 15.846 3.7725 16.5377V20.7043C3.7725 21.396 4.3308 21.9543 5.0225 21.9543ZM5.4391 16.9543H8.7725V20.2877H5.4391V16.9543ZM17.5225 15.2877H13.3558C12.6641 15.2877 12.1058 15.846 12.1058 16.5377V20.7043C12.1058 21.396 12.6641 21.9543 13.3558 21.9543H17.5225C18.2141 21.9543 18.7725 21.396 18.7725 20.7043V16.5377C18.7725 15.846 18.2141 15.2877 17.5225 15.2877ZM17.1058 20.2877H13.7725V16.9543H17.1058V20.2877Z" fill="black"/>
</svg>
