<svg width="24" height="24" viewBox="0 0 24 24" fill="none" xmlns="http://www.w3.org/2000/svg">
<path d="M14.4638 18.9877L10.0417 16.4325C9.787 16.2857 9.5886 16.0895 9.4463 15.844C9.3041 15.5986 9.233 15.329 9.233 15.0353V9.925C9.233 9.6313 9.3041 9.3618 9.4463 9.1163C9.5886 8.8708 9.787 8.6747 10.0417 8.5278L14.4638 5.9727C14.7184 5.8258 14.988 5.7524 15.2725 5.7524C15.5569 5.7524 15.8265 5.8258 16.0812 5.9727L20.5032 8.5278C20.7579 8.6747 20.9563 8.8708 21.0986 9.1163C21.2408 9.3618 21.3119 9.6313 21.3119 9.925V15.0353C21.3119 15.329 21.2408 15.5986 21.0986 15.844C20.9563 16.0895 20.7579 16.2857 20.5032 16.4325L16.0812 18.9877C15.8265 19.1345 15.5569 19.2079 15.2725 19.2079C14.988 19.2079 14.7184 19.1345 14.4638 18.9877ZM14.6014 17.5234V12.857L10.5751 10.5444V15.0353C10.5751 15.0812 10.5865 15.1242 10.6095 15.1644C10.6324 15.2045 10.6668 15.239 10.7127 15.2676L14.6014 17.5234ZM15.9435 17.5234L19.8322 15.2676C19.8781 15.239 19.9125 15.2045 19.9354 15.1644C19.9584 15.1242 19.9699 15.0812 19.9699 15.0353V10.5444L15.9435 12.857V17.5234ZM6.7725 7.9806V5.5717C6.7725 5.1255 6.9305 4.7444 7.2465 4.4284C7.5625 4.1124 7.9436 3.95435 8.3899 3.95435H10.7988V5.2964H8.3899C8.3096 5.2964 8.2436 5.3222 8.192 5.3739C8.1404 5.4255 8.1145 5.4914 8.1145 5.5717V7.9806H6.7725ZM10.7988 20.9543H8.3899C7.9436 20.9543 7.5625 20.7963 7.2465 20.4803C6.9305 20.1643 6.7725 19.7832 6.7725 19.3369V16.928H8.1145V19.3369C8.1145 19.4172 8.1404 19.4832 8.192 19.5348C8.2436 19.5865 8.3096 19.6123 8.3899 19.6123H10.7988V20.9543ZM19.7462 20.9543V19.6123H22.1551C22.2354 19.6123 22.3013 19.5865 22.3529 19.5348C22.4046 19.4832 22.4304 19.4172 22.4304 19.3369V16.928H23.7725V19.3369C23.7725 19.7832 23.6144 20.1643 23.2984 20.4803C22.9824 20.7963 22.6013 20.9543 22.1551 20.9543H19.7462ZM22.4304 7.9806V5.5717C22.4304 5.4914 22.4046 5.4255 22.3529 5.3739C22.3013 5.3222 22.2354 5.2964 22.1551 5.2964H19.7462V3.95435H22.1551C22.6013 3.95435 22.9824 4.1124 23.2984 4.4284C23.6144 4.7444 23.7725 5.1255 23.7725 5.5717V7.9806H22.4304ZM15.2725 11.7007L19.2713 9.3709L15.4101 7.1461C15.3642 7.1174 15.3183 7.1031 15.2725 7.1031C15.2266 7.1031 15.1807 7.1174 15.1348 7.1461L11.2736 9.3709L15.2725 11.7007Z" fill="black"/>
</svg>
