<svg width="24" height="24" viewBox="0 0 24 24" fill="none" xmlns="http://www.w3.org/2000/svg">
<path d="M11 9.667V11.333C14.675 11.333 17.6667 14.325 17.6667 18C17.6667 21.675 14.675 24.667 11 24.667V26.333C15.5917 26.333 19.3333 22.592 19.3333 18C19.3333 13.408 15.5917 9.667 11 9.667Z" fill="black"/>
<path d="M9.5163 11.508L9.1496 9.883C7.7739 10.199 6.5008 10.858 5.4496 11.8L6.558 13.042C7.3996 12.292 8.4246 11.758 9.5163 11.508ZM4.3746 18.725L2.7163 18.9C2.8663 20.3 3.3746 21.65 4.1913 22.8L5.5496 21.833C4.8989 20.911 4.4919 19.839 4.3663 18.717L4.3746 18.725ZM5.4163 24.183C6.4663 25.125 7.7413 25.792 9.108 26.108L9.483 24.483C8.3913 24.233 7.3663 23.7 6.5246 22.942L5.408 24.183H5.4163ZM5.5663 14.133L4.208 13.167C3.3913 14.317 2.8746 15.658 2.7163 17.058L4.3746 17.242C4.4996 16.125 4.9163 15.05 5.5663 14.133Z" fill="black"/>
<path d="M13.7773 16.037C13.0523 15.321 11.894 15.321 11.1773 16.037L10.994 16.221L10.8107 16.037C10.0857 15.321 8.9273 15.321 8.2107 16.037C7.5023 16.721 7.4857 17.837 8.1607 18.546L8.2107 18.596L11.0023 21.337L13.794 18.596C14.5023 17.912 14.519 16.796 13.844 16.087L13.794 16.037H13.7773Z" fill="black"/>
</svg>
