<svg width="42" height="42" viewBox="0 0 42 42" fill="none" xmlns="http://www.w3.org/2000/svg">
<g transform="translate(11.5 11.5)">
<path d="M9.16667 0C4.11583 0 0 3.29083 0 7.33333C0 10.0008 1.74167 12.3842 4.58333 13.6858V18.3333L9.47833 14.6667C14.3917 14.5383 18.3333 11.2933 18.3333 7.33333C18.3333 3.37333 14.2175 0 9.16667 0ZM9.16667 12.8333H8.86417L6.41667 14.6667V12.4483L5.83 12.2192C3.36417 11.2658 1.83333 9.39583 1.83333 7.32417C1.83333 4.29 5.12417 1.82417 9.16667 1.82417C13.2092 1.82417 16.5 4.29 16.5 7.32417C16.5 10.3583 13.2092 12.8242 9.16667 12.8242V12.8333Z" fill="currentColor"/>
</g>
</svg>
