<svg width="40" height="40" viewBox="0 0 40 40" fill="none" xmlns="http://www.w3.org/2000/svg">
<circle cx="20" cy="20" r="20" fill="#3A3939"/>
<path d="M20 17C17.83 17 16 18.83 16 21C16 23.17 17.83 25 20 25C22.17 25 24 23.17 24 21C24 18.83 22.17 17 20 17ZM20 23C18.93 23 18 22.07 18 21C18 19.93 18.93 19 20 19C21.07 19 22 19.93 22 21C22 22.07 21.07 23 20 23Z" fill="white"/>
<path d="M28 13H24.85L22.62 11.22C22.44 11.08 22.22 11 22 11H18C17.77 11 17.55 11.08 17.38 11.22L15.15 13H12C10.9 13 10 13.9 10 15V27C10 28.1 10.9 29 12 29H28C29.1 29 30 28.1 30 27V15C30 13.9 29.1 13 28 13ZM28 27H12V15H15.5C15.73 15 15.95 14.92 16.12 14.78L18.35 13H21.65L23.88 14.78C24.06 14.92 24.28 15 24.5 15H28V27Z" fill="white"/>
<path d="M26 16C25.7348 16 25.4804 16.1054 25.2929 16.2929C25.1054 16.4804 25 16.7348 25 17C25 17.2652 25.1054 17.5196 25.2929 17.7071C25.4804 17.8946 25.7348 18 26 18C26.2652 18 26.5196 17.8946 26.7071 17.7071C26.8946 17.5196 27 17.2652 27 17C27 16.7348 26.8946 16.4804 26.7071 16.2929C26.5196 16.1054 26.2652 16 26 16Z" fill="white"/>
</svg>
