<svg width="73" height="15" viewBox="0 0 73 15" fill="none" xmlns="http://www.w3.org/2000/svg">
<path d="M0.00025785 11.2V-4.95911e-05H2.00026L5.79226 7.45595L9.56826 -4.95911e-05H11.5683V11.2H9.87226V2.92795L6.44826 9.59995H5.13626L1.69626 2.94395V11.2H0.00025785ZM17.492 11.392C16.7133 11.392 16.02 11.2213 15.412 10.88C14.8147 10.528 14.3453 10.0426 14.004 9.42395C13.6627 8.80528 13.492 8.08528 13.492 7.26395C13.492 6.43195 13.6573 5.70128 13.988 5.07195C14.3293 4.44262 14.7987 3.95195 15.396 3.59995C16.004 3.24795 16.708 3.07195 17.508 3.07195C18.2867 3.07195 18.964 3.24795 19.54 3.59995C20.116 3.94128 20.564 4.39995 20.884 4.97595C21.204 5.55195 21.364 6.18662 21.364 6.87995C21.364 6.98662 21.3587 7.10395 21.348 7.23195C21.348 7.34928 21.3427 7.48262 21.332 7.63195H15.156C15.2093 8.39995 15.46 8.98662 15.908 9.39195C16.3667 9.78662 16.8947 9.98395 17.492 9.98395C17.972 9.98395 18.372 9.87728 18.692 9.66395C19.0227 9.43995 19.268 9.14128 19.428 8.76795H21.124C20.9107 9.51462 20.484 10.1386 19.844 10.64C19.2147 11.1413 18.4307 11.392 17.492 11.392ZM17.492 4.46395C16.9267 4.46395 16.4253 4.63462 15.988 4.97595C15.5507 5.30662 15.284 5.80795 15.188 6.47995H19.668C19.636 5.86128 19.4173 5.37062 19.012 5.00795C18.6067 4.64528 18.1 4.46395 17.492 4.46395ZM26.2918 11.392C25.2891 11.392 24.4624 11.1466 23.8118 10.656C23.1611 10.1653 22.7878 9.51462 22.6918 8.70395H24.4038C24.4891 9.06662 24.6918 9.38128 25.0118 9.64795C25.3318 9.90395 25.7531 10.032 26.2758 10.032C26.7878 10.032 27.1611 9.92528 27.3958 9.71195C27.6304 9.49862 27.7478 9.25328 27.7478 8.97595C27.7478 8.57062 27.5824 8.29862 27.2518 8.15995C26.9318 8.01062 26.4838 7.87728 25.9078 7.75995C25.4598 7.66395 25.0118 7.53595 24.5638 7.37595C24.1264 7.21595 23.7584 6.99195 23.4598 6.70395C23.1718 6.40528 23.0278 6.00528 23.0278 5.50395C23.0278 4.81062 23.2944 4.23462 23.8278 3.77595C24.3611 3.30662 25.1078 3.07195 26.0678 3.07195C26.9531 3.07195 27.6678 3.28528 28.2118 3.71195C28.7664 4.13862 29.0918 4.74128 29.1878 5.51995H27.5558C27.5024 5.17862 27.3424 4.91195 27.0758 4.71995C26.8198 4.52795 26.4731 4.43195 26.0358 4.43195C25.6091 4.43195 25.2784 4.52262 25.0438 4.70395C24.8091 4.87462 24.6918 5.09862 24.6918 5.37595C24.6918 5.65328 24.8518 5.87195 25.1718 6.03195C25.5024 6.19195 25.9344 6.33595 26.4678 6.46395C27.0011 6.58128 27.4918 6.71995 27.9398 6.87995C28.3984 7.02928 28.7664 7.25328 29.0438 7.55195C29.3211 7.85062 29.4598 8.28795 29.4598 8.86395C29.4704 9.58928 29.1878 10.192 28.6118 10.672C28.0464 11.152 27.2731 11.392 26.2918 11.392ZM34.4793 11.392C33.4766 11.392 32.6499 11.1466 31.9993 10.656C31.3486 10.1653 30.9753 9.51462 30.8793 8.70395H32.5913C32.6766 9.06662 32.8793 9.38128 33.1993 9.64795C33.5193 9.90395 33.9406 10.032 34.4633 10.032C34.9753 10.032 35.3486 9.92528 35.5833 9.71195C35.8179 9.49862 35.9353 9.25328 35.9353 8.97595C35.9353 8.57062 35.7699 8.29862 35.4393 8.15995C35.1193 8.01062 34.6713 7.87728 34.0953 7.75995C33.6473 7.66395 33.1993 7.53595 32.7513 7.37595C32.3139 7.21595 31.9459 6.99195 31.6473 6.70395C31.3593 6.40528 31.2153 6.00528 31.2153 5.50395C31.2153 4.81062 31.4819 4.23462 32.0153 3.77595C32.5486 3.30662 33.2953 3.07195 34.2553 3.07195C35.1406 3.07195 35.8553 3.28528 36.3993 3.71195C36.9539 4.13862 37.2793 4.74128 37.3753 5.51995H35.7433C35.6899 5.17862 35.5299 4.91195 35.2633 4.71995C35.0073 4.52795 34.6606 4.43195 34.2233 4.43195C33.7966 4.43195 33.4659 4.52262 33.2313 4.70395C32.9966 4.87462 32.8793 5.09862 32.8793 5.37595C32.8793 5.65328 33.0393 5.87195 33.3593 6.03195C33.6899 6.19195 34.1219 6.33595 34.6553 6.46395C35.1886 6.58128 35.6793 6.71995 36.1273 6.87995C36.5859 7.02928 36.9539 7.25328 37.2313 7.55195C37.5086 7.85062 37.6473 8.28795 37.6473 8.86395C37.6579 9.58928 37.3753 10.192 36.7993 10.672C36.2339 11.152 35.4606 11.392 34.4793 11.392ZM42.1868 11.392C41.5148 11.392 40.9601 11.28 40.5228 11.056C40.0854 10.832 39.7601 10.5386 39.5468 10.176C39.3334 9.80262 39.2268 9.39728 39.2268 8.95995C39.2268 8.19195 39.5254 7.58395 40.1228 7.13595C40.7201 6.68795 41.5734 6.46395 42.6828 6.46395H44.7628V6.31995C44.7628 5.70128 44.5921 5.23728 44.2508 4.92795C43.9201 4.61862 43.4881 4.46395 42.9548 4.46395C42.4854 4.46395 42.0748 4.58128 41.7228 4.81595C41.3814 5.03995 41.1734 5.37595 41.0988 5.82395H39.4028C39.4561 5.24795 39.6481 4.75728 39.9788 4.35195C40.3201 3.93595 40.7468 3.62128 41.2588 3.40795C41.7814 3.18395 42.3521 3.07195 42.9708 3.07195C44.0801 3.07195 44.9388 3.36528 45.5468 3.95195C46.1548 4.52795 46.4588 5.31728 46.4588 6.31995V11.2H44.9868L44.8428 9.83995C44.6188 10.2773 44.2934 10.6453 43.8668 10.944C43.4401 11.2426 42.8801 11.392 42.1868 11.392ZM42.5228 10.016C42.9814 10.016 43.3654 9.90928 43.6748 9.69595C43.9948 9.47195 44.2401 9.17862 44.4108 8.81595C44.5921 8.45328 44.7041 8.05328 44.7468 7.61595H42.8588C42.1868 7.61595 41.7068 7.73328 41.4188 7.96795C41.1414 8.20262 41.0028 8.49595 41.0028 8.84795C41.0028 9.21062 41.1361 9.49862 41.4028 9.71195C41.6801 9.91462 42.0534 10.016 42.5228 10.016ZM51.6843 8.76795C51.2683 8.76795 50.8843 8.71995 50.5323 8.62395L49.8443 9.29595C49.9616 9.37062 50.1056 9.43462 50.2763 9.48795C50.4469 9.54128 50.6869 9.58928 50.9963 9.63195C51.3056 9.67462 51.7269 9.71728 52.2603 9.75995C53.3163 9.85595 54.0789 10.112 54.5483 10.528C55.0176 10.9333 55.2523 11.4773 55.2523 12.16C55.2523 12.6293 55.1243 13.072 54.8683 13.488C54.6229 13.9146 54.2336 14.256 53.7003 14.512C53.1776 14.7786 52.5056 14.912 51.6843 14.912C50.5749 14.912 49.6736 14.6986 48.9803 14.272C48.2976 13.856 47.9563 13.2213 47.9563 12.368C47.9563 12.0373 48.0416 11.7066 48.2123 11.376C48.3936 11.056 48.6763 10.752 49.0603 10.464C48.8363 10.368 48.6389 10.2666 48.4683 10.16C48.3083 10.0426 48.1643 9.92528 48.0363 9.80795V9.42395L49.4123 8.01595C48.7936 7.48262 48.4843 6.78395 48.4843 5.91995C48.4843 5.39728 48.6069 4.92262 48.8523 4.49595C49.1083 4.05862 49.4763 3.71195 49.9563 3.45595C50.4363 3.19995 51.0123 3.07195 51.6843 3.07195C52.1323 3.07195 52.5483 3.13595 52.9323 3.26395H55.8923V4.38395L54.4843 4.46395C54.7403 4.90128 54.8683 5.38662 54.8683 5.91995C54.8683 6.45328 54.7403 6.93328 54.4843 7.35995C54.2389 7.78662 53.8763 8.12795 53.3963 8.38395C52.9269 8.63995 52.3563 8.76795 51.6843 8.76795ZM51.6843 7.43995C52.1749 7.43995 52.5696 7.31195 52.8683 7.05595C53.1776 6.78928 53.3323 6.41595 53.3323 5.93595C53.3323 5.44528 53.1776 5.07195 52.8683 4.81595C52.5696 4.55995 52.1749 4.43195 51.6843 4.43195C51.1829 4.43195 50.7776 4.55995 50.4683 4.81595C50.1696 5.07195 50.0203 5.44528 50.0203 5.93595C50.0203 6.41595 50.1696 6.78928 50.4683 7.05595C50.7776 7.31195 51.1829 7.43995 51.6843 7.43995ZM49.5563 12.208C49.5563 12.6666 49.7589 13.008 50.1643 13.232C50.5696 13.4666 51.0763 13.584 51.6843 13.584C52.2709 13.584 52.7456 13.456 53.1083 13.2C53.4709 12.9546 53.6523 12.624 53.6523 12.208C53.6523 11.8986 53.5296 11.632 53.2843 11.408C53.0389 11.1946 52.5749 11.0613 51.8923 11.008C51.3803 10.976 50.9269 10.928 50.5323 10.864C50.1589 11.0666 49.9029 11.2853 49.7643 11.52C49.6256 11.7546 49.5563 11.984 49.5563 12.208ZM60.8045 11.392C60.0258 11.392 59.3325 11.2213 58.7245 10.88C58.1272 10.528 57.6578 10.0426 57.3165 9.42395C56.9752 8.80528 56.8045 8.08528 56.8045 7.26395C56.8045 6.43195 56.9698 5.70128 57.3005 5.07195C57.6418 4.44262 58.1112 3.95195 58.7085 3.59995C59.3165 3.24795 60.0205 3.07195 60.8205 3.07195C61.5992 3.07195 62.2765 3.24795 62.8525 3.59995C63.4285 3.94128 63.8765 4.39995 64.1965 4.97595C64.5165 5.55195 64.6765 6.18662 64.6765 6.87995C64.6765 6.98662 64.6712 7.10395 64.6605 7.23195C64.6605 7.34928 64.6552 7.48262 64.6445 7.63195H58.4685C58.5218 8.39995 58.7725 8.98662 59.2205 9.39195C59.6792 9.78662 60.2072 9.98395 60.8045 9.98395C61.2845 9.98395 61.6845 9.87728 62.0045 9.66395C62.3352 9.43995 62.5805 9.14128 62.7405 8.76795H64.4365C64.2232 9.51462 63.7965 10.1386 63.1565 10.64C62.5272 11.1413 61.7432 11.392 60.8045 11.392ZM60.8045 4.46395C60.2392 4.46395 59.7378 4.63462 59.3005 4.97595C58.8632 5.30662 58.5965 5.80795 58.5005 6.47995H62.9805C62.9485 5.86128 62.7298 5.37062 62.3245 5.00795C61.9192 4.64528 61.4125 4.46395 60.8045 4.46395ZM69.6043 11.392C68.6016 11.392 67.7749 11.1466 67.1243 10.656C66.4736 10.1653 66.1003 9.51462 66.0043 8.70395H67.7163C67.8016 9.06662 68.0043 9.38128 68.3243 9.64795C68.6443 9.90395 69.0656 10.032 69.5883 10.032C70.1003 10.032 70.4736 9.92528 70.7083 9.71195C70.9429 9.49862 71.0603 9.25328 71.0603 8.97595C71.0603 8.57062 70.8949 8.29862 70.5643 8.15995C70.2443 8.01062 69.7963 7.87728 69.2203 7.75995C68.7723 7.66395 68.3243 7.53595 67.8763 7.37595C67.4389 7.21595 67.0709 6.99195 66.7723 6.70395C66.4843 6.40528 66.3403 6.00528 66.3403 5.50395C66.3403 4.81062 66.6069 4.23462 67.1403 3.77595C67.6736 3.30662 68.4203 3.07195 69.3803 3.07195C70.2656 3.07195 70.9803 3.28528 71.5243 3.71195C72.0789 4.13862 72.4043 4.74128 72.5003 5.51995H70.8683C70.8149 5.17862 70.6549 4.91195 70.3883 4.71995C70.1323 4.52795 69.7856 4.43195 69.3483 4.43195C68.9216 4.43195 68.5909 4.52262 68.3563 4.70395C68.1216 4.87462 68.0043 5.09862 68.0043 5.37595C68.0043 5.65328 68.1643 5.87195 68.4843 6.03195C68.8149 6.19195 69.2469 6.33595 69.7803 6.46395C70.3136 6.58128 70.8043 6.71995 71.2523 6.87995C71.7109 7.02928 72.0789 7.25328 72.3563 7.55195C72.6336 7.85062 72.7723 8.28795 72.7723 8.86395C72.7829 9.58928 72.5003 10.192 71.9243 10.672C71.3589 11.152 70.5856 11.392 69.6043 11.392Z" fill="black"/>
</svg>
