<svg width="80" height="53" viewBox="0 0 80 53" fill="none" xmlns="http://www.w3.org/2000/svg">
<mask id="path-1-inside-1_64_4533" fill="white">
<path d="M60.1064 0C71.0934 3.29863e-05 80 8.90663 80 19.8936V26.1064C79.9998 37.0932 71.0933 46 60.1064 46H32.7274C31.4783 46 30.4875 47.0117 30.0153 48.1682C28.904 50.8897 26.0185 52.8291 22.6328 52.8291C18.2851 52.829 14.7608 49.631 14.7607 45.6855C14.7607 45.4795 14.6262 45.2945 14.4281 45.238C6.09891 42.8631 0.000136481 35.1977 0 26.1064V19.8936C0 8.90663 8.90664 3.29884e-05 19.8936 0H60.1064Z"/>
</mask>
<path d="M60.1064 0C71.0934 3.29863e-05 80 8.90663 80 19.8936V26.1064C79.9998 37.0932 71.0933 46 60.1064 46H32.7274C31.4783 46 30.4875 47.0117 30.0153 48.1682C28.904 50.8897 26.0185 52.8291 22.6328 52.8291C18.2851 52.829 14.7608 49.631 14.7607 45.6855C14.7607 45.4795 14.6262 45.2945 14.4281 45.238C6.09891 42.8631 0.000136481 35.1977 0 26.1064V19.8936C0 8.90663 8.90664 3.29884e-05 19.8936 0H60.1064Z" fill="#4D4D4D"/>
<path d="M60.1064 0L60.1064 -1H60.1064V0ZM80 26.1064L81 26.1065V26.1064H80ZM60.1064 46V47H60.1064L60.1064 46ZM22.6328 52.8291L22.6328 53.8291H22.6328V52.8291ZM14.7607 45.6855H13.7607V45.6856L14.7607 45.6855ZM0 26.1064H-1V26.1065L0 26.1064ZM19.8936 0V-1H19.8936L19.8936 0ZM14.4281 45.238L14.7023 44.2763L14.4281 45.238ZM60.1064 0L60.1064 1C70.5411 1.00003 79 9.45892 79 19.8936H80H81C81 8.35435 71.6456 -0.999965 60.1064 -1L60.1064 0ZM80 19.8936H79V26.1064H80H81V19.8936H80ZM80 26.1064L79 26.1064C78.9998 36.5409 70.541 45 60.1064 45L60.1064 46L60.1064 47C71.6456 47 80.9998 37.6455 81 26.1065L80 26.1064ZM60.1064 46V45H32.7274V46V47H60.1064V46ZM30.0153 48.1682L29.0895 47.7902C28.144 50.1058 25.6453 51.8291 22.6328 51.8291V52.8291V53.8291C26.3918 53.8291 29.6641 51.6735 30.9411 48.5462L30.0153 48.1682ZM22.6328 52.8291L22.6328 51.8291C18.7438 51.829 15.7608 48.9895 15.7607 45.6855L14.7607 45.6855L13.7607 45.6856C13.7608 50.2724 17.8265 53.829 22.6328 53.8291L22.6328 52.8291ZM14.4281 45.238L14.7023 44.2763C6.79113 42.0206 1.00013 34.7391 1 26.1064L0 26.1064L-1 26.1065C-0.999857 35.6562 5.40669 43.7055 14.1538 46.1996L14.4281 45.238ZM0 26.1064H1V19.8936H0H-1V26.1064H0ZM0 19.8936H1C1 9.45892 9.45893 1.00003 19.8936 1L19.8936 0L19.8936 -1C8.35436 -0.999965 -1 8.35435 -1 19.8936H0ZM19.8936 0V1H60.1064V0V-1H19.8936V0ZM14.7607 45.6855H15.7607C15.7607 45.0502 15.3465 44.46 14.7023 44.2763L14.4281 45.238L14.1538 46.1996C13.9059 46.1289 13.7607 45.9087 13.7607 45.6855H14.7607ZM32.7274 46V45C30.8995 45 29.6376 46.448 29.0895 47.7902L30.0153 48.1682L30.9411 48.5462C31.3375 47.5754 32.057 47 32.7274 47V46Z" fill="white" mask="url(#path-1-inside-1_64_4533)"/>
</svg>
