<svg width="370" height="34" viewBox="0 0 370 34" fill="none" xmlns="http://www.w3.org/2000/svg">
<rect width="370" height="34" rx="10" fill="#E6E6E6"/>
<path d="M10.9092 15.4463C10.9092 14.5332 11.0807 13.6782 11.4238 12.8813C11.7669 12.0789 12.2428 11.3734 12.8516 10.7646C13.4603 10.1559 14.1631 9.68001 14.96 9.33691C15.7624 8.99382 16.6201 8.82227 17.5332 8.82227C18.4463 8.82227 19.3013 8.99382 20.0981 9.33691C20.9006 9.68001 21.6061 10.1559 22.2148 10.7646C22.8236 11.3734 23.2995 12.0789 23.6426 12.8813C23.9857 13.6782 24.1572 14.5332 24.1572 15.4463C24.1572 16.2044 24.0355 16.9238 23.792 17.6045C23.554 18.2852 23.222 18.9022 22.7959 19.4556L26.855 23.5396C26.9435 23.6281 27.0099 23.7305 27.0542 23.8467C27.104 23.9629 27.1289 24.0874 27.1289 24.2202C27.1289 24.4028 27.0874 24.5688 27.0044 24.7183C26.9269 24.8677 26.8162 24.9839 26.6724 25.0669C26.5285 25.1554 26.3625 25.1997 26.1743 25.1997C26.0415 25.1997 25.9142 25.1748 25.7925 25.125C25.6763 25.0807 25.5684 25.0116 25.4688 24.9175L21.3848 20.8252C20.8424 21.2126 20.2448 21.5169 19.5918 21.7383C18.9388 21.9596 18.2526 22.0703 17.5332 22.0703C16.6201 22.0703 15.7624 21.8988 14.96 21.5557C14.1631 21.2126 13.4603 20.7367 12.8516 20.1279C12.2428 19.5192 11.7669 18.8164 11.4238 18.0195C11.0807 17.2171 10.9092 16.3594 10.9092 15.4463ZM12.3286 15.4463C12.3286 16.1657 12.4614 16.8408 12.7271 17.4717C12.9982 18.097 13.3717 18.6476 13.8477 19.1235C14.3291 19.5994 14.8825 19.973 15.5078 20.2441C16.1387 20.5153 16.8138 20.6509 17.5332 20.6509C18.2526 20.6509 18.925 20.5153 19.5503 20.2441C20.1812 19.973 20.7345 19.5994 21.2104 19.1235C21.6864 18.6476 22.0599 18.097 22.3311 17.4717C22.6022 16.8408 22.7378 16.1657 22.7378 15.4463C22.7378 14.7269 22.6022 14.0545 22.3311 13.4292C22.0599 12.7983 21.6864 12.245 21.2104 11.769C20.7345 11.2876 20.1812 10.9141 19.5503 10.6484C18.925 10.3773 18.2526 10.2417 17.5332 10.2417C16.8138 10.2417 16.1387 10.3773 15.5078 10.6484C14.8825 10.9141 14.3291 11.2876 13.8477 11.769C13.3717 12.245 12.9982 12.7983 12.7271 13.4292C12.4614 14.0545 12.3286 14.7269 12.3286 15.4463Z" fill="#999999"/>
</svg>
