<svg width="101" height="12" viewBox="0 0 101 12" fill="none" xmlns="http://www.w3.org/2000/svg">
<path d="M8.20756e-05 8.64014V0.240136H5.42408V1.47614H1.53608V3.82814H4.68008V5.04014H1.53608V8.64014H8.20756e-05ZM9.11305 8.78414C8.53705 8.78414 8.01705 8.65214 7.55305 8.38814C7.09705 8.12414 6.73305 7.76014 6.46105 7.29614C6.19705 6.82414 6.06505 6.28014 6.06505 5.66414C6.06505 5.04814 6.20105 4.50814 6.47305 4.04414C6.74505 3.57214 7.10905 3.20414 7.56505 2.94014C8.02905 2.67614 8.54905 2.54414 9.12505 2.54414C9.69305 2.54414 10.2051 2.67614 10.6611 2.94014C11.1251 3.20414 11.4891 3.57214 11.7531 4.04414C12.0251 4.50814 12.1611 5.04814 12.1611 5.66414C12.1611 6.28014 12.0251 6.82414 11.7531 7.29614C11.4891 7.76014 11.1251 8.12414 10.6611 8.38814C10.1971 8.65214 9.68105 8.78414 9.11305 8.78414ZM9.11305 7.45214C9.51305 7.45214 9.86105 7.30414 10.1571 7.00814C10.4531 6.70414 10.6011 6.25614 10.6011 5.66414C10.6011 5.07214 10.4531 4.62814 10.1571 4.33214C9.86105 4.02814 9.51705 3.87614 9.12505 3.87614C8.71705 3.87614 8.36505 4.02814 8.06905 4.33214C7.78105 4.62814 7.63705 5.07214 7.63705 5.66414C7.63705 6.25614 7.78105 6.70414 8.06905 7.00814C8.36505 7.30414 8.71305 7.45214 9.11305 7.45214ZM13.5344 8.64014V2.68814H14.9024L15.0464 3.80414C15.2624 3.42014 15.5544 3.11614 15.9224 2.89214C16.2984 2.66014 16.7384 2.54414 17.2424 2.54414V4.16414H16.8104C16.4744 4.16414 16.1744 4.21614 15.9104 4.32014C15.6464 4.42414 15.4384 4.60414 15.2864 4.86014C15.1424 5.11614 15.0704 5.47214 15.0704 5.92814V8.64014H13.5344ZM20.6716 6.86414C20.3836 6.86414 20.1156 6.83214 19.8676 6.76814L19.4236 7.21214C19.5596 7.28414 19.7436 7.34414 19.9756 7.39214C20.2076 7.44014 20.5836 7.48814 21.1036 7.53614C21.8956 7.60814 22.4716 7.79614 22.8316 8.10014C23.1916 8.40414 23.3716 8.82414 23.3716 9.36014C23.3716 9.71214 23.2756 10.0441 23.0836 10.3561C22.8916 10.6761 22.5956 10.9321 22.1956 11.1241C21.7956 11.3241 21.2836 11.4241 20.6596 11.4241C19.8116 11.4241 19.1276 11.2641 18.6076 10.9441C18.0876 10.6321 17.8276 10.1601 17.8276 9.52814C17.8276 8.99214 18.0876 8.52814 18.6076 8.13614C18.4476 8.06414 18.3076 7.98814 18.1876 7.90814C18.0756 7.82814 17.9756 7.74414 17.8876 7.65614V7.38014L18.9316 6.27614C18.4676 5.86814 18.2356 5.34414 18.2356 4.70414C18.2356 4.30414 18.3316 3.94014 18.5236 3.61214C18.7236 3.28414 19.0036 3.02414 19.3636 2.83214C19.7236 2.64014 20.1596 2.54414 20.6716 2.54414C21.0076 2.54414 21.3196 2.59214 21.6076 2.68814H23.8636V3.62414L22.8436 3.69614C23.0036 4.00014 23.0836 4.33614 23.0836 4.70414C23.0836 5.10414 22.9876 5.46814 22.7956 5.79614C22.6036 6.12414 22.3236 6.38414 21.9556 6.57614C21.5956 6.76814 21.1676 6.86414 20.6716 6.86414ZM20.6716 5.68814C20.9836 5.68814 21.2396 5.60414 21.4396 5.43614C21.6476 5.26814 21.7516 5.02814 21.7516 4.71614C21.7516 4.40414 21.6476 4.16414 21.4396 3.99614C21.2396 3.82814 20.9836 3.74414 20.6716 3.74414C20.3436 3.74414 20.0796 3.82814 19.8796 3.99614C19.6796 4.16414 19.5796 4.40414 19.5796 4.71614C19.5796 5.02814 19.6796 5.26814 19.8796 5.43614C20.0796 5.60414 20.3436 5.68814 20.6716 5.68814ZM19.2316 9.37214C19.2316 9.66814 19.3676 9.88814 19.6396 10.0321C19.9196 10.1841 20.2596 10.2601 20.6596 10.2601C21.0436 10.2601 21.3556 10.1801 21.5956 10.0201C21.8356 9.86814 21.9556 9.66014 21.9556 9.39614C21.9556 9.18014 21.8756 9.00014 21.7156 8.85614C21.5636 8.71214 21.2556 8.62414 20.7916 8.59214C20.4636 8.56814 20.1596 8.53214 19.8796 8.48414C19.6476 8.61214 19.4796 8.75214 19.3756 8.90414C19.2796 9.05614 19.2316 9.21214 19.2316 9.37214ZM27.6052 8.78414C27.0292 8.78414 26.5092 8.65214 26.0452 8.38814C25.5892 8.12414 25.2252 7.76014 24.9532 7.29614C24.6892 6.82414 24.5572 6.28014 24.5572 5.66414C24.5572 5.04814 24.6932 4.50814 24.9652 4.04414C25.2372 3.57214 25.6012 3.20414 26.0572 2.94014C26.5212 2.67614 27.0412 2.54414 27.6172 2.54414C28.1852 2.54414 28.6972 2.67614 29.1532 2.94014C29.6172 3.20414 29.9812 3.57214 30.2452 4.04414C30.5172 4.50814 30.6532 5.04814 30.6532 5.66414C30.6532 6.28014 30.5172 6.82414 30.2452 7.29614C29.9812 7.76014 29.6172 8.12414 29.1532 8.38814C28.6892 8.65214 28.1732 8.78414 27.6052 8.78414ZM27.6052 7.45214C28.0052 7.45214 28.3532 7.30414 28.6492 7.00814C28.9452 6.70414 29.0932 6.25614 29.0932 5.66414C29.0932 5.07214 28.9452 4.62814 28.6492 4.33214C28.3532 4.02814 28.0092 3.87614 27.6172 3.87614C27.2092 3.87614 26.8572 4.02814 26.5612 4.33214C26.2732 4.62814 26.1292 5.07214 26.1292 5.66414C26.1292 6.25614 26.2732 6.70414 26.5612 7.00814C26.8572 7.30414 27.2052 7.45214 27.6052 7.45214ZM34.4442 8.64014C33.8202 8.64014 33.3202 8.48814 32.9442 8.18414C32.5682 7.88014 32.3802 7.34014 32.3802 6.56414V3.97214H31.3602V2.68814H32.3802L32.5602 1.09214H33.9162V2.68814H35.5242V3.97214H33.9162V6.57614C33.9162 6.86414 33.9762 7.06414 34.0962 7.17614C34.2242 7.28014 34.4402 7.33214 34.7442 7.33214H35.4882V8.64014H34.4442ZM39.7384 8.64014V0.240136H42.8464C43.5184 0.240136 44.0744 0.352136 44.5144 0.576136C44.9544 0.800136 45.2824 1.10814 45.4984 1.50014C45.7144 1.89214 45.8224 2.33214 45.8224 2.82014C45.8224 3.28414 45.7184 3.71214 45.5104 4.10414C45.3024 4.48814 44.9784 4.80014 44.5384 5.04014C44.0984 5.27214 43.5344 5.38814 42.8464 5.38814H41.2744V8.64014H39.7384ZM41.2744 4.14014H42.7504C43.2864 4.14014 43.6704 4.02414 43.9024 3.79214C44.1424 3.55214 44.2624 3.22814 44.2624 2.82014C44.2624 2.40414 44.1424 2.08014 43.9024 1.84814C43.6704 1.60814 43.2864 1.48814 42.7504 1.48814H41.2744V4.14014ZM48.6684 8.78414C48.1564 8.78414 47.7364 8.70414 47.4084 8.54414C47.0804 8.37614 46.8364 8.15614 46.6764 7.88414C46.5164 7.61214 46.4364 7.31214 46.4364 6.98414C46.4364 6.43214 46.6524 5.98414 47.0844 5.64014C47.5164 5.29614 48.1644 5.12414 49.0284 5.12414H50.5404V4.98014C50.5404 4.57214 50.4244 4.27214 50.1924 4.08014C49.9604 3.88814 49.6724 3.79214 49.3284 3.79214C49.0164 3.79214 48.7444 3.86814 48.5124 4.02014C48.2804 4.16414 48.1364 4.38014 48.0804 4.66814H46.5804C46.6204 4.23614 46.7644 3.86014 47.0124 3.54014C47.2684 3.22014 47.5964 2.97614 47.9964 2.80814C48.3964 2.63214 48.8444 2.54414 49.3404 2.54414C50.1884 2.54414 50.8564 2.75614 51.3444 3.18014C51.8324 3.60414 52.0764 4.20414 52.0764 4.98014V8.64014H50.7684L50.6244 7.68014C50.4484 8.00014 50.2004 8.26414 49.8804 8.47214C49.5684 8.68014 49.1644 8.78414 48.6684 8.78414ZM49.0164 7.58414C49.4564 7.58414 49.7964 7.44014 50.0364 7.15214C50.2844 6.86414 50.4404 6.50814 50.5044 6.08414H49.1964C48.7884 6.08414 48.4964 6.16014 48.3204 6.31214C48.1444 6.45614 48.0564 6.63614 48.0564 6.85214C48.0564 7.08414 48.1444 7.26414 48.3204 7.39214C48.4964 7.52014 48.7284 7.58414 49.0164 7.58414ZM56.0022 8.78414C55.4742 8.78414 55.0102 8.70014 54.6102 8.53214C54.2102 8.35614 53.8902 8.11614 53.6502 7.81214C53.4102 7.50814 53.2662 7.15614 53.2182 6.75614H54.7662C54.8142 6.98814 54.9422 7.18814 55.1502 7.35614C55.3662 7.51614 55.6422 7.59614 55.9782 7.59614C56.3142 7.59614 56.5582 7.52814 56.7102 7.39214C56.8702 7.25614 56.9502 7.10014 56.9502 6.92414C56.9502 6.66814 56.8382 6.49614 56.6142 6.40814C56.3902 6.31214 56.0782 6.22014 55.6782 6.13214C55.4222 6.07614 55.1622 6.00814 54.8982 5.92814C54.6342 5.84814 54.3902 5.74814 54.1662 5.62814C53.9502 5.50014 53.7742 5.34014 53.6382 5.14814C53.5022 4.94814 53.4342 4.70414 53.4342 4.41614C53.4342 3.88814 53.6422 3.44414 54.0582 3.08414C54.4822 2.72414 55.0742 2.54414 55.8342 2.54414C56.5382 2.54414 57.0982 2.70814 57.5142 3.03614C57.9382 3.36414 58.1902 3.81614 58.2702 4.39214H56.8182C56.7302 3.95214 56.3982 3.73214 55.8222 3.73214C55.5342 3.73214 55.3102 3.78814 55.1502 3.90014C54.9982 4.01214 54.9222 4.15214 54.9222 4.32014C54.9222 4.49614 55.0382 4.63614 55.2702 4.74014C55.5022 4.84414 55.8102 4.94014 56.1942 5.02814C56.6102 5.12414 56.9902 5.23214 57.3342 5.35214C57.6862 5.46414 57.9662 5.63614 58.1742 5.86814C58.3822 6.09214 58.4862 6.41614 58.4862 6.84014C58.4942 7.20814 58.3982 7.54014 58.1982 7.83614C57.9982 8.13214 57.7102 8.36414 57.3342 8.53214C56.9582 8.70014 56.5142 8.78414 56.0022 8.78414ZM62.3069 8.78414C61.7789 8.78414 61.3149 8.70014 60.9149 8.53214C60.5149 8.35614 60.1949 8.11614 59.9549 7.81214C59.7149 7.50814 59.5709 7.15614 59.5229 6.75614H61.0709C61.1189 6.98814 61.2469 7.18814 61.4549 7.35614C61.6709 7.51614 61.9469 7.59614 62.2829 7.59614C62.6189 7.59614 62.8629 7.52814 63.0149 7.39214C63.1749 7.25614 63.2549 7.10014 63.2549 6.92414C63.2549 6.66814 63.1429 6.49614 62.9189 6.40814C62.6949 6.31214 62.3829 6.22014 61.9829 6.13214C61.7269 6.07614 61.4669 6.00814 61.2029 5.92814C60.9389 5.84814 60.6949 5.74814 60.4709 5.62814C60.2549 5.50014 60.0789 5.34014 59.9429 5.14814C59.8069 4.94814 59.7389 4.70414 59.7389 4.41614C59.7389 3.88814 59.9469 3.44414 60.3629 3.08414C60.7869 2.72414 61.3789 2.54414 62.1389 2.54414C62.8429 2.54414 63.4029 2.70814 63.8189 3.03614C64.2429 3.36414 64.4949 3.81614 64.5749 4.39214H63.1229C63.0349 3.95214 62.7029 3.73214 62.1269 3.73214C61.8389 3.73214 61.6149 3.78814 61.4549 3.90014C61.3029 4.01214 61.2269 4.15214 61.2269 4.32014C61.2269 4.49614 61.3429 4.63614 61.5749 4.74014C61.8069 4.84414 62.1149 4.94014 62.4989 5.02814C62.9149 5.12414 63.2949 5.23214 63.6389 5.35214C63.9909 5.46414 64.2709 5.63614 64.4789 5.86814C64.6869 6.09214 64.7909 6.41614 64.7909 6.84014C64.7989 7.20814 64.7029 7.54014 64.5029 7.83614C64.3029 8.13214 64.0149 8.36414 63.6389 8.53214C63.2629 8.70014 62.8189 8.78414 62.3069 8.78414ZM67.1398 8.64014L65.3998 2.68814H66.9238L67.9558 6.97214L69.1558 2.68814H70.8598L72.0598 6.97214L73.1038 2.68814H74.6278L72.8758 8.64014H71.2798L70.0078 4.18814L68.7358 8.64014H67.1398ZM78.242 8.78414C77.666 8.78414 77.146 8.65214 76.682 8.38814C76.226 8.12414 75.862 7.76014 75.59 7.29614C75.326 6.82414 75.194 6.28014 75.194 5.66414C75.194 5.04814 75.33 4.50814 75.602 4.04414C75.874 3.57214 76.238 3.20414 76.694 2.94014C77.158 2.67614 77.678 2.54414 78.254 2.54414C78.822 2.54414 79.334 2.67614 79.79 2.94014C80.254 3.20414 80.618 3.57214 80.882 4.04414C81.154 4.50814 81.29 5.04814 81.29 5.66414C81.29 6.28014 81.154 6.82414 80.882 7.29614C80.618 7.76014 80.254 8.12414 79.79 8.38814C79.326 8.65214 78.81 8.78414 78.242 8.78414ZM78.242 7.45214C78.642 7.45214 78.99 7.30414 79.286 7.00814C79.582 6.70414 79.73 6.25614 79.73 5.66414C79.73 5.07214 79.582 4.62814 79.286 4.33214C78.99 4.02814 78.646 3.87614 78.254 3.87614C77.846 3.87614 77.494 4.02814 77.198 4.33214C76.91 4.62814 76.766 5.07214 76.766 5.66414C76.766 6.25614 76.91 6.70414 77.198 7.00814C77.494 7.30414 77.842 7.45214 78.242 7.45214ZM82.6633 8.64014V2.68814H84.0313L84.1753 3.80414C84.3913 3.42014 84.6833 3.11614 85.0513 2.89214C85.4273 2.66014 85.8673 2.54414 86.3713 2.54414V4.16414H85.9393C85.6033 4.16414 85.3033 4.21614 85.0393 4.32014C84.7753 4.42414 84.5673 4.60414 84.4153 4.86014C84.2713 5.11614 84.1993 5.47214 84.1993 5.92814V8.64014H82.6633ZM90.0516 8.78414C89.4916 8.78414 88.9916 8.64814 88.5516 8.37614C88.1116 8.10414 87.7636 7.73214 87.5076 7.26014C87.2516 6.78814 87.1236 6.25214 87.1236 5.65214C87.1236 5.05214 87.2516 4.52014 87.5076 4.05614C87.7636 3.58414 88.1116 3.21614 88.5516 2.95214C88.9916 2.68014 89.4916 2.54414 90.0516 2.54414C90.4996 2.54414 90.8916 2.62814 91.2276 2.79614C91.5636 2.96414 91.8356 3.20014 92.0436 3.50414V0.000136375H93.5796V8.64014H92.2116L92.0436 7.78814C91.8516 8.05214 91.5956 8.28414 91.2756 8.48414C90.9636 8.68414 90.5556 8.78414 90.0516 8.78414ZM90.3756 7.44014C90.8716 7.44014 91.2756 7.27614 91.5876 6.94814C91.9076 6.61214 92.0676 6.18414 92.0676 5.66414C92.0676 5.14414 91.9076 4.72014 91.5876 4.39214C91.2756 4.05614 90.8716 3.88814 90.3756 3.88814C89.8876 3.88814 89.4836 4.05214 89.1636 4.38014C88.8436 4.70814 88.6836 5.13214 88.6836 5.65214C88.6836 6.17214 88.8436 6.60014 89.1636 6.93614C89.4836 7.27214 89.8876 7.44014 90.3756 7.44014ZM96.0078 6.02414L95.9598 4.04414H96.5118C96.9198 4.04414 97.2918 4.00814 97.6278 3.93614C97.9638 3.86414 98.2318 3.72414 98.4318 3.51614C98.6318 3.30814 98.7318 3.00414 98.7318 2.60414C98.7318 2.22014 98.6158 1.92014 98.3838 1.70414C98.1518 1.48014 97.8438 1.36814 97.4598 1.36814C97.0598 1.36814 96.7478 1.48014 96.5238 1.70414C96.2998 1.92014 96.1878 2.21614 96.1878 2.59214H94.7358C94.7278 2.11214 94.8318 1.68414 95.0478 1.30814C95.2638 0.932136 95.5758 0.636136 95.9838 0.420136C96.3998 0.204136 96.8958 0.0961366 97.4718 0.0961366C98.0078 0.0961366 98.4798 0.196136 98.8878 0.396136C99.3038 0.596136 99.6278 0.884136 99.8598 1.26014C100.1 1.62814 100.22 2.08014 100.22 2.61614C100.22 3.16814 100.096 3.62414 99.8478 3.98414C99.6078 4.34414 99.2758 4.61214 98.8518 4.78814C98.4358 4.96414 97.9518 5.05614 97.3998 5.06414L97.3638 6.02414H96.0078ZM96.6918 8.72414C96.4118 8.72414 96.1798 8.63614 95.9958 8.46014C95.8198 8.28414 95.7318 8.07214 95.7318 7.82414C95.7318 7.56814 95.8198 7.35214 95.9958 7.17614C96.1798 7.00014 96.4118 6.91214 96.6918 6.91214C96.9718 6.91214 97.1998 7.00014 97.3758 7.17614C97.5518 7.35214 97.6398 7.56814 97.6398 7.82414C97.6398 8.07214 97.5518 8.28414 97.3758 8.46014C97.1998 8.63614 96.9718 8.72414 96.6918 8.72414Z" fill="black"/>
</svg>
