<svg width="15" height="16" viewBox="0 0 15 16" fill="none" xmlns="http://www.w3.org/2000/svg">
<path fill-rule="evenodd" clip-rule="evenodd" d="M11.2873 3.99635C11.2873 6.51824 9.54351 8.68257 7.22142 8.68257C4.89753 8.68257 3.15551 6.51824 3.15551 3.99556C3.15551 1.47446 4.65538 0 7.22142 0C9.78746 0 11.2873 1.47367 11.2873 3.99635ZM0.0852988 14.3199C0.43316 14.6814 1.93122 15.7865 7.22142 15.7865C12.5116 15.7865 14.0088 14.6814 14.3575 14.3207C14.3899 14.286 14.4138 14.246 14.4278 14.2029C14.4418 14.1599 14.4455 14.1148 14.4389 14.0705C14.3594 13.3743 13.6419 10.2612 7.22142 10.2612C0.800899 10.2612 0.0834916 13.3743 0.00307697 14.0705C-0.0034665 14.1149 0.000451641 14.16 0.0145911 14.203C0.0287307 14.2461 0.0527929 14.2853 0.0852988 14.3199Z" fill="black"/>
</svg>
