<svg width="69" height="10" viewBox="0 0 69 10" fill="none" xmlns="http://www.w3.org/2000/svg">
<path opacity="0.9" d="M3.44979 7.31995C2.76313 7.31995 2.15979 7.16995 1.63979 6.86995C1.12646 6.56328 0.723126 6.13662 0.429793 5.58995C0.143126 5.04328 -0.000207193 4.41328 -0.000207193 3.69995C-0.000207193 2.98662 0.143126 2.35995 0.429793 1.81995C0.723126 1.27328 1.12646 0.846618 1.63979 0.539951C2.15979 0.233284 2.76313 0.079951 3.44979 0.079951C4.14313 0.079951 4.74646 0.233284 5.25979 0.539951C5.77979 0.846618 6.18313 1.27328 6.46979 1.81995C6.75646 2.35995 6.89979 2.98662 6.89979 3.69995C6.89979 4.41328 6.75646 5.04328 6.46979 5.58995C6.18313 6.13662 5.77979 6.56328 5.25979 6.86995C4.74646 7.16995 4.14313 7.31995 3.44979 7.31995ZM3.44979 6.57995C3.96313 6.57995 4.41313 6.46662 4.79979 6.23995C5.19313 6.00662 5.49646 5.67662 5.70979 5.24995C5.92979 4.81662 6.03979 4.29995 6.03979 3.69995C6.03979 3.09995 5.92979 2.58662 5.70979 2.15995C5.49646 1.73328 5.19313 1.40662 4.79979 1.17995C4.41313 0.946617 3.96313 0.829951 3.44979 0.829951C2.93646 0.829951 2.48313 0.946617 2.08979 1.17995C1.70313 1.40662 1.39979 1.73328 1.17979 2.15995C0.966459 2.58662 0.859793 3.09995 0.859793 3.69995C0.859793 4.29995 0.966459 4.81662 1.17979 5.24995C1.39979 5.67662 1.70313 6.00662 2.08979 6.23995C2.48313 6.46662 2.93646 6.57995 3.44979 6.57995ZM8.06159 7.19995V2.23995H8.82159L8.89159 3.18995C9.04492 2.86328 9.27826 2.60328 9.59159 2.40995C9.90492 2.21662 10.2916 2.11995 10.7516 2.11995V2.99995H10.5216C10.2283 2.99995 9.95826 3.05328 9.71159 3.15995C9.46492 3.25995 9.26826 3.43328 9.12159 3.67995C8.97492 3.92662 8.90159 4.26662 8.90159 4.69995V7.19995H8.06159ZM16.2409 7.31995C15.6476 7.31995 15.1542 7.16995 14.7609 6.86995C14.3676 6.56995 14.1376 6.16328 14.0709 5.64995H14.9309C14.9842 5.90995 15.1209 6.13662 15.3409 6.32995C15.5676 6.51662 15.8709 6.60995 16.2509 6.60995C16.6042 6.60995 16.8642 6.53662 17.0309 6.38995C17.1976 6.23662 17.2809 6.05662 17.2809 5.84995C17.2809 5.54995 17.1709 5.34995 16.9509 5.24995C16.7376 5.14995 16.4342 5.05995 16.0409 4.97995C15.7742 4.92662 15.5076 4.84995 15.2409 4.74995C14.9742 4.64995 14.7509 4.50995 14.5709 4.32995C14.3909 4.14328 14.3009 3.89995 14.3009 3.59995C14.3009 3.16662 14.4609 2.81328 14.7809 2.53995C15.1076 2.25995 15.5476 2.11995 16.1009 2.11995C16.6276 2.11995 17.0576 2.25328 17.3909 2.51995C17.7309 2.77995 17.9276 3.15328 17.9809 3.63995H17.1509C17.1176 3.38662 17.0076 3.18995 16.8209 3.04995C16.6409 2.90328 16.3976 2.82995 16.0909 2.82995C15.7909 2.82995 15.5576 2.89328 15.3909 3.01995C15.2309 3.14662 15.1509 3.31328 15.1509 3.51995C15.1509 3.71995 15.2542 3.87662 15.4609 3.98995C15.6742 4.10328 15.9609 4.19995 16.3209 4.27995C16.6276 4.34662 16.9176 4.42995 17.1909 4.52995C17.4709 4.62328 17.6976 4.76662 17.8709 4.95995C18.0509 5.14662 18.1409 5.41995 18.1409 5.77995C18.1476 6.22662 17.9776 6.59662 17.6309 6.88995C17.2909 7.17662 16.8276 7.31995 16.2409 7.31995ZM19.8509 1.13995C19.6842 1.13995 19.5442 1.08662 19.4309 0.979951C19.3242 0.866617 19.2709 0.726617 19.2709 0.559951C19.2709 0.399951 19.3242 0.266617 19.4309 0.159951C19.5442 0.0532841 19.6842 -4.91142e-05 19.8509 -4.91142e-05C20.0109 -4.91142e-05 20.1476 0.0532841 20.2609 0.159951C20.3742 0.266617 20.4309 0.399951 20.4309 0.559951C20.4309 0.726617 20.3742 0.866617 20.2609 0.979951C20.1476 1.08662 20.0109 1.13995 19.8509 1.13995ZM19.4309 7.19995V2.23995H20.2709V7.19995H19.4309ZM23.6935 5.63995C23.4135 5.63995 23.1568 5.60328 22.9235 5.52995L22.4235 5.99995C22.4968 6.05328 22.5868 6.09995 22.6935 6.13995C22.8068 6.17328 22.9668 6.20662 23.1735 6.23995C23.3801 6.26662 23.6701 6.29662 24.0435 6.32995C24.7101 6.37662 25.1868 6.52995 25.4735 6.78995C25.7601 7.04995 25.9035 7.38995 25.9035 7.80995C25.9035 8.09662 25.8235 8.36995 25.6635 8.62995C25.5101 8.88995 25.2701 9.10328 24.9435 9.26995C24.6235 9.43662 24.2101 9.51995 23.7035 9.51995C23.2568 9.51995 22.8601 9.45995 22.5135 9.33995C22.1668 9.22662 21.8968 9.04995 21.7035 8.80995C21.5101 8.57662 21.4135 8.27995 21.4135 7.91995C21.4135 7.73328 21.4635 7.52995 21.5635 7.30995C21.6635 7.09662 21.8501 6.89328 22.1235 6.69995C21.9768 6.63995 21.8501 6.57662 21.7435 6.50995C21.6435 6.43662 21.5501 6.35662 21.4635 6.26995V6.03995L22.3135 5.19995C21.9201 4.86662 21.7235 4.42662 21.7235 3.87995C21.7235 3.55328 21.8001 3.25662 21.9535 2.98995C22.1068 2.72328 22.3301 2.51328 22.6235 2.35995C22.9168 2.19995 23.2735 2.11995 23.6935 2.11995C23.9801 2.11995 24.2401 2.15995 24.4735 2.23995H26.3035V2.86995L25.3735 2.90995C25.5668 3.18995 25.6635 3.51328 25.6635 3.87995C25.6635 4.20662 25.5835 4.50328 25.4235 4.76995C25.2701 5.03662 25.0468 5.24995 24.7535 5.40995C24.4668 5.56328 24.1135 5.63995 23.6935 5.63995ZM23.6935 4.94995C24.0468 4.94995 24.3268 4.85995 24.5335 4.67995C24.7468 4.49328 24.8535 4.22662 24.8535 3.87995C24.8535 3.53995 24.7468 3.27995 24.5335 3.09995C24.3268 2.91328 24.0468 2.81995 23.6935 2.81995C23.3335 2.81995 23.0468 2.91328 22.8335 3.09995C22.6268 3.27995 22.5235 3.53995 22.5235 3.87995C22.5235 4.22662 22.6268 4.49328 22.8335 4.67995C23.0468 4.85995 23.3335 4.94995 23.6935 4.94995ZM22.2335 7.83995C22.2335 8.17328 22.3735 8.41995 22.6535 8.57995C22.9335 8.74662 23.2835 8.82995 23.7035 8.82995C24.1168 8.82995 24.4468 8.73995 24.6935 8.55995C24.9468 8.37995 25.0735 8.13995 25.0735 7.83995C25.0735 7.62662 24.9868 7.43995 24.8135 7.27995C24.6401 7.12662 24.3201 7.03662 23.8535 7.00995C23.4868 6.98328 23.1701 6.94995 22.9035 6.90995C22.6301 7.05662 22.4501 7.21328 22.3635 7.37995C22.2768 7.55328 22.2335 7.70662 22.2335 7.83995ZM27.251 7.19995V2.23995H28.011L28.061 3.12995C28.221 2.81662 28.451 2.56995 28.751 2.38995C29.051 2.20995 29.391 2.11995 29.771 2.11995C30.3577 2.11995 30.8244 2.29995 31.171 2.65995C31.5244 3.01328 31.701 3.55995 31.701 4.29995V7.19995H30.861V4.38995C30.861 3.35662 30.4344 2.83995 29.581 2.83995C29.1544 2.83995 28.7977 2.99662 28.511 3.30995C28.231 3.61662 28.091 4.05662 28.091 4.62995V7.19995H27.251ZM37.4302 7.31995C36.8435 7.31995 36.3769 7.14328 36.0302 6.78995C35.6835 6.42995 35.5102 5.87995 35.5102 5.13995V2.23995H36.3502V5.04995C36.3502 6.08328 36.7735 6.59995 37.6202 6.59995C38.0535 6.59995 38.4102 6.44662 38.6902 6.13995C38.9769 5.82662 39.1202 5.38328 39.1202 4.80995V2.23995H39.9602V7.19995H39.2002L39.1402 6.30995C38.9869 6.62328 38.7569 6.86995 38.4502 7.04995C38.1502 7.22995 37.8102 7.31995 37.4302 7.31995ZM41.3428 9.39995V2.23995H42.1028L42.1828 3.05995C42.3428 2.81995 42.5695 2.60328 42.8628 2.40995C43.1628 2.21662 43.5428 2.11995 44.0028 2.11995C44.4962 2.11995 44.9262 2.23328 45.2928 2.45995C45.6595 2.68662 45.9428 2.99662 46.1428 3.38995C46.3495 3.78328 46.4528 4.22995 46.4528 4.72995C46.4528 5.22995 46.3495 5.67662 46.1428 6.06995C45.9428 6.45662 45.6562 6.76328 45.2828 6.98995C44.9162 7.20995 44.4862 7.31995 43.9928 7.31995C43.5862 7.31995 43.2228 7.23662 42.9028 7.06995C42.5895 6.90328 42.3495 6.66995 42.1828 6.36995V9.39995H41.3428ZM43.9028 6.58995C44.2362 6.58995 44.5295 6.51328 44.7828 6.35995C45.0362 6.19995 45.2362 5.97995 45.3828 5.69995C45.5295 5.41995 45.6028 5.09328 45.6028 4.71995C45.6028 4.34662 45.5295 4.01995 45.3828 3.73995C45.2362 3.45995 45.0362 3.24328 44.7828 3.08995C44.5295 2.92995 44.2362 2.84995 43.9028 2.84995C43.5695 2.84995 43.2762 2.92995 43.0228 3.08995C42.7695 3.24328 42.5695 3.45995 42.4228 3.73995C42.2762 4.01995 42.2028 4.34662 42.2028 4.71995C42.2028 5.09328 42.2762 5.41995 42.4228 5.69995C42.5695 5.97995 42.7695 6.19995 43.0228 6.35995C43.2762 6.51328 43.5695 6.58995 43.9028 6.58995ZM51.2686 7.19995L49.8186 2.23995H50.6586L51.7086 6.12995L52.8686 2.23995H53.8186L54.9886 6.12995L56.0286 2.23995H56.8786L55.4286 7.19995H54.5686L53.3486 3.10995L52.1286 7.19995H51.2686ZM58.3177 1.13995C58.151 1.13995 58.011 1.08662 57.8977 0.979951C57.791 0.866617 57.7377 0.726617 57.7377 0.559951C57.7377 0.399951 57.791 0.266617 57.8977 0.159951C58.011 0.0532841 58.151 -4.91142e-05 58.3177 -4.91142e-05C58.4777 -4.91142e-05 58.6144 0.0532841 58.7277 0.159951C58.841 0.266617 58.8977 0.399951 58.8977 0.559951C58.8977 0.726617 58.841 0.866617 58.7277 0.979951C58.6144 1.08662 58.4777 1.13995 58.3177 1.13995ZM57.8977 7.19995V2.23995H58.7377V7.19995H57.8977ZM62.1603 7.19995C61.7069 7.19995 61.3503 7.08995 61.0903 6.86995C60.8303 6.64995 60.7003 6.25328 60.7003 5.67995V2.94995H59.8403V2.23995H60.7003L60.8103 1.04995H61.5403V2.23995H63.0003V2.94995H61.5403V5.67995C61.5403 5.99328 61.6036 6.20662 61.7303 6.31995C61.8569 6.42662 62.0803 6.47995 62.4003 6.47995H62.9203V7.19995H62.1603ZM64.0674 7.19995V-4.91142e-05H64.9074V3.08995C65.0741 2.78328 65.3108 2.54662 65.6174 2.37995C65.9241 2.20662 66.2574 2.11995 66.6174 2.11995C67.1908 2.11995 67.6508 2.29995 67.9974 2.65995C68.3441 3.01328 68.5174 3.55995 68.5174 4.29995V7.19995H67.6874V4.38995C67.6874 3.35662 67.2708 2.83995 66.4374 2.83995C66.0041 2.83995 65.6408 2.99662 65.3474 3.30995C65.0541 3.61662 64.9074 4.05662 64.9074 4.62995V7.19995H64.0674Z" fill="black"/>
</svg>
