<svg width="15" height="13" viewBox="0 0 15 13" fill="none" xmlns="http://www.w3.org/2000/svg">
<path d="M10.913 9.53341H9.9209V8.66675H10.913V9.53341Z" fill="black"/>
<path d="M7.93652 9.53341H8.92859V8.66675H7.93652V9.53341Z" fill="black"/>
<path d="M12.8969 9.53341H11.9048V8.66675H12.8969V9.53341Z" fill="black"/>
<path fill-rule="evenodd" clip-rule="evenodd" d="M2.97621 5.2V3.03333C2.97621 1.35807 4.53078 0 6.44845 0C8.36611 0 9.92069 1.35807 9.92069 3.03333V5.2H11.4088C12.2306 5.2 12.8969 5.78203 12.8969 6.5V6.97668C14.0289 7.17742 14.881 8.05178 14.881 9.1C14.881 10.1482 14.0289 11.0226 12.8969 11.2233V11.7C12.8969 12.4179 12.2306 13 11.4088 13H1.4881C0.666246 13 0 12.4179 0 11.7V6.5C0 5.78203 0.666246 5.2 1.4881 5.2H2.97621ZM3.96827 3.03333C3.96827 1.83672 5.07869 0.866667 6.44845 0.866667C7.8182 0.866667 8.92862 1.83672 8.92862 3.03333V5.2H3.96827V3.03333ZM8.43258 7.8C7.61072 7.8 6.94448 8.38203 6.94448 9.1C6.94448 9.81795 7.61072 10.4 8.43258 10.4H12.4009C13.2227 10.4 13.889 9.81795 13.889 9.1C13.889 8.38203 13.2227 7.8 12.4009 7.8H8.43258Z" fill="black"/>
</svg>
