<svg width="15" height="8" viewBox="0 0 15 8" fill="none" xmlns="http://www.w3.org/2000/svg">
<path fill-rule="evenodd" clip-rule="evenodd" d="M0.40402 0.0540722C0.74244 -0.0909611 1.13436 0.0658058 1.2794 0.404226L0.666634 0.666839C1.2794 0.404226 1.27949 0.404446 1.2794 0.404226L1.27905 0.403426C1.27887 0.402992 1.27901 0.403306 1.27905 0.403426L1.28167 0.409332C1.28434 0.415346 1.28893 0.425559 1.29546 0.439692C1.30852 0.467972 1.32931 0.511892 1.35797 0.569219C1.41535 0.683966 1.50396 0.851806 1.62491 1.05501C1.86758 1.46269 2.23626 2.00567 2.7385 2.54654C2.85688 2.67399 2.98216 2.80093 3.11449 2.92553C3.12002 2.93059 3.12549 2.93573 3.13089 2.94093C4.12068 3.86779 5.50151 4.66686 7.33333 4.66686C8.13927 4.66686 8.8522 4.51299 9.4806 4.26566C10.2979 3.94393 10.983 3.45959 11.5437 2.93333C12.1768 2.33909 12.6418 1.7002 12.9488 1.2075C13.1017 0.962112 13.2138 0.755626 13.2866 0.612899C13.3229 0.541606 13.3494 0.486452 13.3661 0.450579C13.3745 0.432646 13.3804 0.419552 13.3839 0.411686L13.3872 0.404226C13.5323 0.0659924 13.9243 -0.0909278 14.2626 0.0540722C14.601 0.199112 14.7578 0.591032 14.6127 0.929452L14 0.666839C14.6127 0.929452 14.6128 0.929299 14.6127 0.929452L14.6113 0.932799L14.6089 0.938279L14.6013 0.955512C14.5949 0.969726 14.586 0.989352 14.5745 1.01398C14.5516 1.06322 14.5183 1.13253 14.4743 1.21866C14.3866 1.39077 14.256 1.63089 14.0804 1.91262C13.812 2.34339 13.4347 2.87766 12.9397 3.41639L13.4714 3.94799C13.7317 4.20833 13.7317 4.63046 13.4714 4.89079C13.211 5.15113 12.7889 5.15113 12.5285 4.89079L11.9685 4.33066C11.5923 4.63453 11.1713 4.92106 10.7039 5.16833L11.2254 5.96993C11.4262 6.27853 11.3389 6.69146 11.0302 6.89233C10.7216 7.09313 10.3087 7.00573 10.1079 6.69713L9.45087 5.68739C8.9982 5.82619 8.51467 5.92453 8 5.97059V7.00019C8 7.36839 7.70147 7.66686 7.33333 7.66686C6.96513 7.66686 6.66667 7.36839 6.66667 7.00019V5.97073C6.1502 5.92459 5.66676 5.82606 5.21556 5.68766L4.55876 6.69713C4.35795 7.00573 3.94499 7.09313 3.63638 6.89233C3.32777 6.69146 3.24037 6.27853 3.44118 5.96993L3.96278 5.16826C3.49603 4.92126 3.07497 4.63466 2.69831 4.33053L2.13804 4.89079C1.87769 5.15113 1.45558 5.15113 1.19523 4.89079C0.93488 4.63046 0.93488 4.20833 1.19523 3.94799L1.72686 3.41639C1.16353 2.80319 0.751814 2.19499 0.479194 1.73699C0.339734 1.5027 0.235634 1.30596 0.1654 1.1655C0.13026 1.09522 0.103527 1.03888 0.0850136 0.998799C0.0757536 0.978759 0.068547 0.962766 0.063367 0.951112L0.057107 0.936926L0.0551136 0.932332L0.0544003 0.930679L0.0541136 0.930012C0.0539869 0.929719 0.0538737 0.929452 0.666634 0.666839L0.0541136 0.930012C-0.0909244 0.591592 0.0656003 0.199112 0.40402 0.0540722Z" fill="black"/>
</svg>
