<svg width="14" height="14" viewBox="0 0 14 14" fill="none" xmlns="http://www.w3.org/2000/svg">
<path d="M10.9446 13.3391H11.1912C11.3979 13.3324 11.5912 13.2257 11.7112 13.0524L13.2246 10.8724C13.3246 10.7257 13.3646 10.5457 13.3312 10.3657C13.3149 10.278 13.2811 10.1944 13.2318 10.12C13.1826 10.0456 13.1189 9.98176 13.0446 9.9324L9.77122 7.7524C9.49788 7.5724 9.13122 7.6124 8.91122 7.8524L7.65788 9.20573C7.15122 8.90573 6.30455 8.36573 5.63788 7.69906C4.97122 7.0324 4.43122 6.18573 4.13122 5.68573L5.48455 4.4324C5.72455 4.2124 5.77122 3.84573 5.58455 3.5724L3.40455 0.299064C3.30455 0.152398 3.15122 0.0457311 2.97788 0.0123977C2.79788 -0.0209356 2.61788 0.0123978 2.47122 0.119064L0.291217 1.62573C0.117884 1.74573 0.0112172 1.93906 0.00455057 2.14573C-0.0154494 2.61906 -0.102116 6.83906 3.19788 10.1324C6.17122 13.1057 9.89122 13.3324 10.9446 13.3324V13.3391Z" fill="black"/>
</svg>
