<svg width="80" height="9" viewBox="0 0 80 9" fill="none" xmlns="http://www.w3.org/2000/svg">
<path opacity="0.9" d="M6.05583e-05 8.64014V0.240136H2.71206C3.36806 0.240136 3.90406 0.348136 4.32006 0.564136C4.73606 0.780136 5.04406 1.07614 5.24406 1.45214C5.44406 1.82814 5.54406 2.24414 5.54406 2.70014C5.54406 3.22814 5.40006 3.70414 5.11206 4.12814C4.83206 4.55214 4.39206 4.85214 3.79206 5.02814L5.62806 8.64014H4.44006L2.73606 5.17214H2.66406H1.00806V8.64014H6.05583e-05ZM1.00806 4.38014H2.64006C3.28806 4.38014 3.76006 4.22414 4.05606 3.91214C4.35206 3.60014 4.50006 3.20014 4.50006 2.71214C4.50006 2.21614 4.35206 1.82414 4.05606 1.53614C3.76806 1.24014 3.29206 1.09214 2.62806 1.09214H1.00806V4.38014ZM9.36606 8.78414C8.79806 8.78414 8.29406 8.65614 7.85406 8.40014C7.41406 8.13614 7.06606 7.77214 6.81006 7.30814C6.56206 6.84414 6.43806 6.29614 6.43806 5.66414C6.43806 5.04014 6.56206 4.49614 6.81006 4.03214C7.05806 3.56014 7.40206 3.19614 7.84206 2.94014C8.29006 2.67614 8.80606 2.54414 9.39006 2.54414C9.96606 2.54414 10.4621 2.67614 10.8781 2.94014C11.3021 3.19614 11.6261 3.53614 11.8501 3.96014C12.0741 4.38414 12.1861 4.84014 12.1861 5.32814C12.1861 5.41614 12.1821 5.50414 12.1741 5.59214C12.1741 5.68014 12.1741 5.78014 12.1741 5.89214H7.43406C7.45806 6.34814 7.56206 6.72814 7.74606 7.03214C7.93806 7.32814 8.17406 7.55214 8.45406 7.70414C8.74206 7.85614 9.04606 7.93214 9.36606 7.93214C9.78206 7.93214 10.1301 7.83614 10.4101 7.64414C10.6901 7.45214 10.8941 7.19214 11.0221 6.86414H12.0181C11.8581 7.41614 11.5501 7.87614 11.0941 8.24414C10.6461 8.60414 10.0701 8.78414 9.36606 8.78414ZM9.36606 3.39614C8.88606 3.39614 8.45806 3.54414 8.08206 3.84014C7.71406 4.12814 7.50206 4.55214 7.44606 5.11214H11.1901C11.1661 4.57614 10.9821 4.15614 10.6381 3.85214C10.2941 3.54814 9.87006 3.39614 9.36606 3.39614ZM13.5221 8.64014V2.68814H14.4341L14.5061 3.55214C14.6981 3.23214 14.9541 2.98414 15.2741 2.80814C15.5941 2.63214 15.9541 2.54414 16.3541 2.54414C16.8261 2.54414 17.2301 2.64014 17.5661 2.83214C17.9101 3.02414 18.1741 3.31614 18.3581 3.70814C18.5661 3.34814 18.8501 3.06414 19.2101 2.85614C19.5781 2.64814 19.9741 2.54414 20.3981 2.54414C21.1101 2.54414 21.6781 2.76014 22.1021 3.19214C22.5261 3.61614 22.7381 4.27214 22.7381 5.16014V8.64014H21.7421V5.26814C21.7421 4.65214 21.6181 4.18814 21.3701 3.87614C21.1221 3.56414 20.7661 3.40814 20.3021 3.40814C19.8221 3.40814 19.4221 3.59614 19.1021 3.97214C18.7901 4.34014 18.6341 4.86814 18.6341 5.55614V8.64014H17.6261V5.26814C17.6261 4.65214 17.5021 4.18814 17.2541 3.87614C17.0061 3.56414 16.6501 3.40814 16.1861 3.40814C15.7141 3.40814 15.3181 3.59614 14.9981 3.97214C14.6861 4.34014 14.5301 4.86814 14.5301 5.55614V8.64014H13.5221ZM26.9325 8.78414C26.3645 8.78414 25.8605 8.65614 25.4205 8.40014C24.9805 8.13614 24.6325 7.77214 24.3765 7.30814C24.1285 6.84414 24.0045 6.29614 24.0045 5.66414C24.0045 5.04014 24.1285 4.49614 24.3765 4.03214C24.6245 3.56014 24.9685 3.19614 25.4085 2.94014C25.8565 2.67614 26.3725 2.54414 26.9565 2.54414C27.5325 2.54414 28.0285 2.67614 28.4445 2.94014C28.8685 3.19614 29.1925 3.53614 29.4165 3.96014C29.6405 4.38414 29.7525 4.84014 29.7525 5.32814C29.7525 5.41614 29.7485 5.50414 29.7405 5.59214C29.7405 5.68014 29.7405 5.78014 29.7405 5.89214H25.0005C25.0245 6.34814 25.1285 6.72814 25.3125 7.03214C25.5045 7.32814 25.7405 7.55214 26.0205 7.70414C26.3085 7.85614 26.6125 7.93214 26.9325 7.93214C27.3485 7.93214 27.6965 7.83614 27.9765 7.64414C28.2565 7.45214 28.4605 7.19214 28.5885 6.86414H29.5845C29.4245 7.41614 29.1165 7.87614 28.6605 8.24414C28.2125 8.60414 27.6365 8.78414 26.9325 8.78414ZM26.9325 3.39614C26.4525 3.39614 26.0245 3.54414 25.6485 3.84014C25.2805 4.12814 25.0685 4.55214 25.0125 5.11214H28.7565C28.7325 4.57614 28.5485 4.15614 28.2045 3.85214C27.8605 3.54814 27.4365 3.39614 26.9325 3.39614ZM31.0885 8.64014V2.68814H32.0005L32.0725 3.55214C32.2645 3.23214 32.5205 2.98414 32.8405 2.80814C33.1605 2.63214 33.5205 2.54414 33.9205 2.54414C34.3925 2.54414 34.7965 2.64014 35.1325 2.83214C35.4765 3.02414 35.7405 3.31614 35.9245 3.70814C36.1325 3.34814 36.4165 3.06414 36.7765 2.85614C37.1445 2.64814 37.5405 2.54414 37.9645 2.54414C38.6765 2.54414 39.2445 2.76014 39.6685 3.19214C40.0925 3.61614 40.3045 4.27214 40.3045 5.16014V8.64014H39.3085V5.26814C39.3085 4.65214 39.1845 4.18814 38.9365 3.87614C38.6885 3.56414 38.3325 3.40814 37.8685 3.40814C37.3885 3.40814 36.9885 3.59614 36.6685 3.97214C36.3565 4.34014 36.2005 4.86814 36.2005 5.55614V8.64014H35.1925V5.26814C35.1925 4.65214 35.0685 4.18814 34.8205 3.87614C34.5725 3.56414 34.2165 3.40814 33.7525 3.40814C33.2805 3.40814 32.8845 3.59614 32.5645 3.97214C32.2525 4.34014 32.0965 4.86814 32.0965 5.55614V8.64014H31.0885ZM45.0029 8.78414C44.5149 8.78414 44.0789 8.68414 43.6949 8.48414C43.3189 8.28414 43.0309 8.00414 42.8309 7.64414L42.7349 8.64014H41.8229V0.000136375H42.8309V3.67214C43.0229 3.38414 43.2949 3.12414 43.6469 2.89214C44.0069 2.66014 44.4629 2.54414 45.0149 2.54414C45.6069 2.54414 46.1229 2.68014 46.5629 2.95214C47.0029 3.22414 47.3429 3.59614 47.5829 4.06814C47.8309 4.54014 47.9549 5.07614 47.9549 5.67614C47.9549 6.27614 47.8309 6.81214 47.5829 7.28414C47.3429 7.74814 46.9989 8.11614 46.5509 8.38814C46.1109 8.65214 45.5949 8.78414 45.0029 8.78414ZM44.8949 7.90814C45.2949 7.90814 45.6469 7.81614 45.9509 7.63214C46.2549 7.44014 46.4949 7.17614 46.6709 6.84014C46.8469 6.50414 46.9349 6.11214 46.9349 5.66414C46.9349 5.21614 46.8469 4.82414 46.6709 4.48814C46.4949 4.15214 46.2549 3.89214 45.9509 3.70814C45.6469 3.51614 45.2949 3.42014 44.8949 3.42014C44.4949 3.42014 44.1429 3.51614 43.8389 3.70814C43.5349 3.89214 43.2949 4.15214 43.1189 4.48814C42.9429 4.82414 42.8549 5.21614 42.8549 5.66414C42.8549 6.11214 42.9429 6.50414 43.1189 6.84014C43.2949 7.17614 43.5349 7.44014 43.8389 7.63214C44.1429 7.81614 44.4949 7.90814 44.8949 7.90814ZM52.034 8.78414C51.466 8.78414 50.962 8.65614 50.522 8.40014C50.082 8.13614 49.734 7.77214 49.478 7.30814C49.23 6.84414 49.106 6.29614 49.106 5.66414C49.106 5.04014 49.23 4.49614 49.478 4.03214C49.726 3.56014 50.07 3.19614 50.51 2.94014C50.958 2.67614 51.474 2.54414 52.058 2.54414C52.634 2.54414 53.13 2.67614 53.546 2.94014C53.97 3.19614 54.294 3.53614 54.518 3.96014C54.742 4.38414 54.854 4.84014 54.854 5.32814C54.854 5.41614 54.85 5.50414 54.842 5.59214C54.842 5.68014 54.842 5.78014 54.842 5.89214H50.102C50.126 6.34814 50.23 6.72814 50.414 7.03214C50.606 7.32814 50.842 7.55214 51.122 7.70414C51.41 7.85614 51.714 7.93214 52.034 7.93214C52.45 7.93214 52.798 7.83614 53.078 7.64414C53.358 7.45214 53.562 7.19214 53.69 6.86414H54.686C54.526 7.41614 54.218 7.87614 53.762 8.24414C53.314 8.60414 52.738 8.78414 52.034 8.78414ZM52.034 3.39614C51.554 3.39614 51.126 3.54414 50.75 3.84014C50.382 4.12814 50.17 4.55214 50.114 5.11214H53.858C53.834 4.57614 53.65 4.15614 53.306 3.85214C52.962 3.54814 52.538 3.39614 52.034 3.39614ZM56.1901 8.64014V2.68814H57.1021L57.1861 3.82814C57.3701 3.43614 57.6501 3.12414 58.0261 2.89214C58.4021 2.66014 58.8661 2.54414 59.4181 2.54414V3.60014H59.1421C58.7901 3.60014 58.4661 3.66414 58.1701 3.79214C57.8741 3.91214 57.6381 4.12014 57.4621 4.41614C57.2861 4.71214 57.1981 5.12014 57.1981 5.64014V8.64014H56.1901ZM63.7252 8.64014V2.68814H64.6372L64.7092 3.55214C64.9012 3.23214 65.1572 2.98414 65.4772 2.80814C65.7972 2.63214 66.1572 2.54414 66.5572 2.54414C67.0292 2.54414 67.4332 2.64014 67.7692 2.83214C68.1132 3.02414 68.3772 3.31614 68.5612 3.70814C68.7692 3.34814 69.0532 3.06414 69.4132 2.85614C69.7812 2.64814 70.1772 2.54414 70.6012 2.54414C71.3132 2.54414 71.8812 2.76014 72.3052 3.19214C72.7292 3.61614 72.9412 4.27214 72.9412 5.16014V8.64014H71.9452V5.26814C71.9452 4.65214 71.8212 4.18814 71.5732 3.87614C71.3252 3.56414 70.9692 3.40814 70.5052 3.40814C70.0252 3.40814 69.6252 3.59614 69.3052 3.97214C68.9932 4.34014 68.8372 4.86814 68.8372 5.55614V8.64014H67.8292V5.26814C67.8292 4.65214 67.7052 4.18814 67.4572 3.87614C67.2092 3.56414 66.8532 3.40814 66.3892 3.40814C65.9172 3.40814 65.5212 3.59614 65.2012 3.97214C64.8892 4.34014 64.7332 4.86814 64.7332 5.55614V8.64014H63.7252ZM77.1356 8.78414C76.5676 8.78414 76.0636 8.65614 75.6236 8.40014C75.1836 8.13614 74.8356 7.77214 74.5796 7.30814C74.3316 6.84414 74.2076 6.29614 74.2076 5.66414C74.2076 5.04014 74.3316 4.49614 74.5796 4.03214C74.8276 3.56014 75.1716 3.19614 75.6116 2.94014C76.0596 2.67614 76.5756 2.54414 77.1596 2.54414C77.7356 2.54414 78.2316 2.67614 78.6476 2.94014C79.0716 3.19614 79.3956 3.53614 79.6196 3.96014C79.8436 4.38414 79.9556 4.84014 79.9556 5.32814C79.9556 5.41614 79.9516 5.50414 79.9436 5.59214C79.9436 5.68014 79.9436 5.78014 79.9436 5.89214H75.2036C75.2276 6.34814 75.3316 6.72814 75.5156 7.03214C75.7076 7.32814 75.9436 7.55214 76.2236 7.70414C76.5116 7.85614 76.8156 7.93214 77.1356 7.93214C77.5516 7.93214 77.8996 7.83614 78.1796 7.64414C78.4596 7.45214 78.6636 7.19214 78.7916 6.86414H79.7876C79.6276 7.41614 79.3196 7.87614 78.8636 8.24414C78.4156 8.60414 77.8396 8.78414 77.1356 8.78414ZM77.1356 3.39614C76.6556 3.39614 76.2276 3.54414 75.8516 3.84014C75.4836 4.12814 75.2716 4.55214 75.2156 5.11214H78.9596C78.9356 4.57614 78.7516 4.15614 78.4076 3.85214C78.0636 3.54814 77.6396 3.39614 77.1356 3.39614Z" fill="#1A1A1A"/>
</svg>
