<svg width="149" height="159" viewBox="0 0 149 159" fill="none" xmlns="http://www.w3.org/2000/svg">
<g clip-path="url(#clip0_406_5156)">
<rect width="149" height="159" rx="7.94667" fill="#444444" fill-opacity="0.6"/>
<rect x="0.109267" y="0.109267" width="148.781" height="52.7592" stroke="#545458" stroke-opacity="0.65" stroke-width="0.218533"/>
<path d="M23.9293 21.8223H22.2027L20.396 20.0156C20.3337 19.9538 20.2598 19.9049 20.1786 19.8718C20.0974 19.8386 20.0104 19.8218 19.9227 19.8223H17.256C17.076 19.8223 16.9093 19.8956 16.7827 20.0156L14.976 21.8223H13.2493C12.516 21.8223 11.916 22.4223 11.916 23.1556V30.4889C11.916 31.2223 12.516 31.8223 13.2493 31.8223H23.916C24.6493 31.8223 25.2493 31.2223 25.2493 30.4889V23.1556C25.2493 22.4223 24.6493 21.8223 23.916 21.8223H23.9293ZM23.9293 30.4889H13.2627V23.1556H15.2627C15.4427 23.1556 15.6093 23.0823 15.736 22.9623L17.5427 21.1556H19.656L21.4627 22.9623C21.5893 23.0889 21.756 23.1556 21.936 23.1556H23.936V30.4889H23.9293Z" fill="white"/>
<path d="M18.5954 23.1555C18.2418 23.1555 17.9026 23.296 17.6526 23.546C17.4025 23.7961 17.262 24.1352 17.262 24.4889C17.262 24.8425 17.4025 25.1816 17.6526 25.4317C17.9026 25.6817 18.2418 25.8222 18.5954 25.8222C18.949 25.8222 19.2881 25.6817 19.5382 25.4317C19.7882 25.1816 19.9287 24.8425 19.9287 24.4889C19.9287 24.1352 19.7882 23.7961 19.5382 23.546C19.2881 23.296 18.949 23.1555 18.5954 23.1555ZM19.262 26.4889H17.9287C16.822 26.4889 15.9287 27.3822 15.9287 28.4889V29.1555H21.262V28.4889C21.262 27.3822 20.3687 26.4889 19.262 26.4889Z" fill="white"/>
<path d="M40.8758 31.4889V21.6889H44.0398C44.8052 21.6889 45.4305 21.8149 45.9158 22.0669C46.4012 22.3189 46.7605 22.6642 46.9938 23.1029C47.2272 23.5416 47.3438 24.0269 47.3438 24.5589C47.3438 25.1749 47.1758 25.7302 46.8398 26.2249C46.5132 26.7196 45.9998 27.0696 45.2998 27.2749L47.4418 31.4889H46.0558L44.0678 27.4429H43.9838H42.0518V31.4889H40.8758ZM42.0518 26.5189H43.9558C44.7118 26.5189 45.2625 26.3369 45.6078 25.9729C45.9532 25.6089 46.1258 25.1422 46.1258 24.5729C46.1258 23.9942 45.9532 23.5369 45.6078 23.2009C45.2718 22.8556 44.7165 22.6829 43.9418 22.6829H42.0518V26.5189ZM51.8028 31.6569C51.1402 31.6569 50.5522 31.5076 50.0388 31.2089C49.5255 30.9009 49.1195 30.4762 48.8208 29.9349C48.5315 29.3936 48.3868 28.7542 48.3868 28.0169C48.3868 27.2889 48.5315 26.6542 48.8208 26.1129C49.1102 25.5622 49.5115 25.1376 50.0248 24.8389C50.5475 24.5309 51.1495 24.3769 51.8308 24.3769C52.5028 24.3769 53.0815 24.5309 53.5668 24.8389C54.0615 25.1376 54.4395 25.5342 54.7008 26.0289C54.9622 26.5236 55.0928 27.0556 55.0928 27.6249C55.0928 27.7276 55.0882 27.8302 55.0788 27.9329C55.0788 28.0356 55.0788 28.1522 55.0788 28.2829H49.5488C49.5768 28.8149 49.6982 29.2582 49.9128 29.6129C50.1368 29.9582 50.4122 30.2196 50.7388 30.3969C51.0748 30.5742 51.4295 30.6629 51.8028 30.6629C52.2882 30.6629 52.6942 30.5509 53.0208 30.3269C53.3475 30.1029 53.5855 29.7996 53.7348 29.4169H54.8968C54.7102 30.0609 54.3508 30.5976 53.8188 31.0269C53.2962 31.4469 52.6242 31.6569 51.8028 31.6569ZM51.8028 25.3709C51.2428 25.3709 50.7435 25.5436 50.3048 25.8889C49.8755 26.2249 49.6282 26.7196 49.5628 27.3729H53.9308C53.9028 26.7476 53.6882 26.2576 53.2868 25.9029C52.8855 25.5482 52.3908 25.3709 51.8028 25.3709ZM59.8435 31.6569C59.1809 31.6569 58.5835 31.5076 58.0515 31.2089C57.5289 30.9009 57.1135 30.4762 56.8055 29.9349C56.5069 29.3842 56.3575 28.7449 56.3575 28.0169C56.3575 27.2889 56.5069 26.6542 56.8055 26.1129C57.1135 25.5622 57.5289 25.1376 58.0515 24.8389C58.5835 24.5309 59.1809 24.3769 59.8435 24.3769C60.6649 24.3769 61.3555 24.5916 61.9155 25.0209C62.4849 25.4502 62.8442 26.0242 62.9935 26.7429H61.7895C61.6962 26.3136 61.4675 25.9822 61.1035 25.7489C60.7395 25.5062 60.3149 25.3849 59.8295 25.3849C59.4375 25.3849 59.0689 25.4829 58.7235 25.6789C58.3782 25.8749 58.0982 26.1689 57.8835 26.5609C57.6689 26.9529 57.5615 27.4382 57.5615 28.0169C57.5615 28.5956 57.6689 29.0809 57.8835 29.4729C58.0982 29.8649 58.3782 30.1636 58.7235 30.3689C59.0689 30.5649 59.4375 30.6629 59.8295 30.6629C60.3149 30.6629 60.7395 30.5462 61.1035 30.3129C61.4675 30.0702 61.6962 29.7296 61.7895 29.2909H62.9935C62.8535 29.9909 62.4989 30.5602 61.9295 30.9989C61.3602 31.4376 60.6649 31.6569 59.8435 31.6569ZM67.7579 31.6569C67.0953 31.6569 66.5073 31.5076 65.9939 31.2089C65.4806 30.9009 65.0746 30.4762 64.7759 29.9349C64.4866 29.3936 64.3419 28.7542 64.3419 28.0169C64.3419 27.2889 64.4866 26.6542 64.7759 26.1129C65.0653 25.5622 65.4666 25.1376 65.9799 24.8389C66.5026 24.5309 67.1046 24.3769 67.7859 24.3769C68.4579 24.3769 69.0366 24.5309 69.5219 24.8389C70.0166 25.1376 70.3946 25.5342 70.6559 26.0289C70.9173 26.5236 71.0479 27.0556 71.0479 27.6249C71.0479 27.7276 71.0433 27.8302 71.0339 27.9329C71.0339 28.0356 71.0339 28.1522 71.0339 28.2829H65.5039C65.5319 28.8149 65.6533 29.2582 65.8679 29.6129C66.0919 29.9582 66.3673 30.2196 66.6939 30.3969C67.0299 30.5742 67.3846 30.6629 67.7579 30.6629C68.2433 30.6629 68.6493 30.5509 68.9759 30.3269C69.3026 30.1029 69.5406 29.7996 69.6899 29.4169H70.8519C70.6653 30.0609 70.3059 30.5976 69.7739 31.0269C69.2513 31.4469 68.5793 31.6569 67.7579 31.6569ZM67.7579 25.3709C67.1979 25.3709 66.6986 25.5436 66.2599 25.8889C65.8306 26.2249 65.5833 26.7196 65.5179 27.3729H69.8859C69.8579 26.7476 69.6433 26.2576 69.2419 25.9029C68.8406 25.5482 68.3459 25.3709 67.7579 25.3709ZM72.6066 31.4889V24.5449H73.6706L73.7406 25.7909C73.9646 25.3522 74.2866 25.0069 74.7066 24.7549C75.1266 24.5029 75.6026 24.3769 76.1346 24.3769C76.956 24.3769 77.6093 24.6289 78.0946 25.1329C78.5893 25.6276 78.8366 26.3929 78.8366 27.4289V31.4889H77.6606V27.5549C77.6606 26.1082 77.0633 25.3849 75.8686 25.3849C75.2713 25.3849 74.772 25.6042 74.3706 26.0429C73.9786 26.4722 73.7826 27.0882 73.7826 27.8909V31.4889H72.6066ZM83.3623 31.4889C82.7277 31.4889 82.2283 31.3349 81.8643 31.0269C81.5003 30.7189 81.3183 30.1636 81.3183 29.3609V25.5389H80.1143V24.5449H81.3183L81.4723 22.8789H82.4943V24.5449H84.5383V25.5389H82.4943V29.3609C82.4943 29.7996 82.583 30.0982 82.7603 30.2569C82.9377 30.4062 83.2503 30.4809 83.6983 30.4809H84.4263V31.4889H83.3623ZM88.6924 31.6569C87.8617 31.6569 87.1711 31.4469 86.6204 31.0269C86.0697 30.6069 85.7477 30.0376 85.6544 29.3189H86.8584C86.9331 29.6829 87.1244 30.0002 87.4324 30.2709C87.7497 30.5322 88.1744 30.6629 88.7064 30.6629C89.2011 30.6629 89.5651 30.5602 89.7984 30.3549C90.0317 30.1402 90.1484 29.8882 90.1484 29.5989C90.1484 29.1789 89.9944 28.8989 89.6864 28.7589C89.3877 28.6189 88.9631 28.4929 88.4124 28.3809C88.0391 28.3062 87.6657 28.1989 87.2924 28.0589C86.9191 27.9189 86.6064 27.7229 86.3544 27.4709C86.1024 27.2096 85.9764 26.8689 85.9764 26.4489C85.9764 25.8422 86.2004 25.3476 86.6484 24.9649C87.1057 24.5729 87.7217 24.3769 88.4964 24.3769C89.2337 24.3769 89.8357 24.5636 90.3024 24.9369C90.7784 25.3009 91.0537 25.8236 91.1284 26.5049H89.9664C89.9197 26.1502 89.7657 25.8749 89.5044 25.6789C89.2524 25.4736 88.9117 25.3709 88.4824 25.3709C88.0624 25.3709 87.7357 25.4596 87.5024 25.6369C87.2784 25.8142 87.1664 26.0476 87.1664 26.3369C87.1664 26.6169 87.3111 26.8362 87.6004 26.9949C87.8991 27.1536 88.3004 27.2889 88.8044 27.4009C89.2337 27.4942 89.6397 27.6109 90.0224 27.7509C90.4144 27.8816 90.7317 28.0822 90.9744 28.3529C91.2264 28.6142 91.3524 28.9969 91.3524 29.5009C91.3617 30.1262 91.1237 30.6442 90.6384 31.0549C90.1624 31.4562 89.5137 31.6569 88.6924 31.6569Z" fill="white"/>
<rect x="0.109267" y="53.087" width="148.781" height="52.7592" stroke="#545458" stroke-opacity="0.65" stroke-width="0.218533"/>
<path d="M18.1223 85.24C18.2556 85.3733 18.4223 85.4333 18.5956 85.4333C18.7689 85.4333 18.9356 85.3666 19.0689 85.24L24.0689 80.24C25.6356 78.6733 25.6356 76.2066 24.0689 74.6333C22.5356 73.1133 20.1689 73.0666 18.5956 74.5C17.0223 73.0666 14.6556 73.1066 13.1223 74.6333C11.5556 76.2066 11.5556 78.6733 13.1223 80.24L18.1223 85.24ZM14.0689 75.5733C14.5956 75.0533 15.2623 74.7933 15.9356 74.7933C16.6089 74.7933 17.2756 75.0533 17.7956 75.5733L18.1289 75.9066C18.3889 76.1666 18.8089 76.1666 19.0689 75.9066L19.4023 75.5733C20.4423 74.5333 22.0823 74.5333 23.1289 75.5733C24.1689 76.62 24.1689 78.2533 23.1289 79.2933L18.6023 83.82L14.0756 79.2933C13.8285 79.0507 13.6322 78.7612 13.4982 78.4419C13.3642 78.1225 13.2952 77.7796 13.2952 77.4333C13.2952 77.087 13.3642 76.7441 13.4982 76.4248C13.6322 76.1054 13.8285 75.8159 14.0756 75.5733H14.0689Z" fill="white"/>
<path d="M40.8758 84.4667V74.6667H46.8398V75.6327H42.0518V79.0767H46.1258V80.0287H42.0518V84.4667H40.8758ZM50.1158 84.6347C49.5372 84.6347 49.0565 84.5367 48.6738 84.3407C48.2912 84.1447 48.0065 83.8833 47.8198 83.5567C47.6332 83.23 47.5398 82.8753 47.5398 82.4927C47.5398 81.7833 47.8105 81.2373 48.3518 80.8547C48.8932 80.472 49.6305 80.2807 50.5638 80.2807H52.4398V80.1967C52.4398 79.59 52.2812 79.1327 51.9638 78.8247C51.6465 78.5073 51.2218 78.3487 50.6898 78.3487C50.2325 78.3487 49.8358 78.4653 49.4998 78.6987C49.1732 78.9227 48.9678 79.254 48.8838 79.6927H47.6798C47.7265 79.1887 47.8945 78.764 48.1838 78.4187C48.4825 78.0733 48.8512 77.812 49.2898 77.6347C49.7285 77.448 50.1952 77.3547 50.6898 77.3547C51.6605 77.3547 52.3885 77.616 52.8738 78.1387C53.3685 78.652 53.6158 79.338 53.6158 80.1967V84.4667H52.5658L52.4958 83.2207C52.2998 83.6127 52.0105 83.9487 51.6278 84.2287C51.2545 84.4993 50.7505 84.6347 50.1158 84.6347ZM50.2978 83.6407C50.7458 83.6407 51.1285 83.524 51.4458 83.2907C51.7725 83.0573 52.0198 82.754 52.1878 82.3807C52.3558 82.0073 52.4398 81.6153 52.4398 81.2047V81.1907H50.6618C49.9712 81.1907 49.4812 81.312 49.1918 81.5547C48.9118 81.788 48.7718 82.082 48.7718 82.4367C48.7718 82.8007 48.9025 83.0947 49.1638 83.3187C49.4345 83.5333 49.8125 83.6407 50.2978 83.6407ZM57.1223 84.4667L54.4903 77.5227H55.7223L57.8083 83.3327L59.9083 77.5227H61.1123L58.4803 84.4667H57.1223ZM65.2296 84.6347C64.5763 84.6347 63.9883 84.4853 63.4656 84.1867C62.9429 83.888 62.5276 83.468 62.2196 82.9267C61.9209 82.376 61.7716 81.732 61.7716 80.9947C61.7716 80.2573 61.9256 79.618 62.2336 79.0767C62.5416 78.526 62.9569 78.1013 63.4796 77.8027C64.0116 77.504 64.6043 77.3547 65.2576 77.3547C65.9109 77.3547 66.4989 77.504 67.0216 77.8027C67.5443 78.1013 67.9549 78.526 68.2536 79.0767C68.5616 79.618 68.7156 80.2573 68.7156 80.9947C68.7156 81.732 68.5616 82.376 68.2536 82.9267C67.9456 83.468 67.5256 83.888 66.9936 84.1867C66.4709 84.4853 65.8829 84.6347 65.2296 84.6347ZM65.2296 83.6267C65.6309 83.6267 66.0043 83.5287 66.3496 83.3327C66.6949 83.1367 66.9749 82.8427 67.1896 82.4507C67.4043 82.0587 67.5116 81.5733 67.5116 80.9947C67.5116 80.416 67.4043 79.9307 67.1896 79.5387C66.9843 79.1467 66.7089 78.8527 66.3636 78.6567C66.0183 78.4607 65.6496 78.3627 65.2576 78.3627C64.8563 78.3627 64.4829 78.4607 64.1376 78.6567C63.7923 78.8527 63.5123 79.1467 63.2976 79.5387C63.0829 79.9307 62.9756 80.416 62.9756 80.9947C62.9756 81.5733 63.0829 82.0587 63.2976 82.4507C63.5123 82.8427 63.7876 83.1367 64.1236 83.3327C64.4689 83.5287 64.8376 83.6267 65.2296 83.6267ZM72.8848 84.6347C72.0634 84.6347 71.4101 84.3873 70.9248 83.8927C70.4394 83.3887 70.1968 82.6187 70.1968 81.5827V77.5227H71.3728V81.4567C71.3728 82.9033 71.9654 83.6267 73.1508 83.6267C73.7574 83.6267 74.2568 83.412 74.6488 82.9827C75.0501 82.544 75.2508 81.9233 75.2508 81.1207V77.5227H76.4268V84.4667H75.3628L75.2788 83.2207C75.0641 83.6593 74.7421 84.0047 74.3128 84.2567C73.8928 84.5087 73.4168 84.6347 72.8848 84.6347ZM78.3625 84.4667V77.5227H79.4265L79.5245 78.8527C79.7392 78.3953 80.0658 78.0313 80.5045 77.7607C80.9432 77.49 81.4845 77.3547 82.1285 77.3547V78.5867H81.8065C81.3958 78.5867 81.0178 78.6613 80.6725 78.8107C80.3272 78.9507 80.0518 79.1933 79.8465 79.5387C79.6412 79.884 79.5385 80.36 79.5385 80.9667V84.4667H78.3625ZM84.1624 75.9827C83.9291 75.9827 83.7331 75.908 83.5744 75.7587C83.4251 75.6 83.3504 75.404 83.3504 75.1707C83.3504 74.9467 83.4251 74.76 83.5744 74.6107C83.7331 74.4613 83.9291 74.3867 84.1624 74.3867C84.3864 74.3867 84.5778 74.4613 84.7364 74.6107C84.8951 74.76 84.9744 74.9467 84.9744 75.1707C84.9744 75.404 84.8951 75.6 84.7364 75.7587C84.5778 75.908 84.3864 75.9827 84.1624 75.9827ZM83.5744 84.4667V77.5227H84.7504V84.4667H83.5744ZM89.542 84.4667C88.9074 84.4667 88.408 84.3127 88.044 84.0047C87.68 83.6967 87.498 83.1413 87.498 82.3387V78.5167H86.294V77.5227H87.498L87.652 75.8567H88.674V77.5227H90.718V78.5167H88.674V82.3387C88.674 82.7773 88.7627 83.076 88.94 83.2347C89.1174 83.384 89.43 83.4587 89.878 83.4587H90.606V84.4667H89.542ZM95.1427 84.6347C94.48 84.6347 93.892 84.4853 93.3787 84.1867C92.8654 83.8787 92.4594 83.454 92.1607 82.9127C91.8714 82.3713 91.7267 81.732 91.7267 80.9947C91.7267 80.2667 91.8714 79.632 92.1607 79.0907C92.45 78.54 92.8514 78.1153 93.3647 77.8167C93.8874 77.5087 94.4894 77.3547 95.1707 77.3547C95.8427 77.3547 96.4214 77.5087 96.9067 77.8167C97.4014 78.1153 97.7794 78.512 98.0407 79.0067C98.302 79.5013 98.4327 80.0333 98.4327 80.6027C98.4327 80.7053 98.428 80.808 98.4187 80.9107C98.4187 81.0133 98.4187 81.13 98.4187 81.2607H92.8887C92.9167 81.7927 93.038 82.236 93.2527 82.5907C93.4767 82.936 93.752 83.1973 94.0787 83.3747C94.4147 83.552 94.7694 83.6407 95.1427 83.6407C95.628 83.6407 96.034 83.5287 96.3607 83.3047C96.6874 83.0807 96.9254 82.7773 97.0747 82.3947H98.2367C98.05 83.0387 97.6907 83.5753 97.1587 84.0047C96.636 84.4247 95.964 84.6347 95.1427 84.6347ZM95.1427 78.3487C94.5827 78.3487 94.0834 78.5213 93.6447 78.8667C93.2154 79.2027 92.968 79.6973 92.9027 80.3507H97.2707C97.2427 79.7253 97.028 79.2353 96.6267 78.8807C96.2254 78.526 95.7307 78.3487 95.1427 78.3487ZM102.651 84.6347C101.821 84.6347 101.13 84.4247 100.579 84.0047C100.029 83.5847 99.7067 83.0153 99.6134 82.2967H100.817C100.892 82.6607 101.083 82.978 101.391 83.2487C101.709 83.51 102.133 83.6407 102.665 83.6407C103.16 83.6407 103.524 83.538 103.757 83.3327C103.991 83.118 104.107 82.866 104.107 82.5767C104.107 82.1567 103.953 81.8767 103.645 81.7367C103.347 81.5967 102.922 81.4707 102.371 81.3587C101.998 81.284 101.625 81.1767 101.251 81.0367C100.878 80.8967 100.565 80.7007 100.313 80.4487C100.061 80.1873 99.9354 79.8467 99.9354 79.4267C99.9354 78.82 100.159 78.3253 100.607 77.9427C101.065 77.5507 101.681 77.3547 102.455 77.3547C103.193 77.3547 103.795 77.5413 104.261 77.9147C104.737 78.2787 105.013 78.8013 105.087 79.4827H103.925C103.879 79.128 103.725 78.8527 103.463 78.6567C103.211 78.4513 102.871 78.3487 102.441 78.3487C102.021 78.3487 101.695 78.4373 101.461 78.6147C101.237 78.792 101.125 79.0253 101.125 79.3147C101.125 79.5947 101.27 79.814 101.559 79.9727C101.858 80.1313 102.259 80.2667 102.763 80.3787C103.193 80.472 103.599 80.5887 103.981 80.7287C104.373 80.8593 104.691 81.06 104.933 81.3307C105.185 81.592 105.311 81.9747 105.311 82.4787C105.321 83.104 105.083 83.622 104.597 84.0327C104.121 84.434 103.473 84.6347 102.651 84.6347Z" fill="white"/>
<rect x="0.109267" y="106.065" width="148.781" height="52.7592" stroke="#545458" stroke-opacity="0.65" stroke-width="0.218533"/>
<path d="M13.5957 131.778H16.929C17.4824 131.778 17.929 131.331 17.929 130.778V127.444C17.929 126.891 17.4824 126.444 16.929 126.444H13.5957C13.0424 126.444 12.5957 126.891 12.5957 127.444V130.778C12.5957 131.331 13.0424 131.778 13.5957 131.778ZM13.929 127.778H16.5957V130.444H13.929V127.778ZM23.5957 126.444H20.2624C19.709 126.444 19.2624 126.891 19.2624 127.444V130.778C19.2624 131.331 19.709 131.778 20.2624 131.778H23.5957C24.149 131.778 24.5957 131.331 24.5957 130.778V127.444C24.5957 126.891 24.149 126.444 23.5957 126.444ZM23.2624 130.444H20.5957V127.778H23.2624V130.444ZM13.5957 138.444H16.929C17.4824 138.444 17.929 137.998 17.929 137.444V134.111C17.929 133.558 17.4824 133.111 16.929 133.111H13.5957C13.0424 133.111 12.5957 133.558 12.5957 134.111V137.444C12.5957 137.998 13.0424 138.444 13.5957 138.444ZM13.929 134.444H16.5957V137.111H13.929V134.444ZM23.5957 133.111H20.2624C19.709 133.111 19.2624 133.558 19.2624 134.111V137.444C19.2624 137.998 19.709 138.444 20.2624 138.444H23.5957C24.149 138.444 24.5957 137.998 24.5957 137.444V134.111C24.5957 133.558 24.149 133.111 23.5957 133.111ZM23.2624 137.111H20.5957V134.444H23.2624V137.111Z" fill="white"/>
<path d="M40.2598 137.444L43.8718 127.644H45.1178L48.7158 137.444H47.4698L46.5738 134.924H42.4018L41.4918 137.444H40.2598ZM42.7518 133.972H46.2238L44.4878 129.128L42.7518 133.972ZM50.1027 137.444V127.364H51.2787V137.444H50.1027ZM53.2062 137.444V127.364H54.3822V137.444H53.2062ZM59.4688 137.444L63.0808 127.644H64.3268L67.9248 137.444H66.6788L65.7828 134.924H61.6108L60.7008 137.444H59.4688ZM61.9608 133.972H65.4328L63.6968 129.128L61.9608 133.972ZM69.3117 137.444V127.364H70.4877V137.444H69.3117ZM76.1252 137.612C75.5559 137.612 75.0472 137.496 74.5992 137.262C74.1606 137.029 73.8246 136.702 73.5912 136.282L73.4792 137.444H72.4152V127.364H73.5912V131.648C73.8152 131.312 74.1326 131.009 74.5432 130.738C74.9632 130.468 75.4952 130.332 76.1392 130.332C76.8299 130.332 77.4319 130.491 77.9452 130.808C78.4586 131.126 78.8552 131.56 79.1352 132.11C79.4246 132.661 79.5692 133.286 79.5692 133.986C79.5692 134.686 79.4246 135.312 79.1352 135.862C78.8552 136.404 78.4539 136.833 77.9312 137.15C77.4179 137.458 76.8159 137.612 76.1252 137.612ZM75.9992 136.59C76.4659 136.59 76.8766 136.483 77.2312 136.268C77.5859 136.044 77.8659 135.736 78.0712 135.344C78.2766 134.952 78.3792 134.495 78.3792 133.972C78.3792 133.45 78.2766 132.992 78.0712 132.6C77.8659 132.208 77.5859 131.905 77.2312 131.69C76.8766 131.466 76.4659 131.354 75.9992 131.354C75.5326 131.354 75.1219 131.466 74.7672 131.69C74.4126 131.905 74.1326 132.208 73.9272 132.6C73.7219 132.992 73.6192 133.45 73.6192 133.972C73.6192 134.495 73.7219 134.952 73.9272 135.344C74.1326 135.736 74.4126 136.044 74.7672 136.268C75.1219 136.483 75.5326 136.59 75.9992 136.59ZM83.7402 137.612C82.9189 137.612 82.2656 137.365 81.7802 136.87C81.2949 136.366 81.0522 135.596 81.0522 134.56V130.5H82.2282V134.434C82.2282 135.881 82.8209 136.604 84.0062 136.604C84.6129 136.604 85.1122 136.39 85.5042 135.96C85.9056 135.522 86.1062 134.901 86.1062 134.098V130.5H87.2822V137.444H86.2182L86.1342 136.198C85.9196 136.637 85.5976 136.982 85.1682 137.234C84.7482 137.486 84.2722 137.612 83.7402 137.612ZM89.218 137.444V130.5H90.282L90.366 131.508C90.59 131.135 90.8886 130.846 91.262 130.64C91.6353 130.435 92.0553 130.332 92.522 130.332C93.0726 130.332 93.544 130.444 93.936 130.668C94.3373 130.892 94.6453 131.233 94.86 131.69C95.1026 131.27 95.434 130.939 95.854 130.696C96.2833 130.454 96.7453 130.332 97.24 130.332C98.0706 130.332 98.7333 130.584 99.228 131.088C99.7226 131.583 99.97 132.348 99.97 133.384V137.444H98.808V133.51C98.808 132.792 98.6633 132.25 98.374 131.886C98.0846 131.522 97.6693 131.34 97.128 131.34C96.568 131.34 96.1013 131.56 95.728 131.998C95.364 132.428 95.182 133.044 95.182 133.846V137.444H94.006V133.51C94.006 132.792 93.8613 132.25 93.572 131.886C93.2826 131.522 92.8673 131.34 92.326 131.34C91.7753 131.34 91.3133 131.56 90.94 131.998C90.576 132.428 90.394 133.044 90.394 133.846V137.444H89.218ZM104.401 137.612C103.571 137.612 102.88 137.402 102.329 136.982C101.779 136.562 101.457 135.993 101.363 135.274H102.567C102.642 135.638 102.833 135.956 103.141 136.226C103.459 136.488 103.883 136.618 104.415 136.618C104.91 136.618 105.274 136.516 105.507 136.31C105.741 136.096 105.857 135.844 105.857 135.554C105.857 135.134 105.703 134.854 105.395 134.714C105.097 134.574 104.672 134.448 104.121 134.336C103.748 134.262 103.375 134.154 103.001 134.014C102.628 133.874 102.315 133.678 102.063 133.426C101.811 133.165 101.685 132.824 101.685 132.404C101.685 131.798 101.909 131.303 102.357 130.92C102.815 130.528 103.431 130.332 104.205 130.332C104.943 130.332 105.545 130.519 106.011 130.892C106.487 131.256 106.763 131.779 106.837 132.46H105.675C105.629 132.106 105.475 131.83 105.213 131.634C104.961 131.429 104.621 131.326 104.191 131.326C103.771 131.326 103.445 131.415 103.211 131.592C102.987 131.77 102.875 132.003 102.875 132.292C102.875 132.572 103.02 132.792 103.309 132.95C103.608 133.109 104.009 133.244 104.513 133.356C104.943 133.45 105.349 133.566 105.731 133.706C106.123 133.837 106.441 134.038 106.683 134.308C106.935 134.57 107.061 134.952 107.061 135.456C107.071 136.082 106.833 136.6 106.347 137.01C105.871 137.412 105.223 137.612 104.401 137.612Z" fill="white"/>
</g>
<defs>
<clipPath id="clip0_406_5156">
<rect width="149" height="159" rx="7.94667" fill="white"/>
</clipPath>
</defs>
</svg>
