<svg width="20" height="18" viewBox="0 0 20 18" fill="none" xmlns="http://www.w3.org/2000/svg">
<path d="M10.66 0.255243C10.37 -0.00475711 9.94 -0.0747572 9.59 0.0852428C9.23 0.245243 9 0.605243 9 0.995243V4.99524H8C3.59 4.99524 0 8.58524 0 12.9952V16.9952C0 17.4152 0.27 17.7952 0.67 17.9352C0.78 17.9752 0.89 17.9952 1 17.9952C1.3 17.9952 1.59 17.8652 1.78 17.6152L3.68 15.2452C4.24182 14.5412 4.95543 13.9732 5.76754 13.5836C6.57965 13.194 7.46927 12.9929 8.37 12.9952H9.01V16.9952C9.01 17.3852 9.24 17.7452 9.6 17.9052C9.96 18.0652 10.38 18.0052 10.67 17.7352L19.67 9.73524C19.88 9.54524 20.01 9.27524 20.01 8.98524C20.01 8.69524 19.89 8.42524 19.67 8.23524L10.66 0.255243ZM11 14.7752V11.0052H8.36C7.15955 11.0023 5.97396 11.2706 4.89172 11.7901C3.80949 12.3096 2.85858 13.0668 2.11 14.0052L1.99 14.1552V13.0052C1.99 9.69524 4.68 7.00524 7.99 7.00524H10.99V3.23524L17.48 9.00524L10.99 14.7752H11Z" fill="white"/>
</svg>
