<svg width="85" height="35" viewBox="0 0 85 35" fill="none" xmlns="http://www.w3.org/2000/svg">
<rect width="85" height="35" rx="17.5" fill="#1A1A1A"/>
<path d="M21.328 23.192C20.528 23.192 19.8027 23.0373 19.152 22.728C18.512 22.408 18 21.9227 17.616 21.272C17.2427 20.6213 17.056 19.7947 17.056 18.792V11.8H18.752V18.808C18.752 19.7893 18.9867 20.5093 19.456 20.968C19.9253 21.4267 20.56 21.656 21.36 21.656C22.1493 21.656 22.7787 21.4267 23.248 20.968C23.7173 20.5093 23.952 19.7893 23.952 18.808V11.8H25.648V18.792C25.648 19.7947 25.4507 20.6213 25.056 21.272C24.672 21.9227 24.1493 22.408 23.488 22.728C22.8373 23.0373 22.1173 23.192 21.328 23.192ZM27.5995 26.52V15.064H29.1195L29.2955 16.296C29.5515 15.9227 29.9035 15.592 30.3515 15.304C30.7995 15.016 31.3755 14.872 32.0795 14.872C32.8475 14.872 33.5248 15.0533 34.1115 15.416C34.6982 15.7787 35.1568 16.2747 35.4875 16.904C35.8288 17.5333 35.9995 18.248 35.9995 19.048C35.9995 19.848 35.8288 20.5627 35.4875 21.192C35.1568 21.8107 34.6982 22.3013 34.1115 22.664C33.5248 23.016 32.8422 23.192 32.0635 23.192C31.4448 23.192 30.8955 23.0693 30.4155 22.824C29.9462 22.5787 29.5728 22.232 29.2955 21.784V26.52H27.5995ZM31.7755 21.72C32.5008 21.72 33.0982 21.4747 33.5675 20.984C34.0368 20.4827 34.2715 19.832 34.2715 19.032C34.2715 18.5093 34.1648 18.0453 33.9515 17.64C33.7382 17.2347 33.4448 16.92 33.0715 16.696C32.6982 16.4613 32.2662 16.344 31.7755 16.344C31.0502 16.344 30.4528 16.5947 29.9835 17.096C29.5248 17.5973 29.2955 18.2427 29.2955 19.032C29.2955 19.832 29.5248 20.4827 29.9835 20.984C30.4528 21.4747 31.0502 21.72 31.7755 21.72ZM37.6739 23V11.48H39.3699V23H37.6739ZM45.0696 23.192C44.3123 23.192 43.6296 23.0213 43.0216 22.68C42.4243 22.328 41.9496 21.8427 41.5976 21.224C41.2456 20.5947 41.0696 19.864 41.0696 19.032C41.0696 18.2 41.2456 17.4747 41.5976 16.856C41.9603 16.2267 42.4456 15.7413 43.0536 15.4C43.6616 15.048 44.339 14.872 45.0856 14.872C45.843 14.872 46.5203 15.048 47.1176 15.4C47.7256 15.7413 48.2056 16.2267 48.5576 16.856C48.9203 17.4747 49.1016 18.2 49.1016 19.032C49.1016 19.864 48.9203 20.5947 48.5576 21.224C48.2056 21.8427 47.7256 22.328 47.1176 22.68C46.5096 23.0213 45.827 23.192 45.0696 23.192ZM45.0696 21.736C45.475 21.736 45.8483 21.6347 46.1896 21.432C46.5416 21.2293 46.8243 20.9307 47.0376 20.536C47.251 20.1307 47.3576 19.6293 47.3576 19.032C47.3576 18.4347 47.251 17.9387 47.0376 17.544C46.835 17.1387 46.5576 16.8347 46.2056 16.632C45.8643 16.4293 45.491 16.328 45.0856 16.328C44.6803 16.328 44.3016 16.4293 43.9496 16.632C43.6083 16.8347 43.331 17.1387 43.1176 17.544C42.9043 17.9387 42.7976 18.4347 42.7976 19.032C42.7976 19.6293 42.9043 20.1307 43.1176 20.536C43.331 20.9307 43.6083 21.2293 43.9496 21.432C44.291 21.6347 44.6643 21.736 45.0696 21.736ZM53.4638 23.192C52.7918 23.192 52.2371 23.08 51.7998 22.856C51.3624 22.632 51.0371 22.3387 50.8238 21.976C50.6104 21.6027 50.5038 21.1973 50.5038 20.76C50.5038 19.992 50.8024 19.384 51.3998 18.936C51.9971 18.488 52.8504 18.264 53.9598 18.264H56.0398V18.12C56.0398 17.5013 55.8691 17.0373 55.5278 16.728C55.1971 16.4187 54.7651 16.264 54.2318 16.264C53.7624 16.264 53.3518 16.3813 52.9998 16.616C52.6584 16.84 52.4504 17.176 52.3758 17.624H50.6798C50.7331 17.048 50.9251 16.5573 51.2558 16.152C51.5971 15.736 52.0238 15.4213 52.5358 15.208C53.0584 14.984 53.6291 14.872 54.2478 14.872C55.3571 14.872 56.2158 15.1653 56.8238 15.752C57.4318 16.328 57.7358 17.1173 57.7358 18.12V23H56.2638L56.1198 21.64C55.8958 22.0773 55.5704 22.4453 55.1438 22.744C54.7171 23.0427 54.1571 23.192 53.4638 23.192ZM53.7998 21.816C54.2584 21.816 54.6424 21.7093 54.9518 21.496C55.2718 21.272 55.5171 20.9787 55.6878 20.616C55.8691 20.2533 55.9811 19.8533 56.0238 19.416H54.1358C53.4638 19.416 52.9838 19.5333 52.6958 19.768C52.4184 20.0027 52.2798 20.296 52.2798 20.648C52.2798 21.0107 52.4131 21.2987 52.6798 21.512C52.9571 21.7147 53.3304 21.816 53.7998 21.816ZM63.1693 23.192C62.4013 23.192 61.7239 23.0107 61.1373 22.648C60.5506 22.2853 60.0919 21.7893 59.7613 21.16C59.4306 20.5307 59.2653 19.816 59.2653 19.016C59.2653 18.216 59.4306 17.5067 59.7613 16.888C60.0919 16.2587 60.5506 15.768 61.1373 15.416C61.7346 15.0533 62.4173 14.872 63.1853 14.872C63.8146 14.872 64.3639 14.9947 64.8333 15.24C65.3133 15.4853 65.6866 15.832 65.9533 16.28V11.48H67.6493V23H66.1293L65.9533 21.768C65.6973 22.1413 65.3453 22.472 64.8973 22.76C64.4493 23.048 63.8733 23.192 63.1693 23.192ZM63.4733 21.72C64.1986 21.72 64.7906 21.4693 65.2493 20.968C65.7186 20.4667 65.9533 19.8213 65.9533 19.032C65.9533 18.232 65.7186 17.5867 65.2493 17.096C64.7906 16.5947 64.1986 16.344 63.4733 16.344C62.7479 16.344 62.1506 16.5947 61.6813 17.096C61.2119 17.5867 60.9773 18.232 60.9773 19.032C60.9773 19.5547 61.0839 20.0187 61.2973 20.424C61.5106 20.8293 61.8039 21.1493 62.1773 21.384C62.5613 21.608 62.9933 21.72 63.4733 21.72Z" fill="white"/>
</svg>
