<svg width="70" height="27" viewBox="0 0 70 27" fill="none" xmlns="http://www.w3.org/2000/svg">
<rect width="70" height="27" rx="13.5" fill="#1A1A1A"/>
<path d="M13.184 19V7.8H14.528L20.496 16.776V7.8H21.84V19H20.496L14.528 10.024V19H13.184ZM27.5433 19.192C26.7859 19.192 26.1139 19.0213 25.5273 18.68C24.9406 18.328 24.4766 17.8427 24.1353 17.224C23.8046 16.6053 23.6393 15.8747 23.6393 15.032C23.6393 14.2 23.8046 13.4747 24.1353 12.856C24.4659 12.2267 24.9246 11.7413 25.5113 11.4C26.1086 11.048 26.7966 10.872 27.5753 10.872C28.3433 10.872 29.0046 11.048 29.5593 11.4C30.1246 11.7413 30.5566 12.1947 30.8553 12.76C31.1539 13.3253 31.3033 13.9333 31.3033 14.584C31.3033 14.7013 31.2979 14.8187 31.2873 14.936C31.2873 15.0533 31.2873 15.1867 31.2873 15.336H24.9673C24.9993 15.944 25.1379 16.4507 25.3833 16.856C25.6393 17.2507 25.9539 17.5493 26.3273 17.752C26.7113 17.9547 27.1166 18.056 27.5433 18.056C28.0979 18.056 28.5619 17.928 28.9353 17.672C29.3086 17.416 29.5806 17.0693 29.7513 16.632H31.0793C30.8659 17.368 30.4553 17.9813 29.8473 18.472C29.2499 18.952 28.4819 19.192 27.5433 19.192ZM27.5433 12.008C26.9033 12.008 26.3326 12.2053 25.8313 12.6C25.3406 12.984 25.0579 13.5493 24.9833 14.296H29.9753C29.9433 13.5813 29.6979 13.0213 29.2393 12.616C28.7806 12.2107 28.2153 12.008 27.5433 12.008ZM31.7496 19L34.5016 15.032L31.7496 11.064H33.2056L35.4296 14.344L37.6696 11.064H39.1096L36.3576 15.032L39.1096 19H37.6696L35.4296 15.72L33.2056 19H31.7496ZM43.4944 19C42.769 19 42.1984 18.824 41.7824 18.472C41.3664 18.12 41.1584 17.4853 41.1584 16.568V12.2H39.7824V11.064H41.1584L41.3344 9.16H42.5024V11.064H44.8384V12.2H42.5024V16.568C42.5024 17.0693 42.6037 17.4107 42.8064 17.592C43.009 17.7627 43.3664 17.848 43.8784 17.848H44.7104V19H43.4944Z" fill="white"/>
<path d="M52.5 16.5L55.5 13.5L52.5 10.5" stroke="#F0F0F0" stroke-width="1.5" stroke-linecap="round" stroke-linejoin="round"/>
</svg>
