<svg width="350" height="52" viewBox="0 0 350 52" fill="none" xmlns="http://www.w3.org/2000/svg">
<rect width="51.4706" height="51.4706" rx="6.17647" fill="#808080"/>
<path d="M34.7425 18.0147H16.7278C15.3124 18.0147 14.1543 19.1728 14.1543 20.5883V36.0294C14.1543 37.4449 15.3124 38.603 16.7278 38.603H34.7425C36.158 38.603 37.3161 37.4449 37.3161 36.0294V20.5883C37.3161 19.1728 36.158 18.0147 34.7425 18.0147ZM34.7425 36.0294H16.7278V20.5883H34.7425V36.0294ZM18.0146 12.8677H33.4558V15.4412H18.0146V12.8677Z" fill="white"/>
<path d="M22.518 32.1693C23.5861 32.1693 24.4482 31.3072 24.4482 30.2392V24.5903L29.5952 25.6197V29.7116C29.3894 29.6344 29.1835 29.5958 28.9519 29.5958C27.8838 29.5958 27.0217 30.4579 27.0217 31.5259C27.0217 32.5939 27.8838 33.4561 28.9519 33.4561C30.0199 33.4561 30.882 32.5939 30.882 31.5259V25.0921C30.882 24.7833 30.6633 24.5259 30.3673 24.4616L23.9335 23.1748C23.8397 23.1532 23.7423 23.1533 23.6486 23.1752C23.5549 23.197 23.4674 23.24 23.3929 23.3009C23.3184 23.3617 23.2588 23.4388 23.2187 23.5263C23.1785 23.6137 23.159 23.7092 23.1614 23.8053V28.4248C22.9555 28.3476 22.7497 28.309 22.518 28.309C21.45 28.309 20.5879 29.1712 20.5879 30.2392C20.5879 31.3072 21.45 32.1693 22.518 32.1693Z" fill="white"/>
<rect x="59.7051" width="51.4706" height="51.4706" rx="6.17647" fill="#808080"/>
<path d="M77.7193 24.4487C80.1127 24.4487 82.1072 22.8016 82.6862 20.5884H98.3076V18.0148H82.6862C82.1072 15.8016 80.1127 14.1545 77.7193 14.1545C74.8756 14.1545 72.5723 16.4578 72.5723 19.3016C72.5723 22.1453 74.8756 24.4487 77.7193 24.4487ZM77.7193 16.7281C79.1348 16.7281 80.2929 17.8862 80.2929 19.3016C80.2929 20.717 79.1348 21.8751 77.7193 21.8751C76.3039 21.8751 75.1458 20.717 75.1458 19.3016C75.1458 17.8862 76.3039 16.7281 77.7193 16.7281ZM93.1605 37.3163C96.0043 37.3163 98.3076 35.013 98.3076 32.1692C98.3076 29.3255 96.0043 27.0222 93.1605 27.0222C90.7671 27.0222 88.7726 28.6692 88.1936 30.8825H72.5723V33.456H88.1936C88.7726 35.6692 90.7671 37.3163 93.1605 37.3163ZM93.1605 29.5957C94.5759 29.5957 95.734 30.7538 95.734 32.1692C95.734 33.5847 94.5759 34.7428 93.1605 34.7428C91.7451 34.7428 90.587 33.5847 90.587 32.1692C90.587 30.7538 91.7451 29.5957 93.1605 29.5957Z" fill="white"/>
<rect x="119.412" width="51.4706" height="51.4706" rx="6.17647" fill="#808080"/>
<path d="M151.169 19.7133C149.947 15.6986 146.189 12.8677 141.93 12.8677C136.603 12.8677 132.279 17.1912 132.279 22.5184C132.279 26.7647 135.11 30.535 139.125 31.7574C140.347 35.7721 144.105 38.603 148.364 38.603C153.691 38.603 158.015 34.2794 158.015 28.9522C158.015 24.7059 155.184 20.9486 151.169 19.7133ZM134.853 22.5184C134.853 18.6195 138.031 15.4412 141.93 15.4412C144.619 15.4412 147.038 16.9853 148.235 19.3015C148.094 19.3015 147.952 19.3144 147.798 19.3272C147.63 19.3272 147.476 19.3401 147.322 19.353C147.154 19.3658 147 19.4044 146.833 19.4302C146.678 19.4559 146.524 19.4688 146.382 19.5074C146.215 19.546 146.061 19.5846 145.893 19.6361C145.752 19.6747 145.61 19.7004 145.469 19.7519C145.301 19.8033 145.147 19.8677 144.993 19.932C144.864 19.9835 144.722 20.0221 144.594 20.0864C144.426 20.1508 144.272 20.2408 144.118 20.318C144.002 20.3824 143.873 20.4339 143.757 20.4982C143.59 20.5883 143.436 20.6912 143.281 20.7941L142.972 20.9872C142.805 21.103 142.638 21.2316 142.47 21.3603C142.393 21.4247 142.303 21.4761 142.226 21.5405C141.75 21.9265 141.312 22.364 140.926 22.8401C140.875 22.9044 140.823 22.9816 140.772 23.0589C140.643 23.2261 140.502 23.4063 140.373 23.5864C140.309 23.6765 140.257 23.7794 140.193 23.8695L139.884 24.3714C139.82 24.4872 139.768 24.603 139.717 24.7059C139.64 24.8732 139.55 25.0276 139.472 25.2077C139.421 25.3364 139.382 25.4522 139.331 25.5809C139.266 25.7482 139.202 25.9155 139.151 26.0828C139.112 26.2114 139.086 26.353 139.048 26.4816C138.996 26.6489 138.945 26.8291 138.919 26.9964C138.893 27.1379 138.88 27.2666 138.855 27.4081C138.829 27.5883 138.79 27.7555 138.777 27.9486C138.765 28.0901 138.765 28.2316 138.752 28.3861C138.752 28.5405 138.726 28.7078 138.726 28.8622C136.41 27.6655 134.866 25.2464 134.866 22.557L134.853 22.5184ZM148.364 36.0294C145.044 36.0294 142.136 33.6747 141.441 30.4449C141.285 29.7005 141.246 28.9365 141.325 28.1802C141.325 28.1158 141.351 28.0515 141.351 27.9872C141.377 27.7941 141.415 27.6011 141.454 27.4081C141.454 27.3566 141.48 27.2923 141.493 27.2408C141.544 27.035 141.595 26.8419 141.673 26.6489C141.673 26.6232 141.698 26.5846 141.711 26.5589C142.253 25.0967 143.258 23.8515 144.573 23.013C145.887 22.1744 147.44 21.7884 148.994 21.9136H149.02C149.29 21.9394 149.561 21.978 149.844 22.0294C151.425 22.3748 152.841 23.2488 153.859 24.5074C154.876 25.7659 155.434 27.3338 155.441 28.9522C155.441 32.8511 152.263 36.0294 148.364 36.0294Z" fill="white"/>
<rect x="179.117" width="51.4706" height="51.4706" rx="6.17647" fill="#808080"/>
<path d="M197.777 28.3088C195.294 28.3088 193.273 30.329 193.273 32.8125C193.273 35.2959 195.294 37.3162 197.777 37.3162C200.261 37.3162 202.281 35.2959 202.281 32.8125C202.281 32.0404 202.062 31.3198 201.727 30.6893L204.854 27.5625L207.981 30.6893C207.634 31.3198 207.428 32.0404 207.428 32.8125C207.428 35.2959 209.448 37.3162 211.932 37.3162C214.415 37.3162 216.435 35.2959 216.435 32.8125C216.435 30.329 214.415 28.3088 211.932 28.3088C211.159 28.3088 210.439 28.5276 209.808 28.8621L206.682 25.7353L215.161 17.2555L215.161 13.614L199.913 28.8621C199.283 28.5147 198.562 28.3088 197.79 28.3088L197.777 28.3088ZM213.862 32.8125C213.862 33.8805 213 34.7426 211.932 34.7426C210.864 34.7426 210.001 33.8805 210.001 32.8125C210.001 31.7445 210.864 30.8823 211.932 30.8823C213 30.8823 213.862 31.7445 213.862 32.8125ZM197.777 34.7426C196.709 34.7426 195.847 33.8805 195.847 32.8125C195.847 31.7445 196.709 30.8823 197.777 30.8823C198.845 30.8823 199.707 31.7445 199.707 32.8125C199.707 33.8805 198.845 34.7426 197.777 34.7426ZM201.239 23.9338L203.053 22.1195L194.56 13.6268L194.56 17.2555L201.239 23.9338Z" fill="white"/>
<rect x="238.824" width="51.4706" height="51.4706" rx="6.17647" fill="#808080"/>
<path d="M273.656 16.6379C272.485 15.4622 271.095 14.5268 269.565 13.8842C267.981 13.2126 266.279 12.8669 264.559 12.8677C263.851 12.8677 263.272 13.4467 263.272 14.1544V20.5883H265.846V15.5184C266.785 15.6342 267.699 15.8787 268.561 16.2519C269.783 16.7666 270.89 17.5129 271.829 18.4651C272.781 19.4044 273.515 20.5111 274.03 21.7335C274.57 23.0074 274.84 24.3456 274.84 25.7353C274.84 27.125 274.57 28.4761 274.03 29.7372C273.515 30.9596 272.769 32.0662 271.816 33.0055C270.877 33.9578 269.77 34.6912 268.548 35.2059C266.013 36.2739 263.066 36.2739 260.531 35.2059C259.309 34.6912 258.202 33.9449 257.263 32.9927C256.321 32.0593 255.573 30.9484 255.063 29.7243C254.522 28.4504 254.252 27.1122 254.252 25.7225C254.252 24.3328 254.522 22.9816 255.063 21.7206C255.577 20.4982 256.324 19.3916 257.276 18.4522L255.462 16.625C254.278 17.8089 253.351 19.1857 252.708 20.7169C252.039 22.2997 251.691 23.9853 251.691 25.7225C251.691 27.4596 252.026 29.1453 252.708 30.728C253.351 32.2592 254.291 33.6361 255.462 34.8199C256.633 36.0037 258.022 36.9302 259.554 37.5736C261.136 38.2427 262.822 38.5901 264.559 38.5901C266.296 38.5901 267.982 38.2556 269.565 37.5736C271.096 36.9302 272.473 35.9908 273.656 34.8199C274.84 33.6489 275.767 32.2592 276.41 30.728C277.079 29.1453 277.427 27.4596 277.427 25.7225C277.427 23.9853 277.092 22.2997 276.41 20.7169C275.767 19.1857 274.827 17.8089 273.656 16.625V16.6379Z" fill="white"/>
<path d="M265.693 24.6031L259.414 20.5884L263.429 26.8678C264.999 29.0296 267.868 26.1601 265.706 24.5902L265.693 24.6031Z" fill="white"/>
<rect x="298.529" width="51.4706" height="51.4706" rx="6.17647" fill="#808080"/>
<path d="M330.698 18.0147V15.4412C330.698 14.0258 329.54 12.8677 328.124 12.8677H320.404C318.988 12.8677 317.83 14.0258 317.83 15.4412V18.0147H311.396V20.5883H313.97V36.0294C313.97 37.4449 315.128 38.603 316.544 38.603H331.985C333.4 38.603 334.558 37.4449 334.558 36.0294V20.5883H337.132V18.0147H330.698ZM320.404 15.4412H328.124V18.0147H320.404V15.4412ZM316.544 36.0294V20.5883H331.985V36.0294H316.544Z" fill="white"/>
</svg>
