<svg width="116" height="28" viewBox="0 0 116 28" fill="none" xmlns="http://www.w3.org/2000/svg">
<rect width="116" height="28" rx="14" fill="#817E7E"/>
<path d="M13.184 19.5V8.3H20.112V9.404H14.528V13.308H19.632V14.396H14.528V18.396H20.112V19.5H13.184ZM25.5753 19.692C24.7859 19.692 24.0926 19.5107 23.4953 19.148C22.9086 18.7853 22.4499 18.2893 22.1193 17.66C21.7993 17.0307 21.6393 16.316 21.6393 15.516C21.6393 14.716 21.8046 14.0067 22.1353 13.388C22.4659 12.7587 22.9246 12.268 23.5113 11.916C24.0979 11.5533 24.7913 11.372 25.5913 11.372C26.2419 11.372 26.8179 11.5053 27.3193 11.772C27.8206 12.0387 28.2099 12.412 28.4873 12.892V7.98H29.8313V19.5H28.6153L28.4873 18.188C28.2313 18.572 27.8633 18.9187 27.3833 19.228C26.9033 19.5373 26.3006 19.692 25.5753 19.692ZM25.7193 18.524C26.2526 18.524 26.7219 18.4013 27.1273 18.156C27.5433 17.9 27.8633 17.548 28.0873 17.1C28.3219 16.652 28.4393 16.1293 28.4393 15.532C28.4393 14.9347 28.3219 14.412 28.0873 13.964C27.8633 13.516 27.5433 13.1693 27.1273 12.924C26.7219 12.668 26.2526 12.54 25.7193 12.54C25.1966 12.54 24.7273 12.668 24.3113 12.924C23.9059 13.1693 23.5859 13.516 23.3513 13.964C23.1273 14.412 23.0153 14.9347 23.0153 15.532C23.0153 16.1293 23.1273 16.652 23.3513 17.1C23.5859 17.548 23.9059 17.9 24.3113 18.156C24.7273 18.4013 25.1966 18.524 25.7193 18.524ZM32.6781 9.804C32.4115 9.804 32.1875 9.71867 32.0061 9.548C31.8355 9.36667 31.7501 9.14267 31.7501 8.876C31.7501 8.62 31.8355 8.40667 32.0061 8.236C32.1875 8.06533 32.4115 7.98 32.6781 7.98C32.9341 7.98 33.1528 8.06533 33.3341 8.236C33.5155 8.40667 33.6061 8.62 33.6061 8.876C33.6061 9.14267 33.5155 9.36667 33.3341 9.548C33.1528 9.71867 32.9341 9.804 32.6781 9.804ZM32.0061 19.5V11.564H33.3501V19.5H32.0061ZM38.6663 19.5C37.9409 19.5 37.3703 19.324 36.9543 18.972C36.5383 18.62 36.3303 17.9853 36.3303 17.068V12.7H34.9543V11.564H36.3303L36.5063 9.66H37.6743V11.564H40.0103V12.7H37.6743V17.068C37.6743 17.5693 37.7756 17.9107 37.9783 18.092C38.1809 18.2627 38.5383 18.348 39.0503 18.348H39.8823V19.5H38.6663ZM49.0881 19.5L44.8801 8.3H46.3361L49.8721 18.076L53.4401 8.3H54.8641L50.6561 19.5H49.0881ZM56.9756 9.804C56.709 9.804 56.485 9.71867 56.3036 9.548C56.133 9.36667 56.0476 9.14267 56.0476 8.876C56.0476 8.62 56.133 8.40667 56.3036 8.236C56.485 8.06533 56.709 7.98 56.9756 7.98C57.2316 7.98 57.4503 8.06533 57.6316 8.236C57.813 8.40667 57.9036 8.62 57.9036 8.876C57.9036 9.14267 57.813 9.36667 57.6316 9.548C57.4503 9.71867 57.2316 9.804 56.9756 9.804ZM56.3036 19.5V11.564H57.6476V19.5H56.3036ZM63.4278 19.692C62.6384 19.692 61.9451 19.5107 61.3478 19.148C60.7611 18.7853 60.3024 18.2893 59.9718 17.66C59.6518 17.0307 59.4918 16.316 59.4918 15.516C59.4918 14.716 59.6571 14.0067 59.9878 13.388C60.3184 12.7587 60.7771 12.268 61.3638 11.916C61.9504 11.5533 62.6438 11.372 63.4438 11.372C64.0944 11.372 64.6704 11.5053 65.1718 11.772C65.6731 12.0387 66.0624 12.412 66.3398 12.892V7.98H67.6838V19.5H66.4678L66.3398 18.188C66.0838 18.572 65.7158 18.9187 65.2358 19.228C64.7558 19.5373 64.1531 19.692 63.4278 19.692ZM63.5718 18.524C64.1051 18.524 64.5744 18.4013 64.9798 18.156C65.3958 17.9 65.7158 17.548 65.9398 17.1C66.1744 16.652 66.2918 16.1293 66.2918 15.532C66.2918 14.9347 66.1744 14.412 65.9398 13.964C65.7158 13.516 65.3958 13.1693 64.9798 12.924C64.5744 12.668 64.1051 12.54 63.5718 12.54C63.0491 12.54 62.5798 12.668 62.1638 12.924C61.7584 13.1693 61.4384 13.516 61.2038 13.964C60.9798 14.412 60.8678 14.9347 60.8678 15.532C60.8678 16.1293 60.9798 16.652 61.2038 17.1C61.4384 17.548 61.7584 17.9 62.1638 18.156C62.5798 18.4013 63.0491 18.524 63.5718 18.524ZM73.2826 19.692C72.5253 19.692 71.8533 19.5213 71.2666 19.18C70.68 18.828 70.216 18.3427 69.8746 17.724C69.544 17.1053 69.3786 16.3747 69.3786 15.532C69.3786 14.7 69.544 13.9747 69.8746 13.356C70.2053 12.7267 70.664 12.2413 71.2506 11.9C71.848 11.548 72.536 11.372 73.3146 11.372C74.0826 11.372 74.744 11.548 75.2986 11.9C75.864 12.2413 76.296 12.6947 76.5946 13.26C76.8933 13.8253 77.0426 14.4333 77.0426 15.084C77.0426 15.2013 77.0373 15.3187 77.0266 15.436C77.0266 15.5533 77.0266 15.6867 77.0266 15.836H70.7066C70.7386 16.444 70.8773 16.9507 71.1226 17.356C71.3786 17.7507 71.6933 18.0493 72.0666 18.252C72.4506 18.4547 72.856 18.556 73.2826 18.556C73.8373 18.556 74.3013 18.428 74.6746 18.172C75.048 17.916 75.32 17.5693 75.4906 17.132H76.8186C76.6053 17.868 76.1946 18.4813 75.5866 18.972C74.9893 19.452 74.2213 19.692 73.2826 19.692ZM73.2826 12.508C72.6426 12.508 72.072 12.7053 71.5706 13.1C71.08 13.484 70.7973 14.0493 70.7226 14.796H75.7146C75.6826 14.0813 75.4373 13.5213 74.9786 13.116C74.52 12.7107 73.9546 12.508 73.2826 12.508ZM82.28 19.692C81.5333 19.692 80.8613 19.5213 80.264 19.18C79.6667 18.8387 79.192 18.3587 78.84 17.74C78.4987 17.1107 78.328 16.3747 78.328 15.532C78.328 14.6893 78.504 13.9587 78.856 13.34C79.208 12.7107 79.6827 12.2253 80.28 11.884C80.888 11.5427 81.5653 11.372 82.312 11.372C83.0587 11.372 83.7307 11.5427 84.328 11.884C84.9253 12.2253 85.3947 12.7107 85.736 13.34C86.088 13.9587 86.264 14.6893 86.264 15.532C86.264 16.3747 86.088 17.1107 85.736 17.74C85.384 18.3587 84.904 18.8387 84.296 19.18C83.6987 19.5213 83.0267 19.692 82.28 19.692ZM82.28 18.54C82.7387 18.54 83.1653 18.428 83.56 18.204C83.9547 17.98 84.2747 17.644 84.52 17.196C84.7653 16.748 84.888 16.1933 84.888 15.532C84.888 14.8707 84.7653 14.316 84.52 13.868C84.2853 13.42 83.9707 13.084 83.576 12.86C83.1813 12.636 82.76 12.524 82.312 12.524C81.8533 12.524 81.4267 12.636 81.032 12.86C80.6373 13.084 80.3173 13.42 80.072 13.868C79.8267 14.316 79.704 14.8707 79.704 15.532C79.704 16.1933 79.8267 16.748 80.072 17.196C80.3173 17.644 80.632 17.98 81.016 18.204C81.4107 18.428 81.832 18.54 82.28 18.54Z" fill="white"/>
<path d="M102.941 7.99999C102.421 7.47999 101.574 7.47999 101.054 7.99999L99.3275 9.72665L98.4675 8.86665L97.5275 9.80665L98.3875 10.6667L92.8609 16.1933C92.7742 16.28 92.7142 16.3867 92.6875 16.5L92.0209 19.1667C91.9675 19.3933 92.0275 19.6333 92.1942 19.8C92.3209 19.9267 92.4942 19.9933 92.6675 19.9933C92.7209 19.9933 92.7742 19.9933 92.8275 19.9733L95.4942 19.3067C95.6142 19.28 95.7209 19.22 95.8009 19.1333L101.328 13.6067L102.188 14.4667L103.128 13.5267L102.268 12.6667L103.994 10.94C104.514 10.42 104.514 9.57332 103.994 9.05332L102.934 7.99332L102.941 7.99999ZM94.9875 18.0667L93.5809 18.42L93.9342 17.0133L99.3342 11.6133L100.394 12.6733L94.9942 18.0733L94.9875 18.0667ZM101.328 11.7267L100.268 10.6667L101.994 8.93999L103.054 9.99999L101.328 11.7267Z" fill="white"/>
</svg>
