<svg width="386" height="22" viewBox="0 0 386 22" fill="none" xmlns="http://www.w3.org/2000/svg">
<g clip-path="url(#clip0_74_8146)">
<rect x="4" y="9.5" width="277" height="3" rx="1.5" fill="white" fill-opacity="0.3"/>
<rect width="277" height="4" transform="translate(4 9.5)" fill="white" fill-opacity="0.34"/>
</g>
<rect x="4" y="9.5" width="47" height="3" rx="1.5" fill="white"/>
<path d="M53 11C53 12.933 51.433 14.5 49.5 14.5C47.567 14.5 46 12.933 46 11C46 9.067 47.567 7.5 49.5 7.5C51.433 7.5 53 9.067 53 11Z" fill="white"/>
<path d="M360.5 15.3542C360.354 15.3542 360.216 15.3084 360.088 15.2167C359.785 14.9875 359.721 14.5567 359.95 14.2542C361.105 12.7142 361.353 10.67 360.61 8.90088C360.464 8.55255 360.629 8.14921 360.977 8.00255C361.325 7.85588 361.729 8.02088 361.875 8.36921C362.81 10.5875 362.489 13.1634 361.05 15.0884C360.913 15.2625 360.711 15.3542 360.5 15.3542Z" fill="#F0F0F0"/>
<path d="M362.178 17.6458C362.031 17.6458 361.894 17.5999 361.765 17.5083C361.463 17.2791 361.399 16.8483 361.628 16.5458C363.59 13.9333 364.02 10.4316 362.755 7.41577C362.609 7.06744 362.774 6.66411 363.122 6.51744C363.47 6.37077 363.874 6.53577 364.02 6.88411C365.478 10.3491 364.983 14.3641 362.728 17.3708C362.6 17.5541 362.389 17.6458 362.178 17.6458Z" fill="#F0F0F0"/>
<path d="M356.87 11.8801C357.448 11.3026 358.438 11.7151 358.438 12.5309V15.2168C358.438 16.7934 357.869 17.9759 356.852 18.5443C356.439 18.7734 355.981 18.8834 355.504 18.8834C354.771 18.8834 353.983 18.6359 353.176 18.1318L352.589 17.7651C352.094 17.4534 352.012 16.7568 352.424 16.3443L356.87 11.8801Z" fill="#F0F0F0"/>
<path d="M363.956 2.04414C363.681 1.76914 363.232 1.76914 362.957 2.04414L358.42 6.58164C358.365 5.11497 357.815 4.01497 356.843 3.47414C355.816 2.90581 354.506 3.05247 353.167 3.88664L350.5 5.55497C350.316 5.66497 350.106 5.72914 349.895 5.72914H349.042H348.584C346.366 5.72914 345.146 6.94831 345.146 9.16664V12.8333C345.146 15.0516 346.366 16.2708 348.584 16.2708H348.731L346.036 18.9658C345.761 19.2408 345.761 19.69 346.036 19.965C346.182 20.0933 346.356 20.1666 346.54 20.1666C346.723 20.1666 346.897 20.0933 347.035 19.9558L363.956 3.03414C364.241 2.75914 364.241 2.31914 363.956 2.04414Z" fill="#F0F0F0"/>
<defs>
<clipPath id="clip0_74_8146">
<rect x="4" y="9.5" width="277" height="3" rx="1.5" fill="white"/>
</clipPath>
</defs>
</svg>
