<svg width="16" height="16" viewBox="0 0 16 16" fill="none" xmlns="http://www.w3.org/2000/svg">
<path fill-rule="evenodd" clip-rule="evenodd" d="M12.1353 3.86226C11.6072 3.34015 10.7542 3.34015 10.2261 3.86226L7.99998 6.08841L5.79961 3.94248C5.27549 3.42037 4.42639 3.42037 3.90604 3.94248C3.38192 4.46459 3.38192 5.32155 3.90604 5.84366L6.10641 8.04403L3.86493 10.2235C3.33881 10.7457 3.33881 11.6026 3.86493 12.1379C4.39305 12.6601 5.24604 12.6601 5.77416 12.1379L7.99998 9.92137L10.1596 12.0979C10.6838 12.62 11.5329 12.62 12.054 12.0979C12.5781 11.5758 12.5781 10.7189 12.054 10.1967L9.88104 8.03357L12.1353 5.77673C12.6614 5.24121 12.6614 4.39782 12.1353 3.86226Z" fill="#828282" fill-opacity="0.45"/>
</svg>
