<svg width="162" height="162" viewBox="0 0 162 162" fill="none" xmlns="http://www.w3.org/2000/svg">
<rect width="162" height="162" rx="81" fill="#F2577E" fill-opacity="0.13"/>
<path fill-rule="evenodd" clip-rule="evenodd" d="M101.261 59.4854C101.261 73.7649 92.6356 86.0198 81.1494 86.0198C69.6543 86.0198 61.0374 73.7649 61.0374 59.4809C61.0374 45.2059 68.4565 36.8572 81.1494 36.8572C93.8423 36.8572 101.261 45.2014 101.261 59.4854ZM45.8506 117.94C47.5713 119.987 54.9815 126.244 81.1494 126.244C107.317 126.244 114.723 119.987 116.448 117.944C116.608 117.748 116.726 117.521 116.796 117.277C116.865 117.034 116.883 116.779 116.85 116.527C116.457 112.586 112.908 94.9585 81.1494 94.9585C49.3904 94.9585 45.8417 112.586 45.4439 116.527C45.4116 116.779 45.4309 117.034 45.5009 117.278C45.5708 117.522 45.6899 117.744 45.8506 117.94Z" fill="url(#paint0_linear_username_profile_avatar)"/>
<defs>
<linearGradient id="paint0_linear_username_profile_avatar" x1="56.143" y1="42" x2="73.7144" y2="129.429" gradientUnits="userSpaceOnUse">
<stop stop-color="#660033"/>
<stop offset="0.956731" stop-color="#CA0065"/>
</linearGradient>
</defs>
</svg>
