<svg width="128" height="47" viewBox="0 0 128 47" fill="none" xmlns="http://www.w3.org/2000/svg">
<path d="M112.07 5.49464C112.116 5.4946 112.162 5.49455 112.21 5.49451C115.245 5.49916 118.39 6.17326 120.867 8.06656C120.904 8.09342 120.94 8.12028 120.977 8.14795C121.983 8.89237 122.925 9.83084 123.616 10.8906C123.644 10.9335 123.672 10.9764 123.701 11.0206C125.428 13.7091 126.15 16.8421 126.233 20.0352C126.235 20.0812 126.236 20.1272 126.238 20.1746C126.362 24.6234 125.189 28.8699 122.228 32.1649C119.792 34.7543 116.225 35.7864 112.818 35.9038C112.75 35.9062 112.75 35.9062 112.68 35.9086C108.967 36.0152 105.152 34.9903 102.405 32.323C102.343 32.2621 102.281 32.2012 102.217 32.1384C102.16 32.0837 102.104 32.029 102.045 31.9727C99.1047 29.06 98.2465 24.6518 98.1627 20.6236C98.1173 16.9656 99.0255 12.8929 101.432 10.0838C101.479 10.0281 101.526 9.97246 101.574 9.91513C103.954 7.14366 107.248 5.76025 110.813 5.52362C111.232 5.50225 111.65 5.49502 112.07 5.49464ZM107.256 12.1009C107.201 12.1486 107.146 12.1963 107.089 12.2454C105.197 13.9218 104.394 16.6672 104.192 19.1476C104.165 19.6266 104.164 20.1061 104.164 20.5858C104.164 20.6423 104.164 20.6988 104.164 20.757C104.167 23.7756 104.885 26.7765 106.994 28.9781C107.043 29.0306 107.093 29.083 107.144 29.137C107.898 29.887 108.868 30.4294 109.873 30.7264C109.92 30.7403 109.966 30.7542 110.013 30.7686C111.41 31.1689 113.068 31.1684 114.454 30.7264C114.499 30.7123 114.544 30.6982 114.59 30.6838C116.6 30.0317 118.095 28.5679 119.06 26.6738C119.963 24.8071 120.242 22.728 120.233 20.6656C120.233 20.607 120.233 20.5484 120.233 20.4881C120.226 18.6232 119.998 16.7701 119.231 15.0595C119.213 15.0169 119.194 14.9744 119.176 14.9306C118.346 13.0176 116.879 11.5757 114.978 10.8234C112.436 9.90835 109.316 10.2072 107.256 12.1009Z" fill="currentColor"/>
<path d="M5.7078 5.9507C6.4028 6.5388 6.72796 7.42633 7.04011 8.27073C7.06226 8.33066 7.08442 8.39058 7.10724 8.45231C7.42632 9.32697 7.71117 10.2142 8.00013 11.0997C8.08586 11.3622 8.17191 11.6246 8.25794 11.8869C8.38345 12.2698 8.50888 12.6527 8.6342 13.0357C8.85316 13.7047 9.07281 14.3736 9.29293 15.0422C9.30882 15.0905 9.32471 15.1388 9.34109 15.1886C9.40521 15.3833 9.46934 15.5781 9.53348 15.7729C9.71225 16.3159 9.89089 16.8589 10.0695 17.4019C10.0858 17.4515 10.1021 17.5011 10.1189 17.5522C10.469 18.6163 10.8186 19.6806 11.1683 20.7448C11.4508 21.6046 11.7333 22.4644 12.016 23.3241C12.1035 23.5906 12.1911 23.8571 12.2787 24.1236C12.4668 24.6959 12.6549 25.2682 12.8432 25.8405C12.9221 26.0803 13.001 26.32 13.0798 26.5599C13.1658 26.8217 13.252 27.0835 13.3382 27.3453C13.3632 27.4217 13.3883 27.498 13.4141 27.5767C13.5395 27.9571 13.669 28.3348 13.8088 28.7098C13.8337 28.6326 13.8587 28.5553 13.8843 28.4758C14.3272 27.1049 14.7716 25.7347 15.228 24.3686C15.6124 23.218 15.9874 22.0643 16.3609 20.91C16.7449 19.7234 17.1312 18.5378 17.5266 17.3552C17.8717 16.3226 18.2078 15.287 18.5431 14.251C19.0263 12.7577 19.5131 11.2658 20.0116 9.77788C20.1049 9.49925 20.1977 9.22045 20.2898 8.94139C20.3555 8.74235 20.4216 8.54346 20.4877 8.34454C20.5205 8.24448 20.5205 8.24448 20.554 8.14239C20.8639 7.21441 21.2533 6.22899 22.1562 5.76159C22.9317 5.43241 23.7368 5.40345 24.534 5.68778C25.2889 6.03415 25.8083 6.61086 26.1293 7.38532C26.3335 8.00353 26.2795 8.6529 26.1319 9.27775C26.1202 9.32763 26.1085 9.3775 26.0965 9.42888C25.9746 9.93272 25.8093 10.4179 25.6329 10.9039C25.5965 11.0057 25.5602 11.1075 25.5239 11.2094C25.4179 11.506 25.3109 11.8023 25.2038 12.0985C25.1248 12.3172 25.046 12.536 24.9672 12.7549C24.6203 13.7188 24.2723 14.6823 23.9237 15.6457C23.6975 16.2707 23.4716 16.8959 23.2459 17.5212C23.2227 17.5854 23.2227 17.5854 23.1991 17.6508C23.1213 17.8665 23.0434 18.0821 22.9656 18.2978C22.8247 18.688 22.6839 19.0782 22.543 19.4684C22.4646 19.6856 22.3862 19.9027 22.3078 20.1199C22.2764 20.2067 22.245 20.2936 22.2137 20.3805C22.1904 20.4449 22.1904 20.4449 22.1667 20.5107C22.0255 20.9016 22.0255 20.9016 21.9785 21.0318C21.9472 21.1187 21.9158 21.2055 21.8844 21.2924C21.806 21.5095 21.7276 21.7267 21.6492 21.9439C21.5083 22.3343 21.3673 22.7247 21.2264 23.1152C21.1482 23.3318 21.07 23.5484 20.9918 23.765C20.9763 23.8079 20.9608 23.8508 20.9449 23.8951C20.7386 24.4664 20.5322 25.0376 20.3256 25.6087C20.2132 25.9194 20.1009 26.23 19.9886 26.5407C19.9095 26.7595 19.8304 26.9784 19.7512 27.1973C19.4168 28.1211 19.0847 29.0457 18.7592 29.9729C18.7031 30.1322 18.647 30.2915 18.5909 30.4509C18.4877 30.7443 18.3852 31.038 18.2833 31.3319C17.5137 33.5325 17.5137 33.5325 16.819 34.4252C16.7766 34.4861 16.7766 34.4861 16.7334 34.5483C16.1798 35.296 15.3038 35.699 14.4264 35.854C13.2447 36.014 12.1166 35.8326 11.1457 35.0884C9.88892 34.0443 9.38395 32.3443 8.86119 30.832C8.77185 30.5736 8.68188 30.3154 8.59167 30.0573C8.57644 30.0138 8.56122 29.9702 8.54553 29.9253C8.51473 29.8372 8.48393 29.7491 8.45312 29.6609C8.40697 29.5288 8.36088 29.3967 8.31481 29.2646C8.04198 28.4824 7.76295 27.7027 7.48158 26.9237C7.41382 26.7359 7.34608 26.5481 7.27835 26.3603C7.23326 26.2353 7.18817 26.1103 7.14307 25.9853C6.87817 25.2509 6.61544 24.5156 6.35274 23.7803C6.32831 23.7119 6.30388 23.6435 6.27872 23.5731C6.15512 23.2272 6.03155 22.8813 5.90799 22.5354C5.6869 21.9165 5.46561 21.2976 5.24434 20.6788C5.12139 20.3349 4.99844 19.991 4.87549 19.6471C4.85116 19.5791 4.82682 19.511 4.80175 19.4409C4.65645 19.0344 4.51119 18.628 4.36597 18.2216C4.26982 17.9525 4.17367 17.6835 4.07751 17.4144C4.02932 17.2796 3.98114 17.1447 3.93296 17.0099C3.65357 16.2281 3.37371 15.4464 3.09303 14.6651C3.0472 14.5375 3.00138 14.4099 2.95557 14.2823C2.92507 14.1974 2.89457 14.1124 2.86407 14.0275C2.84901 13.9855 2.83395 13.9436 2.81844 13.9004C2.71768 13.6198 2.61679 13.3393 2.51588 13.0588C2.38077 12.683 2.24631 12.3069 2.11239 11.9306C2.0553 11.7702 1.99807 11.6099 1.94074 11.4497C1.85112 11.1991 1.76243 10.9481 1.6738 10.6971C1.64676 10.6217 1.61972 10.5463 1.59186 10.4686C1.34859 9.7755 1.13973 9.07048 1.15029 8.32773C1.15088 8.27624 1.15147 8.22476 1.15207 8.17171C1.17468 7.40772 1.4512 6.86758 1.96419 6.31894C2.923 5.39234 4.59228 5.14245 5.7078 5.9507Z" fill="currentColor"/>
<path d="M92.2193 16.6209C93.5478 17.984 94.3886 19.7939 94.8098 21.6567C94.8226 21.7127 94.8353 21.7687 94.8485 21.8264C95.0511 22.7836 95.109 23.7438 95.1043 24.7204C95.1041 24.7991 95.1041 24.7991 95.1039 24.8795C95.0944 27.3865 94.506 30.0238 92.9243 32.0033C92.8981 32.0371 92.8718 32.071 92.8447 32.106C91.1737 34.2593 88.7796 35.4742 86.1391 35.8133C82.9962 36.1408 79.9272 35.5627 77.4366 33.4857C75.3115 31.6774 74.1528 29.0342 73.8925 26.2352C73.8559 25.7452 73.8589 25.2535 73.8609 24.7624C73.8611 24.7032 73.8612 24.644 73.8613 24.5831C73.8643 23.7026 73.8946 22.8476 74.0777 21.9845C74.0886 21.93 74.0995 21.8754 74.1107 21.8192C74.5082 19.8603 75.3582 18.1263 76.6953 16.6726C76.7482 16.6131 76.8011 16.5537 76.8556 16.4924C78.7289 14.4611 81.5203 13.6655 84.1673 13.5831C87.2009 13.5253 90.0105 14.4603 92.2193 16.6209ZM81.0593 19.1479C80.7498 19.4811 80.5136 19.8356 80.2945 20.2363C80.261 20.2953 80.2275 20.3544 80.193 20.4152C79.0457 22.581 79.0361 25.4621 79.681 27.784C80.0946 29.1688 80.8879 30.4419 82.1365 31.173C83.3187 31.7471 84.7763 31.9044 86.0307 31.4863C86.8083 31.1727 87.374 30.7956 87.9509 30.1878C87.9945 30.1436 88.0382 30.0994 88.0831 30.0538C89.5121 28.5092 89.6954 26.1443 89.6582 24.1324C89.6214 22.8809 89.3856 21.6129 88.8016 20.5053C88.7563 20.4179 88.7563 20.4179 88.7101 20.3288C88.0463 19.1228 87.0307 18.2658 85.7301 17.8871C84.0185 17.5201 82.3405 17.8987 81.0593 19.1479Z" fill="currentColor"/>
<path d="M67.01 15.5974C67.0658 15.6407 67.1215 15.684 67.179 15.7287C67.3438 15.8609 67.5047 15.9967 67.6644 16.1353C67.719 16.1823 67.7736 16.2292 67.8298 16.2776C68.2395 16.6422 68.5787 17.0384 68.9078 17.4801C68.9588 17.5452 69.0098 17.6103 69.0624 17.6773C70.9143 20.1131 71.3272 23.5244 71.0169 26.519C70.8532 27.8243 70.5044 29.0678 69.9548 30.2556C69.9344 30.3003 69.914 30.345 69.893 30.391C68.8487 32.6421 66.8802 34.3669 64.6155 35.2255C61.6771 36.2767 58.1946 36.184 55.3722 34.8111C53.6633 33.9455 52.2739 32.6102 51.3045 30.928C51.2817 30.8886 51.259 30.8492 51.2355 30.8086C50.1875 28.9656 49.836 26.8774 49.8444 24.7672C49.8445 24.7047 49.8446 24.6422 49.8447 24.5778C49.8476 23.6786 49.8657 22.7983 50.0612 21.9179C50.0727 21.8643 50.0843 21.8106 50.0962 21.7554C50.6669 19.1822 52.0109 16.7846 54.1989 15.3182C57.9088 12.9732 63.4505 12.8184 67.01 15.5974ZM56.9978 19.2283C56.9361 19.2903 56.9361 19.2903 56.8733 19.3536C55.3973 20.9596 55.2471 23.4229 55.2871 25.5031C55.3072 26.0429 55.3823 26.5678 55.4926 27.0954C55.5021 27.1411 55.5116 27.1869 55.5213 27.234C55.8405 28.7193 56.5638 30.0718 57.8002 30.9451C58.9237 31.6812 60.2351 31.8571 61.5425 31.6233C62.5108 31.3831 63.2498 30.9087 63.9344 30.1884C63.9772 30.1457 64.0201 30.1031 64.0642 30.0592C65.0164 29.0449 65.3886 27.5759 65.5704 26.2212C65.579 26.1606 65.5876 26.0999 65.5964 26.0374C65.8432 23.8851 65.5647 21.4181 64.2754 19.6417C63.4554 18.5747 62.3245 17.9415 61.01 17.77C60.9161 17.7618 60.822 17.7547 60.7278 17.749C60.6833 17.7463 60.6387 17.7435 60.5928 17.7406C59.1906 17.6983 57.9852 18.2309 56.9978 19.2283Z" fill="currentColor"/>
<path d="M32.6004 14.0511C33.0615 14.4983 33.2861 15.1474 33.51 15.7413C33.5353 15.8084 33.5607 15.8754 33.5869 15.9445C33.8942 16.7636 34.1775 17.5914 34.461 18.4194C34.5391 18.6474 34.6175 18.8752 34.6959 19.103C34.7281 19.1966 34.7603 19.2901 34.7925 19.3837C34.8085 19.4302 34.8245 19.4767 34.841 19.5247C34.8896 19.6659 34.9382 19.8072 34.9867 19.9485C35.3003 20.8608 35.6167 21.772 35.9338 22.683C35.987 22.8359 36.0402 22.9888 36.0934 23.1418C36.1733 23.3716 36.2533 23.6014 36.3332 23.8311C36.5215 24.3722 36.7096 24.9134 36.8976 25.4546C36.9432 25.5858 36.9888 25.717 37.0343 25.8481C37.0643 25.9343 37.0942 26.0205 37.1242 26.1067C37.1389 26.149 37.1536 26.1913 37.1687 26.2349C37.2407 26.4421 37.3127 26.6493 37.3847 26.8566C37.4641 27.0852 37.5435 27.3138 37.6229 27.5424C37.6461 27.609 37.6692 27.6755 37.693 27.7441C37.844 28.1785 37.9967 28.6122 38.1506 29.0456C38.3341 28.6347 38.4972 28.2202 38.6472 27.7953C38.6692 27.7335 38.6912 27.6718 38.7139 27.6081C38.7616 27.4742 38.8092 27.3402 38.8568 27.2062C38.9337 26.9892 39.0109 26.7724 39.0881 26.5556C39.1705 26.3244 39.2528 26.0932 39.3351 25.862C39.6436 24.9951 39.9543 24.129 40.2651 23.2629C40.3806 22.9409 40.4962 22.6189 40.6117 22.2969C40.655 22.1763 40.655 22.1763 40.6991 22.0533C40.8944 21.5087 41.0893 20.9639 41.2839 20.419C42.3578 17.412 42.3578 17.412 42.741 16.3813C42.7859 16.2605 42.8302 16.1396 42.8745 16.0186C43.536 14.2593 43.536 14.2593 44.2814 13.8242C44.9677 13.5184 45.7649 13.5019 46.4696 13.7485C47.0923 14.0335 47.6362 14.6105 47.8883 15.2632C47.9261 15.3978 47.9496 15.526 47.9665 15.6648C47.9719 15.7078 47.9773 15.7508 47.9829 15.7951C48.0318 16.6255 47.6744 17.4493 47.3819 18.2031C47.3344 18.3264 47.3344 18.3264 47.2859 18.4522C46.9501 19.3232 46.609 20.1921 46.2673 21.0608C46.1785 21.2865 46.0898 21.5122 46.0011 21.738C45.8548 22.1105 45.7084 22.4829 45.562 22.8554C45.2705 23.5969 44.9793 24.3385 44.6881 25.0801C44.5962 25.3141 44.5043 25.5481 44.4124 25.7821C44.1164 26.5358 43.8204 27.2896 43.5247 28.0434C43.4523 28.2281 43.3799 28.4127 43.3074 28.5974C43.1473 29.0052 42.9873 29.4131 42.8279 29.8213C42.2285 31.3559 42.2285 31.3559 41.9133 32.1115C41.8717 32.2123 41.8302 32.313 41.7886 32.4138C41.7177 32.5858 41.6449 32.7564 41.5705 32.927C41.5404 32.9998 41.5103 33.0726 41.4793 33.1477C41.4409 33.2368 41.4409 33.2368 41.4018 33.3277C41.2769 33.9504 41.4612 34.6356 41.5721 35.251C41.6017 35.42 41.6313 35.589 41.6609 35.758C41.7074 36.0208 41.7541 36.2835 41.8009 36.5463C41.8465 36.8022 41.8913 37.0583 41.9361 37.3145C41.9502 37.3923 41.9643 37.4701 41.9788 37.5503C42.1617 38.6012 42.1617 38.6012 42.0115 39.0643C41.0049 40.0585 39.5108 40.3701 38.1628 40.3628C38.0882 40.3625 38.0136 40.3621 37.9368 40.3617C36.6583 40.3428 35.4432 39.9744 34.4164 39.1777C34.1455 38.7917 34.2205 38.3487 34.2899 37.9026C34.314 37.7612 34.339 37.62 34.3647 37.4789C34.3924 37.327 34.419 37.1748 34.4454 37.0226C34.4921 36.7547 34.5397 36.4869 34.5875 36.2192C34.6642 35.7899 34.7402 35.3604 34.8151 34.9307C34.8414 34.7811 34.8684 34.6317 34.8955 34.4823C34.9116 34.3904 34.9277 34.2986 34.9438 34.2068C34.958 34.1269 34.9723 34.0471 34.9871 33.9648C35.0227 33.6263 34.9409 33.386 34.8057 33.0804C34.763 32.9826 34.763 32.9826 34.7194 32.8828C34.6729 32.7774 34.6729 32.7774 34.6255 32.6699C34.2268 31.7522 33.8595 30.8232 33.4962 29.8902C33.4301 29.7211 33.3639 29.552 33.2977 29.3828C33.1981 29.1283 33.0986 28.8737 32.9991 28.6191C32.7383 27.9512 32.4761 27.284 32.213 26.617C32.1018 26.3351 31.9907 26.0532 31.8796 25.7713C31.8576 25.7154 31.8356 25.6596 31.8129 25.6021C31.4843 24.7682 31.1563 23.9341 30.8283 23.1001C30.5472 22.3853 30.2657 21.6707 29.9836 20.9564C29.7981 20.4867 29.6132 20.0168 29.4286 19.5467C29.3361 19.3109 29.2434 19.0752 29.1499 18.8398C28.1184 16.2376 28.1184 16.2376 28.5757 15.0999C28.8956 14.4512 29.4069 13.9702 30.0769 13.7233C30.9533 13.4692 31.8247 13.551 32.6004 14.0511Z" fill="currentColor"/>
<path d="M41.8825 40.3417C41.9041 40.3417 41.9257 40.3417 41.948 40.3417C42.1908 41.3887 42.1908 41.3887 42.0093 41.8714C41.3466 42.6621 40.2507 43.0216 39.2649 43.1657C38.9574 43.1815 38.65 43.1839 38.3422 43.1856C38.2441 43.1864 38.1461 43.1877 38.048 43.1897C37.1292 43.2084 36.2782 43.0711 35.4367 42.6699C35.3935 42.6497 35.3502 42.6296 35.3056 42.6088C34.8966 42.4124 34.5633 42.2114 34.2874 41.842C34.1562 41.3657 34.273 40.8695 34.4224 40.4089C34.4607 40.4374 34.499 40.4659 34.5384 40.4953C36.0026 41.5231 37.8343 41.7753 39.564 41.4727C40.3846 41.271 41.2846 40.9736 41.8825 40.3417Z" fill="currentColor"/>
</svg>
