<svg width="146" height="40" viewBox="0 0 146 40" fill="none" xmlns="http://www.w3.org/2000/svg">
<rect width="146" height="40" rx="20" fill="#1C1C1C"/>
<path d="M33.4329 25V13.8H40.5529V15.176H35.1289V18.664H40.0729V20.008H35.1289V23.624H40.5529V25H33.4329ZM46.1255 25.192C45.3575 25.192 44.6802 25.0107 44.0935 24.648C43.5068 24.2853 43.0482 23.7893 42.7175 23.16C42.3868 22.5307 42.2215 21.816 42.2215 21.016C42.2215 20.216 42.3868 19.5067 42.7175 18.888C43.0482 18.2587 43.5068 17.768 44.0935 17.416C44.6908 17.0533 45.3735 16.872 46.1415 16.872C46.7708 16.872 47.3202 16.9947 47.7895 17.24C48.2695 17.4853 48.6428 17.832 48.9095 18.28V13.48H50.6055V25H49.0855L48.9095 23.768C48.6535 24.1413 48.3015 24.472 47.8535 24.76C47.4055 25.048 46.8295 25.192 46.1255 25.192ZM46.4295 23.72C47.1548 23.72 47.7468 23.4693 48.2055 22.968C48.6748 22.4667 48.9095 21.8213 48.9095 21.032C48.9095 20.232 48.6748 19.5867 48.2055 19.096C47.7468 18.5947 47.1548 18.344 46.4295 18.344C45.7042 18.344 45.1068 18.5947 44.6375 19.096C44.1682 19.5867 43.9335 20.232 43.9335 21.032C43.9335 21.5547 44.0402 22.0187 44.2535 22.424C44.4668 22.8293 44.7602 23.1493 45.1335 23.384C45.5175 23.608 45.9495 23.72 46.4295 23.72ZM53.7039 15.56C53.3839 15.56 53.1172 15.464 52.9039 15.272C52.7012 15.0693 52.5999 14.8187 52.5999 14.52C52.5999 14.2213 52.7012 13.976 52.9039 13.784C53.1172 13.5813 53.3839 13.48 53.7039 13.48C54.0239 13.48 54.2852 13.5813 54.4879 13.784C54.7012 13.976 54.8079 14.2213 54.8079 14.52C54.8079 14.8187 54.7012 15.0693 54.4879 15.272C54.2852 15.464 54.0239 15.56 53.7039 15.56ZM52.8559 25V17.064H54.5519V25H52.8559ZM60.1188 25C59.3401 25 58.7214 24.8133 58.2628 24.44C57.8041 24.056 57.5748 23.3787 57.5748 22.408V18.488H56.2148V17.064H57.5748L57.7828 15.048H59.2708V17.064H61.5108V18.488H59.2708V22.408C59.2708 22.8453 59.3614 23.1493 59.5428 23.32C59.7348 23.48 60.0601 23.56 60.5188 23.56H61.4308V25H60.1188ZM67.3548 25V13.8H71.2748C72.1494 13.8 72.8748 13.9493 73.4508 14.248C74.0268 14.536 74.4534 14.936 74.7308 15.448C75.0188 15.9493 75.1628 16.52 75.1628 17.16C75.1628 17.768 75.0241 18.328 74.7468 18.84C74.4801 19.3413 74.0588 19.7413 73.4828 20.04C72.9068 20.3387 72.1708 20.488 71.2748 20.488H69.0508V25H67.3548ZM69.0508 19.096H71.1948C71.9948 19.096 72.5654 18.9253 72.9068 18.584C73.2588 18.232 73.4348 17.7573 73.4348 17.16C73.4348 16.5413 73.2588 16.0613 72.9068 15.72C72.5654 15.368 71.9948 15.192 71.1948 15.192H69.0508V19.096ZM76.7751 25V17.064H78.2951L78.4391 18.568C78.7165 18.0453 79.1005 17.6347 79.5911 17.336C80.0925 17.0267 80.6951 16.872 81.3991 16.872V18.648H80.9351C80.4658 18.648 80.0445 18.728 79.6711 18.888C79.3085 19.0373 79.0151 19.2987 78.7911 19.672C78.5778 20.0347 78.4711 20.5413 78.4711 21.192V25H76.7751ZM86.3465 25.192C85.5892 25.192 84.9065 25.0213 84.2985 24.68C83.7012 24.328 83.2265 23.8427 82.8745 23.224C82.5225 22.5947 82.3465 21.864 82.3465 21.032C82.3465 20.2 82.5225 19.4747 82.8745 18.856C83.2372 18.2267 83.7225 17.7413 84.3305 17.4C84.9385 17.048 85.6158 16.872 86.3625 16.872C87.1198 16.872 87.7972 17.048 88.3945 17.4C89.0025 17.7413 89.4825 18.2267 89.8345 18.856C90.1972 19.4747 90.3785 20.2 90.3785 21.032C90.3785 21.864 90.1972 22.5947 89.8345 23.224C89.4825 23.8427 89.0025 24.328 88.3945 24.68C87.7865 25.0213 87.1038 25.192 86.3465 25.192ZM86.3465 23.736C86.7518 23.736 87.1252 23.6347 87.4665 23.432C87.8185 23.2293 88.1012 22.9307 88.3145 22.536C88.5278 22.1307 88.6345 21.6293 88.6345 21.032C88.6345 20.4347 88.5278 19.9387 88.3145 19.544C88.1118 19.1387 87.8345 18.8347 87.4825 18.632C87.1412 18.4293 86.7678 18.328 86.3625 18.328C85.9572 18.328 85.5785 18.4293 85.2265 18.632C84.8852 18.8347 84.6078 19.1387 84.3945 19.544C84.1812 19.9387 84.0745 20.4347 84.0745 21.032C84.0745 21.6293 84.1812 22.1307 84.3945 22.536C84.6078 22.9307 84.8852 23.2293 85.2265 23.432C85.5678 23.6347 85.9412 23.736 86.3465 23.736ZM92.6126 25V18.488H91.4766V17.064H92.6126V15.912C92.6126 15.048 92.826 14.4293 93.2526 14.056C93.69 13.672 94.3033 13.48 95.0926 13.48H95.9246V14.92H95.3486C94.9753 14.92 94.7086 15 94.5486 15.16C94.3886 15.3093 94.3086 15.5653 94.3086 15.928V17.064H99.3326V25H97.6366V18.488H94.3086V25H92.6126ZM98.5006 15.736C98.1806 15.736 97.914 15.64 97.7006 15.448C97.498 15.2453 97.3966 14.9893 97.3966 14.68C97.3966 14.3813 97.498 14.136 97.7006 13.944C97.914 13.752 98.1806 13.656 98.5006 13.656C98.8206 13.656 99.082 13.752 99.2846 13.944C99.498 14.136 99.6046 14.3813 99.6046 14.68C99.6046 14.9893 99.498 15.2453 99.2846 15.448C99.082 15.64 98.8206 15.736 98.5006 15.736ZM101.588 25V13.48H103.284V25H101.588ZM109.143 25.192C108.365 25.192 107.671 25.0213 107.063 24.68C106.466 24.328 105.997 23.8427 105.655 23.224C105.314 22.6053 105.143 21.8853 105.143 21.064C105.143 20.232 105.309 19.5013 105.639 18.872C105.981 18.2427 106.45 17.752 107.047 17.4C107.655 17.048 108.359 16.872 109.159 16.872C109.938 16.872 110.615 17.048 111.191 17.4C111.767 17.7413 112.215 18.2 112.535 18.776C112.855 19.352 113.015 19.9867 113.015 20.68C113.015 20.7867 113.01 20.904 112.999 21.032C112.999 21.1493 112.994 21.2827 112.983 21.432H106.807C106.861 22.2 107.111 22.7867 107.559 23.192C108.018 23.5867 108.546 23.784 109.143 23.784C109.623 23.784 110.023 23.6773 110.343 23.464C110.674 23.24 110.919 22.9413 111.079 22.568H112.775C112.562 23.3147 112.135 23.9387 111.495 24.44C110.866 24.9413 110.082 25.192 109.143 25.192ZM109.143 18.264C108.578 18.264 108.077 18.4347 107.639 18.776C107.202 19.1067 106.935 19.608 106.839 20.28H111.319C111.287 19.6613 111.069 19.1707 110.663 18.808C110.258 18.4453 109.751 18.264 109.143 18.264Z" fill="white"/>
</svg>
