<svg width="16" height="16" viewBox="0 0 16 16" fill="none" xmlns="http://www.w3.org/2000/svg">
<path d="M12.0003 1.33325H4.00033C3.26699 1.33325 2.66699 1.93325 2.66699 2.66659V13.9999C2.66699 14.2399 2.79366 14.4599 3.00033 14.5799C3.20699 14.6999 3.46033 14.6999 3.66699 14.5799L8.00033 12.0999L12.3337 14.5799C12.4337 14.6399 12.547 14.6666 12.667 14.6666C12.787 14.6666 12.9003 14.6399 13.0003 14.5799C13.207 14.4599 13.3337 14.2399 13.3337 13.9999V2.66659C13.3337 1.93325 12.7337 1.33325 12.0003 1.33325ZM12.0003 6.66658V12.8533L8.33366 10.7599C8.23355 10.7013 8.11965 10.6705 8.00366 10.6705C7.88767 10.6705 7.77377 10.7013 7.67366 10.7599L4.00699 12.8533V2.66659H12.007V6.66658H12.0003Z" fill="#808080"/>
</svg>
