<svg width="92" height="40" viewBox="0 0 92 40" fill="none" xmlns="http://www.w3.org/2000/svg">
<rect width="40" height="40" rx="20" fill="#E9E8E7"/>
<path d="M16 12C14.9391 12 13.9217 12.4214 13.1716 13.1716C12.4214 13.9217 12 14.9391 12 16C12 17.0609 12.4214 18.0783 13.1716 18.8284C13.9217 19.5786 14.9391 20 16 20C17.0609 20 18.0783 19.5786 18.8284 18.8284C19.5786 18.0783 20 17.0609 20 16C20 14.9391 19.5786 13.9217 18.8284 13.1716C18.0783 12.4214 17.0609 12 16 12ZM11 28H21C21.55 28 22 27.55 22 27V26C22 23.24 19.76 21 17 21H15C12.24 21 10 23.24 10 26V27C10 27.55 10.45 28 11 28ZM29 19.5C29 17.5 27.5 16 25.5 16C23.5 16 22 17.5 22 19.5C22 21.5 23.5 23 25.5 23C26.12 23 26.68 22.84 27.17 22.58L29.29 24.7L30.7 23.29L28.58 21.17C28.84 20.68 29 20.12 29 19.5ZM25.5 21C24.62 21 24 20.38 24 19.5C24 18.62 24.62 18 25.5 18C26.38 18 27 18.62 27 19.5C27 20.38 26.38 21 25.5 21Z" fill="black"/>
<rect x="52" width="40" height="40" rx="20" fill="#E9E8E7"/>
<path d="M77 28.3334C76.3056 28.3334 75.7153 28.0904 75.2292 27.6042C74.7431 27.1181 74.5 26.5279 74.5 25.8334C74.5 25.7501 74.5208 25.5556 74.5625 25.2501L68.7083 21.8334C68.4861 22.0417 68.2292 22.2049 67.9375 22.323C67.6458 22.4411 67.3333 22.5001 67 22.5001C66.3056 22.5001 65.7153 22.257 65.2292 21.7709C64.7431 21.2848 64.5 20.6945 64.5 20.0001C64.5 19.3056 64.7431 18.7154 65.2292 18.2292C65.7153 17.7431 66.3056 17.5001 67 17.5001C67.3333 17.5001 67.6458 17.5591 67.9375 17.6772C68.2292 17.7952 68.4861 17.9584 68.7083 18.1667L74.5625 14.7501C74.5347 14.6529 74.5174 14.5591 74.5104 14.4688C74.5035 14.3786 74.5 14.2779 74.5 14.1667C74.5 13.4723 74.7431 12.882 75.2292 12.3959C75.7153 11.9098 76.3056 11.6667 77 11.6667C77.6944 11.6667 78.2847 11.9098 78.7708 12.3959C79.2569 12.882 79.5 13.4723 79.5 14.1667C79.5 14.8612 79.2569 15.4515 78.7708 15.9376C78.2847 16.4237 77.6944 16.6667 77 16.6667C76.6667 16.6667 76.3542 16.6077 76.0625 16.4897C75.7708 16.3716 75.5139 16.2084 75.2917 16.0001L69.4375 19.4167C69.4653 19.514 69.4826 19.6077 69.4896 19.698C69.4965 19.7883 69.5 19.889 69.5 20.0001C69.5 20.1112 69.4965 20.2119 69.4896 20.3022C69.4826 20.3924 69.4653 20.4862 69.4375 20.5834L75.2917 24.0001C75.5139 23.7917 75.7708 23.6286 76.0625 23.5105C76.3542 23.3924 76.6667 23.3334 77 23.3334C77.6944 23.3334 78.2847 23.5765 78.7708 24.0626C79.2569 24.5487 79.5 25.139 79.5 25.8334C79.5 26.5279 79.2569 27.1181 78.7708 27.6042C78.2847 28.0904 77.6944 28.3334 77 28.3334Z" fill="#1B1C1C"/>
</svg>
