<svg width="341" height="704" viewBox="0 0 341 704" fill="none" xmlns="http://www.w3.org/2000/svg">
<rect width="341" height="704" fill="white"/>
<path d="M31.338 63L34.692 53.9H36.2L39.528 63H38.072L37.292 60.777H33.574L32.794 63H31.338ZM33.964 59.685H36.902L35.433 55.538L33.964 59.685ZM44.45 63.156C43.7827 63.156 43.1977 63.039 42.695 62.805C42.1924 62.571 41.798 62.2373 41.512 61.804C41.2347 61.3707 41.0917 60.855 41.083 60.257H42.539C42.5477 60.7423 42.7167 61.154 43.046 61.492C43.3754 61.83 43.839 61.999 44.437 61.999C44.9657 61.999 45.3774 61.8733 45.672 61.622C45.9754 61.362 46.127 61.0327 46.127 60.634C46.127 60.3133 46.0534 60.0533 45.906 59.854C45.7674 59.6547 45.5724 59.49 45.321 59.36C45.0784 59.23 44.7967 59.113 44.476 59.009C44.1554 58.905 43.8174 58.7923 43.462 58.671C42.76 58.437 42.2314 58.1337 41.876 57.761C41.5294 57.3883 41.356 56.8987 41.356 56.292C41.3474 55.7807 41.4644 55.3343 41.707 54.953C41.9584 54.5717 42.305 54.277 42.747 54.069C43.1977 53.8523 43.722 53.744 44.32 53.744C44.9094 53.744 45.425 53.8523 45.867 54.069C46.3177 54.2857 46.6687 54.589 46.92 54.979C47.1714 55.3603 47.3014 55.8067 47.31 56.318H45.854C45.854 56.084 45.7934 55.863 45.672 55.655C45.5507 55.4383 45.373 55.2607 45.139 55.122C44.905 54.9833 44.619 54.914 44.281 54.914C43.8477 54.9053 43.488 55.0137 43.202 55.239C42.9247 55.4643 42.786 55.7763 42.786 56.175C42.786 56.5303 42.89 56.8033 43.098 56.994C43.306 57.1847 43.592 57.345 43.956 57.475C44.32 57.5963 44.736 57.7393 45.204 57.904C45.6547 58.0513 46.0577 58.229 46.413 58.437C46.7684 58.645 47.05 58.918 47.258 59.256C47.4747 59.594 47.583 60.023 47.583 60.543C47.583 61.0023 47.466 61.4313 47.232 61.83C46.998 62.22 46.647 62.5407 46.179 62.792C45.711 63.0347 45.1347 63.156 44.45 63.156ZM52.7426 63.156C52.0753 63.156 51.4903 63.039 50.9876 62.805C50.4849 62.571 50.0906 62.2373 49.8046 61.804C49.5273 61.3707 49.3843 60.855 49.3756 60.257H50.8316C50.8403 60.7423 51.0093 61.154 51.3386 61.492C51.6679 61.83 52.1316 61.999 52.7296 61.999C53.2583 61.999 53.6699 61.8733 53.9646 61.622C54.2679 61.362 54.4196 61.0327 54.4196 60.634C54.4196 60.3133 54.3459 60.0533 54.1986 59.854C54.0599 59.6547 53.8649 59.49 53.6136 59.36C53.3709 59.23 53.0893 59.113 52.7686 59.009C52.4479 58.905 52.1099 58.7923 51.7546 58.671C51.0526 58.437 50.5239 58.1337 50.1686 57.761C49.8219 57.3883 49.6486 56.8987 49.6486 56.292C49.6399 55.7807 49.7569 55.3343 49.9996 54.953C50.2509 54.5717 50.5976 54.277 51.0396 54.069C51.4903 53.8523 52.0146 53.744 52.6126 53.744C53.2019 53.744 53.7176 53.8523 54.1596 54.069C54.6103 54.2857 54.9613 54.589 55.2126 54.979C55.4639 55.3603 55.5939 55.8067 55.6026 56.318H54.1466C54.1466 56.084 54.0859 55.863 53.9646 55.655C53.8433 55.4383 53.6656 55.2607 53.4316 55.122C53.1976 54.9833 52.9116 54.914 52.5736 54.914C52.1403 54.9053 51.7806 55.0137 51.4946 55.239C51.2173 55.4643 51.0786 55.7763 51.0786 56.175C51.0786 56.5303 51.1826 56.8033 51.3906 56.994C51.5986 57.1847 51.8846 57.345 52.2486 57.475C52.6126 57.5963 53.0286 57.7393 53.4966 57.904C53.9473 58.0513 54.3503 58.229 54.7056 58.437C55.0609 58.645 55.3426 58.918 55.5506 59.256C55.7673 59.594 55.8756 60.023 55.8756 60.543C55.8756 61.0023 55.7586 61.4313 55.5246 61.83C55.2906 62.22 54.9396 62.5407 54.4716 62.792C54.0036 63.0347 53.4273 63.156 52.7426 63.156ZM58.0322 63V53.9H63.8172V55.018H59.4102V57.852H63.4272V58.944H59.4102V61.882H63.8172V63H58.0322ZM68.2409 63V55.018H65.5499V53.9H72.2969V55.018H69.6189V63H68.2409ZM77.0744 63.156C76.4071 63.156 75.8221 63.039 75.3194 62.805C74.8168 62.571 74.4224 62.2373 74.1364 61.804C73.8591 61.3707 73.7161 60.855 73.7074 60.257H75.1634C75.1721 60.7423 75.3411 61.154 75.6704 61.492C75.9998 61.83 76.4634 61.999 77.0614 61.999C77.5901 61.999 78.0018 61.8733 78.2964 61.622C78.5998 61.362 78.7514 61.0327 78.7514 60.634C78.7514 60.3133 78.6778 60.0533 78.5304 59.854C78.3918 59.6547 78.1968 59.49 77.9454 59.36C77.7028 59.23 77.4211 59.113 77.1004 59.009C76.7798 58.905 76.4418 58.7923 76.0864 58.671C75.3844 58.437 74.8558 58.1337 74.5004 57.761C74.1538 57.3883 73.9804 56.8987 73.9804 56.292C73.9718 55.7807 74.0888 55.3343 74.3314 54.953C74.5828 54.5717 74.9294 54.277 75.3714 54.069C75.8221 53.8523 76.3464 53.744 76.9444 53.744C77.5338 53.744 78.0494 53.8523 78.4914 54.069C78.9421 54.2857 79.2931 54.589 79.5444 54.979C79.7958 55.3603 79.9258 55.8067 79.9344 56.318H78.4784C78.4784 56.084 78.4178 55.863 78.2964 55.655C78.1751 55.4383 77.9974 55.2607 77.7634 55.122C77.5294 54.9833 77.2434 54.914 76.9054 54.914C76.4721 54.9053 76.1124 55.0137 75.8264 55.239C75.5491 55.4643 75.4104 55.7763 75.4104 56.175C75.4104 56.5303 75.5144 56.8033 75.7224 56.994C75.9304 57.1847 76.2164 57.345 76.5804 57.475C76.9444 57.5963 77.3604 57.7393 77.8284 57.904C78.2791 58.0513 78.6821 58.229 79.0374 58.437C79.3928 58.645 79.6744 58.918 79.8824 59.256C80.0991 59.594 80.2074 60.023 80.2074 60.543C80.2074 61.0023 80.0904 61.4313 79.8564 61.83C79.6224 62.22 79.2714 62.5407 78.8034 62.792C78.3354 63.0347 77.7591 63.156 77.0744 63.156Z" fill="#838484"/>
<rect x="15" y="76" width="310" height="208" rx="7" fill="#F9F9F9"/>
<mask id="path-3-inside-1_395_4420" fill="white">
<path d="M15 76H325V128H15V76Z"/>
</mask>
<path d="M325 128V127H15V128V129H325V128Z" fill="black" fill-opacity="0.06" mask="url(#path-3-inside-1_395_4420)"/>
<path d="M39.5961 109.302L34.6538 106.446C34.3692 106.282 34.1474 106.063 33.9884 105.788C33.8295 105.514 33.75 105.213 33.75 104.885V99.173C33.75 98.8448 33.8295 98.5436 33.9884 98.2692C34.1474 97.9948 34.3692 97.7756 34.6538 97.6115L39.5961 94.7557C39.8807 94.5916 40.182 94.5096 40.5 94.5096C40.8179 94.5096 41.1192 94.5916 41.4038 94.7557L46.3461 97.6115C46.6307 97.7756 46.8525 97.9948 47.0115 98.2692C47.1705 98.5436 47.2499 98.8448 47.2499 99.173V104.885C47.2499 105.213 47.1705 105.514 47.0115 105.788C46.8525 106.063 46.6307 106.282 46.3461 106.446L41.4038 109.302C41.1192 109.466 40.8179 109.548 40.5 109.548C40.182 109.548 39.8807 109.466 39.5961 109.302ZM39.75 107.665V102.45L35.2499 99.8653V104.885C35.2499 104.936 35.2628 104.984 35.2884 105.029C35.3141 105.074 35.3525 105.112 35.4038 105.144L39.75 107.665ZM41.2499 107.665L45.5961 105.144C45.6474 105.112 45.6859 105.074 45.7115 105.029C45.7372 104.984 45.75 104.936 45.75 104.885V99.8653L41.2499 102.45V107.665ZM31 97V94.3077C31 93.809 31.1766 93.383 31.5298 93.0298C31.883 92.6766 32.309 92.5 32.8077 92.5H35.5V94H32.8077C32.7179 94 32.6442 94.0288 32.5865 94.0865C32.5288 94.1442 32.5 94.2179 32.5 94.3077V97H31ZM35.5 111.5H32.8077C32.309 111.5 31.883 111.323 31.5298 110.97C31.1766 110.617 31 110.191 31 109.692V107H32.5V109.692C32.5 109.782 32.5288 109.856 32.5865 109.913C32.6442 109.971 32.7179 110 32.8077 110H35.5V111.5ZM45.5 111.5V110H48.1922C48.282 110 48.3557 109.971 48.4134 109.913C48.4711 109.856 48.5 109.782 48.5 109.692V107H49.9999V109.692C49.9999 110.191 49.8233 110.617 49.4701 110.97C49.1169 111.323 48.691 111.5 48.1922 111.5H45.5ZM48.5 97V94.3077C48.5 94.2179 48.4711 94.1442 48.4134 94.0865C48.3557 94.0288 48.282 94 48.1922 94H45.5V92.5H48.1922C48.691 92.5 49.1169 92.6766 49.4701 93.0298C49.8233 93.383 49.9999 93.809 49.9999 94.3077V97H48.5ZM40.5 101.158L44.9692 98.5538L40.6538 96.0673C40.6025 96.0352 40.5512 96.0192 40.5 96.0192C40.4487 96.0192 40.3974 96.0352 40.3461 96.0673L36.0307 98.5538L40.5 101.158Z" fill="#1A1C1C"/>
<path d="M64.2955 96.3636L67.5341 105.841H67.6648L70.9034 96.3636H72.8011L68.6136 108H66.5852L62.3977 96.3636H64.2955ZM74.3215 108V96.3636H78.4693C79.3708 96.3636 80.1189 96.5189 80.7136 96.8295C81.3121 97.1402 81.759 97.5701 82.0545 98.1193C82.3499 98.6648 82.4977 99.2955 82.4977 100.011C82.4977 100.723 82.348 101.35 82.0488 101.892C81.7534 102.43 81.3064 102.848 80.7079 103.148C80.1132 103.447 79.3651 103.597 78.4636 103.597H75.3215V102.085H78.3045C78.8727 102.085 79.3348 102.004 79.6909 101.841C80.0507 101.678 80.314 101.441 80.4806 101.131C80.6473 100.82 80.7306 100.447 80.7306 100.011C80.7306 99.572 80.6454 99.1913 80.4749 98.8693C80.3083 98.5473 80.045 98.3011 79.6852 98.1307C79.3291 97.9564 78.8613 97.8693 78.2818 97.8693H76.0772V108H74.3215ZM80.0659 102.75L82.9409 108H80.9409L78.1227 102.75H80.0659Z" fill="#1A1C1C"/>
<path d="M306.892 102L302.292 97.4L303.346 96.3462L309 102L303.346 107.654L302.292 106.6L306.892 102Z" fill="#C4C7C7"/>
<mask id="path-8-inside-2_395_4420" fill="white">
<path d="M15 128H325V180H15V128Z"/>
</mask>
<path d="M325 180V179H15V180V181H325V180Z" fill="black" fill-opacity="0.06" mask="url(#path-8-inside-2_395_4420)"/>
<path d="M34.8333 163.021H44C45.0083 163.021 45.8333 162.196 45.8333 161.188V146.521C45.8333 145.512 45.0083 144.688 44 144.688H34.8333C33.825 144.688 33 145.512 33 146.521V161.188C33 162.196 33.825 163.021 34.8333 163.021ZM34.8333 146.521H44V161.188H34.8333V146.521Z" fill="black"/>
<path d="M36.6667 150.188C36.4236 150.188 36.1904 150.284 36.0185 150.456C35.8466 150.628 35.75 150.861 35.75 151.104C35.75 151.347 35.8466 151.58 36.0185 151.752C36.1904 151.924 36.4236 152.021 36.6667 152.021C36.9098 152.021 37.1429 151.924 37.3148 151.752C37.4868 151.58 37.5833 151.347 37.5833 151.104C37.5833 150.861 37.4868 150.628 37.3148 150.456C37.1429 150.284 36.9098 150.188 36.6667 150.188ZM38.7933 148.748C38.5502 148.748 38.3171 148.845 38.1452 149.017C37.9732 149.189 37.8767 149.422 37.8767 149.665C37.8767 149.908 37.9732 150.141 38.1452 150.313C38.3171 150.485 38.5502 150.582 38.7933 150.582C39.0364 150.582 39.2696 150.485 39.4415 150.313C39.6134 150.141 39.71 149.908 39.71 149.665C39.71 149.422 39.6134 149.189 39.4415 149.017C39.2696 148.845 39.0364 148.748 38.7933 148.748ZM36.6667 147.438C36.4236 147.438 36.1904 147.534 36.0185 147.706C35.8466 147.878 35.75 148.111 35.75 148.354C35.75 148.597 35.8466 148.83 36.0185 149.002C36.1904 149.174 36.4236 149.271 36.6667 149.271C36.9098 149.271 37.1429 149.174 37.3148 149.002C37.4868 148.83 37.5833 148.597 37.5833 148.354C37.5833 148.111 37.4868 147.878 37.3148 147.706C37.1429 147.534 36.9098 147.438 36.6667 147.438Z" fill="black"/>
<path d="M67.0455 160H63.2784V148.364H67.1648C68.3049 148.364 69.2841 148.597 70.1023 149.062C70.9205 149.525 71.5473 150.189 71.983 151.057C72.4223 151.92 72.642 152.956 72.642 154.165C72.642 155.377 72.4205 156.419 71.9773 157.29C71.5379 158.161 70.9015 158.831 70.0682 159.301C69.2348 159.767 68.2273 160 67.0455 160ZM65.0341 158.466H66.9489C67.8352 158.466 68.572 158.299 69.1591 157.966C69.7462 157.629 70.1856 157.142 70.4773 156.506C70.7689 155.866 70.9148 155.085 70.9148 154.165C70.9148 153.252 70.7689 152.477 70.4773 151.841C70.1894 151.205 69.7595 150.722 69.1875 150.392C68.6155 150.062 67.9053 149.898 67.0568 149.898H65.0341V158.466ZM78.2903 160.176C77.4304 160.176 76.6899 159.992 76.0687 159.625C75.4513 159.254 74.974 158.733 74.6369 158.062C74.3035 157.388 74.1369 156.598 74.1369 155.693C74.1369 154.799 74.3035 154.011 74.6369 153.33C74.974 152.648 75.4437 152.116 76.046 151.733C76.652 151.35 77.3604 151.159 78.171 151.159C78.6634 151.159 79.1407 151.241 79.6028 151.403C80.0649 151.566 80.4797 151.822 80.8471 152.17C81.2145 152.519 81.5043 152.972 81.7164 153.528C81.9285 154.081 82.0346 154.754 82.0346 155.545V156.148H75.0971V154.875H80.3698C80.3698 154.428 80.2789 154.032 80.0971 153.688C79.9153 153.339 79.6596 153.064 79.3301 152.864C79.0043 152.663 78.6217 152.562 78.1823 152.562C77.7051 152.562 77.2884 152.68 76.9323 152.915C76.5801 153.146 76.3073 153.449 76.1141 153.824C75.9248 154.195 75.8301 154.598 75.8301 155.034V156.028C75.8301 156.612 75.9323 157.108 76.1369 157.517C76.3452 157.926 76.635 158.239 77.0062 158.455C77.3774 158.667 77.8111 158.773 78.3073 158.773C78.6293 158.773 78.9229 158.727 79.188 158.636C79.4532 158.542 79.6823 158.402 79.8755 158.216C80.0687 158.03 80.2164 157.801 80.3187 157.528L81.9266 157.818C81.7979 158.292 81.5668 158.706 81.2335 159.062C80.9039 159.415 80.4891 159.689 79.9891 159.886C79.4929 160.08 78.9266 160.176 78.2903 160.176ZM90.9755 151.273L87.8107 160H85.9925L82.822 151.273H84.6459L86.8561 157.989H86.947L89.1516 151.273H90.9755ZM92.412 160V151.273H94.1109V160H92.412ZM93.27 149.926C92.9745 149.926 92.7208 149.828 92.5086 149.631C92.3003 149.43 92.1961 149.191 92.1961 148.915C92.1961 148.634 92.3003 148.396 92.5086 148.199C92.7208 147.998 92.9745 147.898 93.27 147.898C93.5655 147.898 93.8173 147.998 94.0257 148.199C94.2378 148.396 94.3439 148.634 94.3439 148.915C94.3439 149.191 94.2378 149.43 94.0257 149.631C93.8173 149.828 93.5655 149.926 93.27 149.926ZM99.9126 160.176C99.0679 160.176 98.3406 159.985 97.7307 159.602C97.1247 159.216 96.6588 158.684 96.333 158.006C96.0073 157.328 95.8444 156.551 95.8444 155.676C95.8444 154.79 96.011 154.008 96.3444 153.33C96.6777 152.648 97.1474 152.116 97.7535 151.733C98.3595 151.35 99.0735 151.159 99.8955 151.159C100.558 151.159 101.149 151.282 101.668 151.528C102.187 151.771 102.606 152.112 102.924 152.551C103.246 152.991 103.437 153.504 103.498 154.091H101.844C101.753 153.682 101.545 153.33 101.219 153.034C100.897 152.739 100.466 152.591 99.9239 152.591C99.4504 152.591 99.0357 152.716 98.6796 152.966C98.3273 153.212 98.0527 153.564 97.8557 154.023C97.6588 154.477 97.5603 155.015 97.5603 155.636C97.5603 156.273 97.6569 156.822 97.8501 157.284C98.0432 157.746 98.316 158.104 98.6682 158.358C99.0243 158.612 99.4429 158.739 99.9239 158.739C100.246 158.739 100.538 158.68 100.799 158.562C101.064 158.441 101.286 158.269 101.464 158.045C101.646 157.822 101.772 157.553 101.844 157.239H103.498C103.437 157.803 103.253 158.307 102.947 158.75C102.64 159.193 102.229 159.542 101.714 159.795C101.202 160.049 100.602 160.176 99.9126 160.176ZM108.916 160.176C108.056 160.176 107.316 159.992 106.694 159.625C106.077 159.254 105.6 158.733 105.263 158.062C104.929 157.388 104.763 156.598 104.763 155.693C104.763 154.799 104.929 154.011 105.263 153.33C105.6 152.648 106.069 152.116 106.672 151.733C107.278 151.35 107.986 151.159 108.797 151.159C109.289 151.159 109.766 151.241 110.228 151.403C110.691 151.566 111.105 151.822 111.473 152.17C111.84 152.519 112.13 152.972 112.342 153.528C112.554 154.081 112.66 154.754 112.66 155.545V156.148H105.723V154.875H110.995C110.995 154.428 110.905 154.032 110.723 153.688C110.541 153.339 110.285 153.064 109.956 152.864C109.63 152.663 109.247 152.562 108.808 152.562C108.331 152.562 107.914 152.68 107.558 152.915C107.206 153.146 106.933 153.449 106.74 153.824C106.55 154.195 106.456 154.598 106.456 155.034V156.028C106.456 156.612 106.558 157.108 106.763 157.517C106.971 157.926 107.261 158.239 107.632 158.455C108.003 158.667 108.437 158.773 108.933 158.773C109.255 158.773 109.548 158.727 109.814 158.636C110.079 158.542 110.308 158.402 110.501 158.216C110.694 158.03 110.842 157.801 110.944 157.528L112.552 157.818C112.423 158.292 112.192 158.706 111.859 159.062C111.53 159.415 111.115 159.689 110.615 159.886C110.119 160.08 109.552 160.176 108.916 160.176ZM120.925 153.403L119.385 153.676C119.321 153.479 119.219 153.292 119.078 153.114C118.942 152.936 118.756 152.79 118.522 152.676C118.287 152.562 117.993 152.506 117.641 152.506C117.16 152.506 116.758 152.614 116.436 152.83C116.114 153.042 115.953 153.316 115.953 153.653C115.953 153.945 116.061 154.18 116.277 154.358C116.493 154.536 116.842 154.682 117.323 154.795L118.709 155.114C119.512 155.299 120.111 155.585 120.504 155.972C120.898 156.358 121.095 156.86 121.095 157.477C121.095 158 120.944 158.466 120.641 158.875C120.342 159.28 119.923 159.598 119.385 159.83C118.851 160.061 118.232 160.176 117.527 160.176C116.55 160.176 115.753 159.968 115.135 159.551C114.518 159.131 114.139 158.534 113.999 157.761L115.641 157.511C115.743 157.939 115.953 158.263 116.272 158.483C116.59 158.699 117.004 158.807 117.516 158.807C118.073 158.807 118.518 158.691 118.851 158.46C119.184 158.225 119.351 157.939 119.351 157.602C119.351 157.33 119.249 157.1 119.044 156.915C118.844 156.729 118.535 156.589 118.118 156.494L116.641 156.17C115.826 155.985 115.224 155.689 114.834 155.284C114.448 154.879 114.254 154.366 114.254 153.744C114.254 153.229 114.398 152.778 114.686 152.392C114.974 152.006 115.372 151.705 115.879 151.489C116.387 151.269 116.969 151.159 117.624 151.159C118.567 151.159 119.309 151.364 119.851 151.773C120.393 152.178 120.751 152.722 120.925 153.403Z" fill="#1A1C1C"/>
<path d="M306.892 154L302.292 149.4L303.346 148.346L309 154L303.346 159.654L302.292 158.6L306.892 154Z" fill="#C4C7C7"/>
<mask id="path-14-inside-3_395_4420" fill="white">
<path d="M15 180H325V232H15V180Z"/>
</mask>
<path d="M325 232V231H15V232V233H325V232Z" fill="black" fill-opacity="0.06" mask="url(#path-14-inside-3_395_4420)"/>
<path fill-rule="evenodd" clip-rule="evenodd" d="M40.8542 197.375C36.1713 197.375 32.375 201.171 32.375 205.854C32.375 210.537 36.1713 214.333 40.8542 214.333C45.537 214.333 49.3333 210.537 49.3333 205.854C49.3333 201.171 45.537 197.375 40.8542 197.375ZM31 205.854C31 200.412 35.4119 196 40.8542 196C46.2965 196 50.7083 200.412 50.7083 205.854C50.7083 211.297 46.2965 215.708 40.8542 215.708C35.4119 215.708 31 211.297 31 205.854ZM40.8542 199.667C41.2338 199.667 41.5417 199.974 41.5417 200.354V200.645C43.0362 200.912 44.2917 202.035 44.2917 203.562C44.2917 203.942 43.9838 204.25 43.6042 204.25C43.2245 204.25 42.9167 203.942 42.9167 203.562C42.9167 202.941 42.3996 202.282 41.5417 202.048V205.228C43.0362 205.495 44.2917 206.618 44.2917 208.146C44.2917 209.673 43.0362 210.796 41.5417 211.064V211.354C41.5417 211.734 41.2338 212.042 40.8542 212.042C40.4745 212.042 40.1667 211.734 40.1667 211.354V211.064C38.6721 210.796 37.4167 209.673 37.4167 208.146C37.4167 207.766 37.7245 207.458 38.1042 207.458C38.4839 207.458 38.7917 207.766 38.7917 208.146C38.7917 208.768 39.3088 209.426 40.1667 209.661V206.481C38.6721 206.213 37.4167 205.09 37.4167 203.562C37.4167 202.035 38.6721 200.912 40.1667 200.645V200.354C40.1667 199.974 40.4745 199.667 40.8542 199.667ZM40.1667 202.048C39.3088 202.282 38.7917 202.941 38.7917 203.562C38.7917 204.184 39.3088 204.843 40.1667 205.077V202.048ZM41.5417 206.631V209.661C42.3996 209.426 42.9167 208.768 42.9167 208.146C42.9167 207.524 42.3996 206.866 41.5417 206.631Z" fill="black"/>
<path d="M64.2955 200.364L67.5341 209.841H67.6648L70.9034 200.364H72.8011L68.6136 212H66.5852L62.3977 200.364H64.2955ZM75.259 215.273C75.0052 215.273 74.7742 215.252 74.5659 215.21C74.3575 215.172 74.2022 215.131 74.0999 215.085L74.509 213.693C74.8196 213.777 75.0962 213.813 75.3386 213.801C75.581 213.79 75.795 213.699 75.9806 213.528C76.17 213.358 76.3367 213.08 76.4806 212.693L76.6909 212.114L73.4977 203.273H75.3159L77.5261 210.045H77.617L79.8272 203.273H81.6511L78.0545 213.165C77.8878 213.619 77.6757 214.004 77.4181 214.318C77.1605 214.636 76.8537 214.875 76.4977 215.034C76.1416 215.193 75.7287 215.273 75.259 215.273ZM86.4669 212.176C85.6488 212.176 84.9347 211.989 84.3249 211.614C83.715 211.239 83.2416 210.714 82.9044 210.04C82.5673 209.366 82.3988 208.578 82.3988 207.676C82.3988 206.771 82.5673 205.979 82.9044 205.301C83.2416 204.623 83.715 204.097 84.3249 203.722C84.9347 203.347 85.6488 203.159 86.4669 203.159C87.2851 203.159 87.9991 203.347 88.609 203.722C89.2188 204.097 89.6923 204.623 90.0294 205.301C90.3666 205.979 90.5351 206.771 90.5351 207.676C90.5351 208.578 90.3666 209.366 90.0294 210.04C89.6923 210.714 89.2188 211.239 88.609 211.614C87.9991 211.989 87.2851 212.176 86.4669 212.176ZM86.4726 210.75C87.0029 210.75 87.4423 210.61 87.7908 210.33C88.1393 210.049 88.3969 209.676 88.5635 209.21C88.734 208.744 88.8192 208.231 88.8192 207.67C88.8192 207.114 88.734 206.602 88.5635 206.136C88.3969 205.667 88.1393 205.29 87.7908 205.006C87.4423 204.722 87.0029 204.58 86.4726 204.58C85.9385 204.58 85.4953 204.722 85.1431 205.006C84.7946 205.29 84.5351 205.667 84.3647 206.136C84.198 206.602 84.1147 207.114 84.1147 207.67C84.1147 208.231 84.198 208.744 84.3647 209.21C84.5351 209.676 84.7946 210.049 85.1431 210.33C85.4953 210.61 85.9385 210.75 86.4726 210.75ZM95.9476 212.176C95.1294 212.176 94.4154 211.989 93.8055 211.614C93.1957 211.239 92.7222 210.714 92.3851 210.04C92.0479 209.366 91.8794 208.578 91.8794 207.676C91.8794 206.771 92.0479 205.979 92.3851 205.301C92.7222 204.623 93.1957 204.097 93.8055 203.722C94.4154 203.347 95.1294 203.159 95.9476 203.159C96.7657 203.159 97.4798 203.347 98.0896 203.722C98.6995 204.097 99.1729 204.623 99.5101 205.301C99.8472 205.979 100.016 206.771 100.016 207.676C100.016 208.578 99.8472 209.366 99.5101 210.04C99.1729 210.714 98.6995 211.239 98.0896 211.614C97.4798 211.989 96.7657 212.176 95.9476 212.176ZM95.9532 210.75C96.4835 210.75 96.9229 210.61 97.2714 210.33C97.6199 210.049 97.8775 209.676 98.0441 209.21C98.2146 208.744 98.2998 208.231 98.2998 207.67C98.2998 207.114 98.2146 206.602 98.0441 206.136C97.8775 205.667 97.6199 205.29 97.2714 205.006C96.9229 204.722 96.4835 204.58 95.9532 204.58C95.4191 204.58 94.976 204.722 94.6237 205.006C94.2752 205.29 94.0157 205.667 93.8453 206.136C93.6786 206.602 93.5953 207.114 93.5953 207.67C93.5953 208.231 93.6786 208.744 93.8453 209.21C94.0157 209.676 94.2752 210.049 94.6237 210.33C94.976 210.61 95.4191 210.75 95.9532 210.75ZM111.996 206.182C111.996 207.424 111.769 208.492 111.315 209.386C110.86 210.277 110.237 210.962 109.445 211.443C108.657 211.92 107.762 212.159 106.758 212.159C105.75 212.159 104.851 211.92 104.059 211.443C103.271 210.962 102.65 210.275 102.195 209.381C101.741 208.487 101.513 207.42 101.513 206.182C101.513 204.939 101.741 203.873 102.195 202.983C102.65 202.089 103.271 201.403 104.059 200.926C104.851 200.445 105.75 200.205 106.758 200.205C107.762 200.205 108.657 200.445 109.445 200.926C110.237 201.403 110.86 202.089 111.315 202.983C111.769 203.873 111.996 204.939 111.996 206.182ZM110.258 206.182C110.258 205.235 110.104 204.437 109.798 203.79C109.494 203.138 109.078 202.646 108.548 202.312C108.021 201.975 107.424 201.807 106.758 201.807C106.087 201.807 105.489 201.975 104.962 202.312C104.436 202.646 104.019 203.138 103.712 203.79C103.409 204.437 103.258 205.235 103.258 206.182C103.258 207.129 103.409 207.928 103.712 208.58C104.019 209.227 104.436 209.72 104.962 210.057C105.489 210.39 106.087 210.557 106.758 210.557C107.424 210.557 108.021 210.39 108.548 210.057C109.078 209.72 109.494 209.227 109.798 208.58C110.104 207.928 110.258 207.129 110.258 206.182ZM127.764 204.148H125.992C125.924 203.769 125.797 203.436 125.611 203.148C125.425 202.86 125.198 202.616 124.929 202.415C124.66 202.214 124.359 202.062 124.026 201.96C123.696 201.858 123.346 201.807 122.975 201.807C122.304 201.807 121.704 201.975 121.174 202.312C120.647 202.65 120.23 203.144 119.924 203.795C119.62 204.447 119.469 205.242 119.469 206.182C119.469 207.129 119.62 207.928 119.924 208.58C120.23 209.231 120.649 209.723 121.179 210.057C121.71 210.39 122.306 210.557 122.969 210.557C123.336 210.557 123.685 210.508 124.014 210.409C124.348 210.307 124.649 210.157 124.918 209.96C125.187 209.763 125.414 209.523 125.6 209.239C125.789 208.951 125.92 208.621 125.992 208.25L127.764 208.256C127.67 208.828 127.486 209.354 127.213 209.835C126.944 210.312 126.598 210.725 126.174 211.074C125.753 211.419 125.272 211.686 124.73 211.875C124.189 212.064 123.598 212.159 122.958 212.159C121.95 212.159 121.052 211.92 120.264 211.443C119.477 210.962 118.855 210.275 118.401 209.381C117.95 208.487 117.725 207.42 117.725 206.182C117.725 204.939 117.952 203.873 118.406 202.983C118.861 202.089 119.482 201.403 120.27 200.926C121.058 200.445 121.954 200.205 122.958 200.205C123.575 200.205 124.151 200.294 124.685 200.472C125.223 200.646 125.706 200.903 126.134 201.244C126.562 201.581 126.916 201.994 127.196 202.483C127.477 202.968 127.666 203.523 127.764 204.148ZM133.245 212.176C132.427 212.176 131.713 211.989 131.103 211.614C130.493 211.239 130.02 210.714 129.683 210.04C129.345 209.366 129.177 208.578 129.177 207.676C129.177 206.771 129.345 205.979 129.683 205.301C130.02 204.623 130.493 204.097 131.103 203.722C131.713 203.347 132.427 203.159 133.245 203.159C134.063 203.159 134.777 203.347 135.387 203.722C135.997 204.097 136.47 204.623 136.808 205.301C137.145 205.979 137.313 206.771 137.313 207.676C137.313 208.578 137.145 209.366 136.808 210.04C136.47 210.714 135.997 211.239 135.387 211.614C134.777 211.989 134.063 212.176 133.245 212.176ZM133.251 210.75C133.781 210.75 134.22 210.61 134.569 210.33C134.917 210.049 135.175 209.676 135.342 209.21C135.512 208.744 135.597 208.231 135.597 207.67C135.597 207.114 135.512 206.602 135.342 206.136C135.175 205.667 134.917 205.29 134.569 205.006C134.22 204.722 133.781 204.58 133.251 204.58C132.717 204.58 132.273 204.722 131.921 205.006C131.573 205.29 131.313 205.667 131.143 206.136C130.976 206.602 130.893 207.114 130.893 207.67C130.893 208.231 130.976 208.744 131.143 209.21C131.313 209.676 131.573 210.049 131.921 210.33C132.273 210.61 132.717 210.75 133.251 210.75ZM139.05 212V203.273H140.748V212H139.05ZM139.908 201.926C139.612 201.926 139.358 201.828 139.146 201.631C138.938 201.43 138.834 201.191 138.834 200.915C138.834 200.634 138.938 200.396 139.146 200.199C139.358 199.998 139.612 199.898 139.908 199.898C140.203 199.898 140.455 199.998 140.663 200.199C140.875 200.396 140.981 200.634 140.981 200.915C140.981 201.191 140.875 201.43 140.663 201.631C140.455 201.828 140.203 201.926 139.908 201.926ZM144.573 206.818V212H142.874V203.273H144.505V204.693H144.613C144.813 204.231 145.128 203.86 145.556 203.58C145.988 203.299 146.531 203.159 147.186 203.159C147.781 203.159 148.302 203.284 148.749 203.534C149.196 203.78 149.542 204.148 149.789 204.636C150.035 205.125 150.158 205.729 150.158 206.449V212H148.459V206.653C148.459 206.021 148.294 205.527 147.965 205.17C147.635 204.811 147.183 204.631 146.607 204.631C146.213 204.631 145.863 204.716 145.556 204.886C145.253 205.057 145.012 205.307 144.834 205.636C144.66 205.962 144.573 206.356 144.573 206.818Z" fill="#1A1C1C"/>
<path d="M306.892 206L302.292 201.4L303.346 200.346L309 206L303.346 211.654L302.292 210.6L306.892 206Z" fill="#C4C7C7"/>
<path d="M32.5 264V264.692C32.5 264.782 32.5 264.856 32.5 264.913C32.5 264.971 32.5 265 32.5 265C32.5 265 32.5 264.971 32.5 264.913C32.5 264.856 32.5 264.782 32.5 264.692V251.308C32.5 251.218 32.5 251.144 32.5 251.087C32.5 251.029 32.5 251 32.5 251C32.5 251 32.5 251.029 32.5 251.087C32.5 251.144 32.5 251.218 32.5 251.308V252C32.5 252 32.5 252.304 32.5 252.911C32.5 253.518 32.5 254.317 32.5 255.308V260.692C32.5 261.683 32.5 262.482 32.5 263.089C32.5 263.696 32.5 264 32.5 264ZM32.8077 266.5C32.309 266.5 31.883 266.323 31.5298 265.97C31.1766 265.617 31 265.191 31 264.692V251.308C31 250.809 31.1766 250.383 31.5298 250.03C31.883 249.677 32.309 249.5 32.8077 249.5H46.1922C46.691 249.5 47.1169 249.677 47.4701 250.03C47.8233 250.383 47.9999 250.809 47.9999 251.308V254.029H46.5V251.308C46.5 251.218 46.4711 251.144 46.4134 251.087C46.3557 251.029 46.282 251 46.1922 251H32.8077C32.7179 251 32.6442 251.029 32.5865 251.087C32.5288 251.144 32.5 251.218 32.5 251.308V264.692C32.5 264.782 32.5288 264.856 32.5865 264.913C32.6442 264.971 32.7179 265 32.8077 265H46.1922C46.282 265 46.3557 264.971 46.4134 264.913C46.4711 264.856 46.5 264.782 46.5 264.692V261.971H47.9999V264.692C47.9999 265.191 47.8233 265.617 47.4701 265.97C47.1169 266.323 46.691 266.5 46.1922 266.5H32.8077ZM40.8077 262.5C40.309 262.5 39.883 262.323 39.5298 261.97C39.1766 261.617 39 261.191 39 260.692V255.308C39 254.809 39.1766 254.383 39.5298 254.03C39.883 253.677 40.309 253.5 40.8077 253.5H47.1922C47.691 253.5 48.1169 253.677 48.4701 254.03C48.8233 254.383 48.9999 254.809 48.9999 255.308V260.692C48.9999 261.191 48.8233 261.617 48.4701 261.97C48.1169 262.323 47.691 262.5 47.1922 262.5H40.8077ZM47.1922 261C47.282 261 47.3557 260.971 47.4134 260.913C47.4711 260.856 47.5 260.782 47.5 260.692V255.308C47.5 255.218 47.4711 255.144 47.4134 255.087C47.3557 255.029 47.282 255 47.1922 255H40.8077C40.7179 255 40.6442 255.029 40.5865 255.087C40.5288 255.144 40.5 255.218 40.5 255.308V260.692C40.5 260.782 40.5288 260.856 40.5865 260.913C40.6442 260.971 40.7179 261 40.8077 261H47.1922ZM43.5 259.5C43.9166 259.5 44.2708 259.354 44.5625 259.062C44.8541 258.771 45 258.417 45 258C45 257.583 44.8541 257.229 44.5625 256.937C44.2708 256.646 43.9166 256.5 43.5 256.5C43.0833 256.5 42.7291 256.646 42.4375 256.937C42.1458 257.229 42 257.583 42 258C42 258.417 42.1458 258.771 42.4375 259.062C42.7291 259.354 43.0833 259.5 43.5 259.5Z" fill="#1A1C1C"/>
<path d="M62.2784 264V252.364H66.4261C67.3277 252.364 68.0758 252.519 68.6705 252.83C69.2689 253.14 69.7159 253.57 70.0114 254.119C70.3068 254.665 70.4545 255.295 70.4545 256.011C70.4545 256.723 70.3049 257.35 70.0057 257.892C69.7102 258.43 69.2633 258.848 68.6648 259.148C68.0701 259.447 67.322 259.597 66.4205 259.597H63.2784V258.085H66.2614C66.8295 258.085 67.2917 258.004 67.6477 257.841C68.0076 257.678 68.2708 257.441 68.4375 257.131C68.6042 256.82 68.6875 256.447 68.6875 256.011C68.6875 255.572 68.6023 255.191 68.4318 254.869C68.2652 254.547 68.0019 254.301 67.642 254.131C67.286 253.956 66.8182 253.869 66.2386 253.869H64.0341V264H62.2784ZM68.0227 258.75L70.8977 264H68.8977L66.0795 258.75H68.0227ZM75.9465 264.176C75.0867 264.176 74.3462 263.992 73.7249 263.625C73.1075 263.254 72.6302 262.733 72.2931 262.062C71.9598 261.388 71.7931 260.598 71.7931 259.693C71.7931 258.799 71.9598 258.011 72.2931 257.33C72.6302 256.648 73.0999 256.116 73.7022 255.733C74.3083 255.35 75.0166 255.159 75.8272 255.159C76.3196 255.159 76.7969 255.241 77.259 255.403C77.7212 255.566 78.1359 255.822 78.5034 256.17C78.8708 256.519 79.1605 256.972 79.3727 257.528C79.5848 258.081 79.6909 258.754 79.6909 259.545V260.148H72.7534V258.875H78.0261C78.0261 258.428 77.9352 258.032 77.7534 257.688C77.5715 257.339 77.3159 257.064 76.9863 256.864C76.6605 256.663 76.278 256.562 75.8386 256.562C75.3613 256.562 74.9446 256.68 74.5886 256.915C74.2363 257.146 73.9636 257.449 73.7704 257.824C73.581 258.195 73.4863 258.598 73.4863 259.034V260.028C73.4863 260.612 73.5886 261.108 73.7931 261.517C74.0015 261.926 74.2912 262.239 74.6624 262.455C75.0337 262.667 75.4674 262.773 75.9636 262.773C76.2855 262.773 76.5791 262.727 76.8443 262.636C77.1094 262.542 77.3386 262.402 77.5318 262.216C77.7249 262.03 77.8727 261.801 77.9749 261.528L79.5829 261.818C79.4541 262.292 79.223 262.706 78.8897 263.062C78.5602 263.415 78.1454 263.689 77.6454 263.886C77.1492 264.08 76.5829 264.176 75.9465 264.176ZM88.6317 255.273L85.4669 264H83.6488L80.4783 255.273H82.3022L84.5124 261.989H84.6033L86.8078 255.273H88.6317ZM93.5328 264.176C92.6729 264.176 91.9324 263.992 91.3112 263.625C90.6938 263.254 90.2165 262.733 89.8794 262.062C89.546 261.388 89.3794 260.598 89.3794 259.693C89.3794 258.799 89.546 258.011 89.8794 257.33C90.2165 256.648 90.6862 256.116 91.2885 255.733C91.8945 255.35 92.6029 255.159 93.4135 255.159C93.9059 255.159 94.3832 255.241 94.8453 255.403C95.3074 255.566 95.7222 255.822 96.0896 256.17C96.457 256.519 96.7468 256.972 96.9589 257.528C97.171 258.081 97.2771 258.754 97.2771 259.545V260.148H90.3396V258.875H95.6123C95.6123 258.428 95.5214 258.032 95.3396 257.688C95.1578 257.339 94.9021 257.064 94.5726 256.864C94.2468 256.663 93.8642 256.562 93.4248 256.562C92.9476 256.562 92.5309 256.68 92.1748 256.915C91.8226 257.146 91.5498 257.449 91.3566 257.824C91.1673 258.195 91.0726 258.598 91.0726 259.034V260.028C91.0726 260.612 91.1748 261.108 91.3794 261.517C91.5877 261.926 91.8775 262.239 92.2487 262.455C92.6199 262.667 93.0536 262.773 93.5498 262.773C93.8718 262.773 94.1654 262.727 94.4305 262.636C94.6957 262.542 94.9248 262.402 95.118 262.216C95.3112 262.03 95.4589 261.801 95.5612 261.528L97.1691 261.818C97.0404 262.292 96.8093 262.706 96.476 263.062C96.1464 263.415 95.7316 263.689 95.2316 263.886C94.7354 264.08 94.1691 264.176 93.5328 264.176ZM100.701 258.818V264H99.002V255.273H100.633V256.693H100.741C100.941 256.231 101.256 255.86 101.684 255.58C102.116 255.299 102.659 255.159 103.315 255.159C103.909 255.159 104.43 255.284 104.877 255.534C105.324 255.78 105.671 256.148 105.917 256.636C106.163 257.125 106.286 257.729 106.286 258.449V264H104.587V258.653C104.587 258.021 104.423 257.527 104.093 257.17C103.763 256.811 103.311 256.631 102.735 256.631C102.341 256.631 101.991 256.716 101.684 256.886C101.381 257.057 101.14 257.307 100.962 257.636C100.788 257.962 100.701 258.356 100.701 258.818ZM113.933 260.381V255.273H115.638V264H113.967V262.489H113.876C113.675 262.955 113.353 263.343 112.91 263.653C112.471 263.96 111.923 264.114 111.268 264.114C110.708 264.114 110.211 263.991 109.78 263.744C109.352 263.494 109.014 263.125 108.768 262.636C108.526 262.148 108.405 261.544 108.405 260.824V255.273H110.103V260.619C110.103 261.214 110.268 261.687 110.598 262.04C110.927 262.392 111.355 262.568 111.882 262.568C112.2 262.568 112.516 262.489 112.831 262.33C113.149 262.17 113.412 261.93 113.62 261.608C113.833 261.286 113.937 260.877 113.933 260.381ZM121.522 264.176C120.662 264.176 119.921 263.992 119.3 263.625C118.683 263.254 118.205 262.733 117.868 262.062C117.535 261.388 117.368 260.598 117.368 259.693C117.368 258.799 117.535 258.011 117.868 257.33C118.205 256.648 118.675 256.116 119.277 255.733C119.883 255.35 120.592 255.159 121.402 255.159C121.895 255.159 122.372 255.241 122.834 255.403C123.296 255.566 123.711 255.822 124.078 256.17C124.446 256.519 124.736 256.972 124.948 257.528C125.16 258.081 125.266 258.754 125.266 259.545V260.148H118.328V258.875H123.601C123.601 258.428 123.51 258.032 123.328 257.688C123.147 257.339 122.891 257.064 122.561 256.864C122.236 256.663 121.853 256.562 121.414 256.562C120.936 256.562 120.52 256.68 120.164 256.915C119.811 257.146 119.539 257.449 119.345 257.824C119.156 258.195 119.061 258.598 119.061 259.034V260.028C119.061 260.612 119.164 261.108 119.368 261.517C119.576 261.926 119.866 262.239 120.237 262.455C120.609 262.667 121.042 262.773 121.539 262.773C121.861 262.773 122.154 262.727 122.419 262.636C122.684 262.542 122.914 262.402 123.107 262.216C123.3 262.03 123.448 261.801 123.55 261.528L125.158 261.818C125.029 262.292 124.798 262.706 124.465 263.062C124.135 263.415 123.72 263.689 123.22 263.886C122.724 264.08 122.158 264.176 121.522 264.176Z" fill="#1A1C1C"/>
<path d="M306.892 258L302.292 253.4L303.346 252.346L309 258L303.346 263.654L302.292 262.6L306.892 258Z" fill="#C4C7C7"/>

<mask id="path-24-inside-4_395_4420" fill="white">

</mask>

<mask id="path-29-inside-5_395_4420" fill="white">

</mask>

<path d="M31.923 337V327.9H33.548L36.629 333.958L39.697 327.9H41.322V337H39.944V330.279L37.162 335.7H36.096L33.301 330.292V337H31.923ZM43.236 337L46.59 327.9H48.098L51.426 337H49.97L49.19 334.777H45.472L44.692 337H43.236ZM45.862 333.685H48.8L47.331 329.538L45.862 333.685ZM53.3451 337V327.9H54.7231L59.2861 334.751V327.9H60.6641V337H59.2861L54.7231 330.149V337H53.3451ZM62.5761 337L65.9301 327.9H67.4381L70.7661 337H69.3101L68.5301 334.777H64.8121L64.0321 337H62.5761ZM65.2021 333.685H68.1401L66.6711 329.538L65.2021 333.685ZM76.1166 337.156C75.2586 337.156 74.5089 336.961 73.8676 336.571C73.2263 336.181 72.7279 335.635 72.3726 334.933C72.0173 334.231 71.8396 333.412 71.8396 332.476C71.8396 331.549 72.0216 330.73 72.3856 330.019C72.7496 329.308 73.2653 328.754 73.9326 328.355C74.6086 327.948 75.4059 327.744 76.3246 327.744C77.3646 327.744 78.2313 327.995 78.9246 328.498C79.6179 329.001 80.0686 329.694 80.2766 330.578H78.7166C78.5779 330.093 78.3049 329.711 77.8976 329.434C77.4903 329.157 76.9659 329.018 76.3246 329.018C75.3713 329.018 74.6216 329.326 74.0756 329.941C73.5296 330.556 73.2566 331.406 73.2566 332.489C73.2566 333.572 73.5253 334.417 74.0626 335.024C74.5999 335.631 75.3149 335.934 76.2076 335.934C77.1089 335.934 77.7849 335.678 78.2356 335.167C78.6949 334.656 78.9636 333.975 79.0416 333.126H76.5716V332.06H80.4326V337H79.1716L79.0546 335.661C78.7513 336.138 78.3699 336.506 77.9106 336.766C77.4513 337.026 76.8533 337.156 76.1166 337.156ZM82.755 337V327.9H88.54V329.018H84.133V331.852H88.15V332.944H84.133V335.882H88.54V337H82.755ZM90.8318 337V327.9H92.4568L95.5378 333.958L98.6058 327.9H100.231V337H98.8528V330.279L96.0708 335.7H95.0048L92.2098 330.292V337H90.8318ZM102.73 337V327.9H108.515V329.018H104.108V331.852H108.125V332.944H104.108V335.882H108.515V337H102.73ZM110.807 337V327.9H112.185L116.748 334.751V327.9H118.126V337H116.748L112.185 330.149V337H110.807ZM122.755 337V329.018H120.064V327.9H126.811V329.018H124.133V337H122.755Z" fill="#838484"/>
<rect x="15" y="350" width="310" height="156" rx="7" fill="#F9F9F9"/>
<mask id="path-36-inside-6_395_4420" fill="white">
<path d="M15 350H325V402H15V350Z"/>
</mask>
<path d="M325 402V401H15V402V403H325V402Z" fill="black" fill-opacity="0.06" mask="url(#path-36-inside-6_395_4420)"/>
<path d="M38.5 375.692C37.5346 375.692 36.7099 375.35 36.026 374.666C35.342 373.982 35 373.158 35 372.192C35 371.227 35.342 370.402 36.026 369.718C36.7099 369.034 37.5346 368.692 38.5 368.692C39.4653 368.692 40.29 369.034 40.974 369.718C41.6579 370.402 41.9999 371.227 41.9999 372.192C41.9999 373.158 41.6579 373.982 40.974 374.666C40.29 375.35 39.4653 375.692 38.5 375.692ZM31 383.308V381.085C31 380.595 31.133 380.141 31.399 379.724C31.6651 379.307 32.0205 378.986 32.4654 378.762C33.4538 378.277 34.4509 377.914 35.4567 377.671C36.4625 377.429 37.4769 377.308 38.5 377.308C39.523 377.308 40.5375 377.429 41.5432 377.671C42.549 377.914 43.5461 378.277 44.5346 378.762C44.9794 378.986 45.3349 379.307 45.6009 379.724C45.8669 380.141 45.9999 380.595 45.9999 381.085V383.308H31ZM32.5 381.808H44.5V381.085C44.5 380.882 44.4413 380.695 44.324 380.522C44.2067 380.35 44.0474 380.209 43.8461 380.1C42.9846 379.676 42.1061 379.354 41.2107 379.136C40.3152 378.917 39.4117 378.808 38.5 378.808C37.5883 378.808 36.6847 378.917 35.7893 379.136C34.8938 379.354 34.0154 379.676 33.1538 380.1C32.9525 380.209 32.7932 380.35 32.6759 380.522C32.5586 380.695 32.5 380.882 32.5 381.085V381.808ZM38.5 374.192C39.05 374.192 39.5208 373.997 39.9125 373.605C40.3041 373.213 40.5 372.742 40.5 372.192C40.5 371.642 40.3041 371.172 39.9125 370.78C39.5208 370.388 39.05 370.192 38.5 370.192C37.95 370.192 37.4791 370.388 37.0875 370.78C36.6958 371.172 36.5 371.642 36.5 372.192C36.5 372.742 36.6958 373.213 37.0875 373.605C37.4791 373.997 37.95 374.192 38.5 374.192Z" fill="#1A1C1C"/>
<path d="M60.5973375 383.5 64.76140000000001 371.859375H66.92546250000001L71.13640000000001 383.5H69.22233750000001L66.95671250000001 377.0078125Q66.69108750000001 376.203125 66.37468125000001 375.15234375Q66.05827500000001 374.1015625 65.63640000000001 372.609375H66.02702500000001Q65.61296250000001 374.109375 65.30046250000001 375.171875Q64.98796250000001 376.234375 64.73015000000001 377.0078125L62.5114 383.5ZM62.870775 380.4453125V378.9609375H68.87077500000001V380.4453125ZM76.06233750000001 383.6796875Q74.85140000000001 383.6796875 73.94124375000001 383.12109375Q73.03108750000001 382.5625 72.52718125000001 381.55859375Q72.02327500000001 380.5546875 72.02327500000001 379.2265625Q72.02327500000001 377.8828125 72.52718125000001 376.875Q73.03108750000001 375.8671875 73.94124375000001 375.30859375Q74.85140000000001 374.75 76.06233750000001 374.75Q76.75765000000001 374.75 77.35921250000001 374.93359375Q77.96077500000001 375.1171875 78.44124375000001 375.46484375Q78.92171250000001 375.8125 79.24593125000001 376.30859375Q79.57015000000001 376.8046875 79.71077500000001 377.421875L78.07796250000001 377.7265625Q77.99983750000001 377.3828125 77.82405625000001 377.1015625Q77.64827500000001 376.8203125 77.39436875000001 376.6171875Q77.14046250000001 376.4140625 76.80843125000001 376.3046875Q76.47640000000001 376.1953125 76.07796250000001 376.1953125Q75.30452500000001 376.1953125 74.78890000000001 376.59765625Q74.27327500000001 377.0 74.01546250000001 377.68359375Q73.75765000000001 378.3671875 73.75765000000001 379.2265625Q73.75765000000001 380.0703125 74.01546250000001 380.75Q74.27327500000001 381.4296875 74.78499375000001 381.83203125Q75.29671250000001 382.234375 76.07796250000001 382.234375Q76.48421250000001 382.234375 76.82015000000001 382.12109375Q77.15608750000001 382.0078125 77.40999375000001 381.80078125Q77.66390000000001 381.59375 77.83968125000001 381.30078125Q78.01546250000001 381.0078125 78.10140000000001 380.65625L79.72640000000001 380.953125Q79.59358750000001 381.5859375 79.26546250000001 382.0859375Q78.93733750000001 382.5859375 78.45686875000001 382.9453125Q77.97640000000001 383.3046875 77.37093125000001 383.4921875Q76.76546250000001 383.6796875 76.06233750000001 383.6796875ZM84.98046250000002 383.6796875Q83.76952500000002 383.6796875 82.85936875000002 383.12109375Q81.94921250000002 382.5625 81.44530625000002 381.55859375Q80.94140000000002 380.5546875 80.94140000000002 379.2265625Q80.94140000000002 377.8828125 81.44530625000002 376.875Q81.94921250000002 375.8671875 82.85936875000002 375.30859375Q83.76952500000002 374.75 84.98046250000002 374.75Q85.67577500000002 374.75 86.27733750000002 374.93359375Q86.87890000000002 375.1171875 87.35936875000002 375.46484375Q87.83983750000002 375.8125 88.16405625000002 376.30859375Q88.48827500000002 376.8046875 88.62890000000002 377.421875L86.99608750000002 377.7265625Q86.91796250000002 377.3828125 86.74218125000002 377.1015625Q86.56640000000002 376.8203125 86.31249375000002 376.6171875Q86.05858750000002 376.4140625 85.72655625000002 376.3046875Q85.39452500000002 376.1953125 84.99608750000002 376.1953125Q84.22265000000002 376.1953125 83.70702500000002 376.59765625Q83.19140000000002 377.0 82.93358750000002 377.68359375Q82.67577500000002 378.3671875 82.67577500000002 379.2265625Q82.67577500000002 380.0703125 82.93358750000002 380.75Q83.19140000000002 381.4296875 83.70311875000002 381.83203125Q84.21483750000002 382.234375 84.99608750000002 382.234375Q85.40233750000002 382.234375 85.73827500000002 382.12109375Q86.07421250000002 382.0078125 86.32811875000002 381.80078125Q86.58202500000002 381.59375 86.75780625000002 381.30078125Q86.93358750000002 381.0078125 87.01952500000002 380.65625L88.64452500000002 380.953125Q88.51171250000002 381.5859375 88.18358750000002 382.0859375Q87.85546250000002 382.5859375 87.37499375000002 382.9453125Q86.89452500000002 383.3046875 86.28905625000002 383.4921875Q85.68358750000002 383.6796875 84.98046250000002 383.6796875ZM93.90640000000002 383.6796875Q92.68765000000002 383.6796875 91.77749375000002 383.12109375Q90.86733750000002 382.5625 90.36343125000002 381.55859375Q89.85952500000002 380.5546875 89.85952500000002 379.2265625Q89.85952500000002 377.8828125 90.36343125000002 376.875Q90.86733750000002 375.8671875 91.77749375000002 375.30859375Q92.68765000000002 374.75 93.90640000000002 374.75Q95.13296250000002 374.75 96.04311875000002 375.30859375Q96.95327500000002 375.8671875 97.45718125000002 376.875Q97.96108750000002 377.8828125 97.96108750000002 379.2265625Q97.96108750000002 380.5546875 97.45718125000002 381.55859375Q96.95327500000002 382.5625 96.04311875000002 383.12109375Q95.13296250000002 383.6796875 93.90640000000002 383.6796875ZM93.90640000000002 382.234375Q94.67983750000002 382.234375 95.19936875000002 381.83203125Q95.71890000000002 381.4296875 95.97671250000002 380.74609375Q96.23452500000002 380.0625 96.23452500000002 379.2265625Q96.23452500000002 378.375 95.97671250000002 377.69140625Q95.71890000000002 377.0078125 95.19936875000002 376.6015625Q94.67983750000002 376.1953125 93.90640000000002 376.1953125Q93.13296250000002 376.1953125 92.62124375000002 376.6015625Q92.10952500000002 377.0078125 91.85171250000002 377.69140625Q91.59390000000002 378.375 91.59390000000002 379.2265625Q91.59390000000002 380.0625 91.85171250000002 380.74609375Q92.10952500000002 381.4296875 92.62124375000002 381.83203125Q93.13296250000002 382.234375 93.90640000000002 382.234375ZM102.59015000000002 383.6171875Q101.70733750000002 383.6171875 101.03546250000002 383.24609375Q100.36358750000002 382.875 99.98468125000002 382.140625Q99.60577500000002 381.40625 99.60577500000002 380.328125V374.875H101.31671250000002V380.1171875Q101.31671250000002 381.0703125 101.80499375000002 381.6015625Q102.29327500000002 382.1328125 103.15265000000002 382.1328125Q103.73077500000002 382.1328125 104.18390000000002 381.8828125Q104.63702500000002 381.6328125 104.90265000000002 381.14453125Q105.16827500000002 380.65625 105.16827500000002 379.953125V374.875H106.87921250000002V383.5H105.23858750000002L105.23077500000002 381.3828125H105.44952500000002Q105.05890000000002 382.546875 104.32843125000002 383.08203125Q103.59796250000002 383.6171875 102.59015000000002 383.6171875ZM110.63327500000003 378.421875V383.5H108.92233750000003V374.875H110.56296250000003L110.57077500000003 376.9921875H110.35202500000003Q110.73483750000003 375.8359375 111.46140000000003 375.29296875Q112.18796250000003 374.75 113.21921250000003 374.75Q114.10202500000003 374.75 114.76999375000003 375.125Q115.43796250000003 375.5 115.81296250000003 376.23046875Q116.18796250000003 376.9609375 116.18796250000003 378.0390625V383.5H114.48483750000003V378.25Q114.48483750000003 377.296875 113.99655625000003 376.76953125Q113.50827500000003 376.2421875 112.65671250000003 376.2421875Q112.07858750000003 376.2421875 111.61765000000003 376.4921875Q111.15671250000003 376.7421875 110.89499375000003 377.2265625Q110.63327500000003 377.7109375 110.63327500000003 378.421875ZM122.03577500000003 374.875V376.265625H117.28577500000003V374.875ZM118.59827500000003 372.7578125H120.30921250000003V381.1796875Q120.30921250000003 381.6875 120.52015000000003 381.921875Q120.73108750000003 382.15625 121.23890000000003 382.15625Q121.38733750000003 382.15625 121.60608750000003 382.12890625Q121.82483750000003 382.1015625 121.98108750000003 382.078125L122.22327500000003 383.453125Q121.95765000000003 383.5234375 121.65296250000003 383.5546875Q121.34827500000003 383.5859375 121.05140000000003 383.5859375Q119.87171250000003 383.5859375 119.23499375000003 383.00390625Q118.59827500000003 382.421875 118.59827500000003 381.3359375ZM132.49702500000004 383.6640625Q130.96577500000004 383.6640625 129.77046250000004 382.9375Q128.57515000000004 382.2109375 127.89546250000004 380.87109375Q127.21577500000004 379.53125 127.21577500000004 377.6875Q127.21577500000004 375.8359375 127.89936875000004 374.4921875Q128.58296250000004 373.1484375 129.77827500000004 372.421875Q130.97358750000004 371.6953125 132.49702500000004 371.6953125Q133.42671250000004 371.6953125 134.23921250000004 371.96484375Q135.05171250000004 372.234375 135.69233750000004 372.74609375Q136.33296250000004 373.2578125 136.75483750000004 373.9921875Q137.17671250000004 374.7265625 137.32515000000004 375.65625H135.53608750000004Q135.41890000000004 375.0859375 135.14546250000004 374.65234375Q134.87202500000004 374.21875 134.46968125000004 373.91796875Q134.06733750000004 373.6171875 133.57124375000004 373.46484375Q133.07515000000004 373.3125 132.51265000000004 373.3125Q131.48140000000004 373.3125 130.68061875000004 373.828125Q129.87983750000004 374.34375 129.42671250000004 375.3203125Q128.97358750000004 376.296875 128.97358750000004 377.6875Q128.97358750000004 379.078125 129.43061875000004 380.0546875Q129.88765000000004 381.03125 130.68843125000004 381.5390625Q131.48921250000004 382.046875 132.51265000000004 382.046875Q133.06733750000004 382.046875 133.56343125000004 381.89453125Q134.05952500000004 381.7421875 134.46186875000004 381.4453125Q134.86421250000004 381.1484375 135.14155625000004 380.7109375Q135.41890000000004 380.2734375 135.53608750000004 379.7109375H137.32515000000004Q137.19233750000004 380.5859375 136.77827500000004 381.30859375Q136.36421250000004 382.03125 135.73140000000004 382.5625Q135.09858750000004 383.09375 134.27827500000004 383.37890625Q133.45796250000004 383.6640625 132.49702500000004 383.6640625ZM142.75108750000004 383.6796875Q141.46983750000004 383.6796875 140.54796250000004 383.125Q139.62608750000004 382.5703125 139.12999375000004 381.5703125Q138.63390000000004 380.5703125 138.63390000000004 379.234375Q138.63390000000004 377.9140625 139.12608750000004 376.90234375Q139.61827500000004 375.890625 140.51671250000004 375.3203125Q141.41515000000004 374.75 142.61046250000004 374.75Q143.39171250000004 374.75 144.09093125000004 375.0078125Q144.79015000000004 375.265625 145.33311875000004 375.80078125Q145.87608750000004 376.3359375 146.18858750000004 377.16015625Q146.50108750000004 377.984375 146.50108750000004 379.1171875V379.6953125H139.54015000000004V378.4140625H145.61827500000004L144.83702500000004 378.828125Q144.83702500000004 378.0390625 144.58311875000004 377.43359375Q144.32921250000004 376.828125 143.83311875000004 376.4921875Q143.33702500000004 376.15625 142.61827500000004 376.15625Q141.89952500000004 376.15625 141.38780625000004 376.5Q140.87608750000004 376.84375 140.60265000000004 377.4140625Q140.32921250000004 377.984375 140.32921250000004 378.6875V379.5234375Q140.32921250000004 380.390625 140.62999375000004 381.0078125Q140.93077500000004 381.625 141.48155625000004 381.94921875Q142.03233750000004 382.2734375 142.76671250000004 382.2734375Q143.25890000000004 382.2734375 143.65733750000004 382.12890625Q144.05577500000004 381.984375 144.33702500000004 381.703125Q144.61827500000004 381.421875 144.75890000000004 381.015625L146.36827500000004 381.3125Q146.17296250000004 382.015625 145.67296250000004 382.55078125Q145.17296250000004 383.0859375 144.42686875000004 383.3828125Q143.68077500000004 383.6796875 142.75108750000004 383.6796875ZM149.82546250000004 378.421875V383.5H148.11452500000004V374.875H149.75515000000004L149.76296250000004 376.9921875H149.54421250000004Q149.92702500000004 375.8359375 150.65358750000004 375.29296875Q151.38015000000004 374.75 152.41140000000004 374.75Q153.29421250000004 374.75 153.96218125000004 375.125Q154.63015000000004 375.5 155.00515000000004 376.23046875Q155.38015000000004 376.9609375 155.38015000000004 378.0390625V383.5H153.67702500000004V378.25Q153.67702500000004 377.296875 153.18874375000004 376.76953125Q152.70046250000004 376.2421875 151.84890000000004 376.2421875Q151.27077500000004 376.2421875 150.80983750000004 376.4921875Q150.34890000000004 376.7421875 150.08718125000004 377.2265625Q149.82546250000004 377.7109375 149.82546250000004 378.421875ZM161.22796250000005 374.875V376.265625H156.47796250000005V374.875ZM157.79046250000005 372.7578125H159.50140000000005V381.1796875Q159.50140000000005 381.6875 159.71233750000005 381.921875Q159.92327500000005 382.15625 160.43108750000005 382.15625Q160.57952500000005 382.15625 160.79827500000005 382.12890625Q161.01702500000005 382.1015625 161.17327500000005 382.078125L161.41546250000005 383.453125Q161.14983750000005 383.5234375 160.84515000000005 383.5546875Q160.54046250000005 383.5859375 160.24358750000005 383.5859375Q159.06390000000005 383.5859375 158.42718125000005 383.00390625Q157.79046250000005 382.421875 157.79046250000005 381.3359375ZM166.39608750000005 383.6796875Q165.11483750000005 383.6796875 164.19296250000005 383.125Q163.27108750000005 382.5703125 162.77499375000005 381.5703125Q162.27890000000005 380.5703125 162.27890000000005 379.234375Q162.27890000000005 377.9140625 162.77108750000005 376.90234375Q163.26327500000005 375.890625 164.16171250000005 375.3203125Q165.06015000000005 374.75 166.25546250000005 374.75Q167.03671250000005 374.75 167.73593125000005 375.0078125Q168.43515000000005 375.265625 168.97811875000005 375.80078125Q169.52108750000005 376.3359375 169.83358750000005 377.16015625Q170.14608750000005 377.984375 170.14608750000005 379.1171875V379.6953125H163.18515000000005V378.4140625H169.26327500000005L168.48202500000005 378.828125Q168.48202500000005 378.0390625 168.22811875000005 377.43359375Q167.97421250000005 376.828125 167.47811875000005 376.4921875Q166.98202500000005 376.15625 166.26327500000005 376.15625Q165.54452500000005 376.15625 165.03280625000005 376.5Q164.52108750000005 376.84375 164.24765000000005 377.4140625Q163.97421250000005 377.984375 163.97421250000005 378.6875V379.5234375Q163.97421250000005 380.390625 164.27499375000005 381.0078125Q164.57577500000005 381.625 165.12655625000005 381.94921875Q165.67733750000005 382.2734375 166.41171250000005 382.2734375Q166.90390000000005 382.2734375 167.30233750000005 382.12890625Q167.70077500000005 381.984375 167.98202500000005 381.703125Q168.26327500000005 381.421875 168.40390000000005 381.015625L170.01327500000005 381.3125Q169.81796250000005 382.015625 169.31796250000005 382.55078125Q168.81796250000005 383.0859375 168.07186875000005 383.3828125Q167.32577500000005 383.6796875 166.39608750000005 383.6796875ZM171.75952500000005 383.5V374.875H173.40796250000005V376.2578125H173.48608750000005Q173.72827500000005 375.5546875 174.30249375000005 375.15625Q174.87671250000005 374.7578125 175.65015000000005 374.7578125Q175.82202500000005 374.7578125 176.02124375000005 374.76953125Q176.22046250000005 374.78125 176.35327500000005 374.796875V376.4140625Q176.25952500000005 376.390625 175.99780625000005 376.359375Q175.73608750000005 376.328125 175.45483750000005 376.328125Q174.89233750000005 376.328125 174.43921250000005 376.5703125Q173.98608750000005 376.8125 173.72827500000005 377.25390625Q173.47046250000005 377.6953125 173.47046250000005 378.2890625V383.5Z" fill="#1A1C1C"/>
<path d="M306.892 376L302.292 371.4L303.346 370.346L309 376L303.346 381.654L302.292 380.6L306.892 376Z" fill="#C4C7C7"/>
<mask id="path-41-inside-7_395_4420" fill="white">
<path d="M15 402H325V454H15V402Z"/>
</mask>
<path d="M325 454V453H15V454V455H325V454Z" fill="black" fill-opacity="0.06" mask="url(#path-41-inside-7_395_4420)"/>
<path d="M38.0884 437.5L37.7077 434.454C37.4397 434.364 37.165 434.238 36.8836 434.077C36.6022 433.915 36.3506 433.742 36.1288 433.558L33.3077 434.75L31 430.75L33.4404 428.906C33.4173 428.757 33.401 428.608 33.3913 428.458C33.3817 428.308 33.3769 428.158 33.3769 428.01C33.3769 427.867 33.3817 427.723 33.3913 427.576C33.401 427.429 33.4173 427.269 33.4404 427.094L31 425.25L33.3077 421.269L36.1192 422.452C36.3602 422.261 36.6176 422.086 36.8913 421.928C37.165 421.77 37.434 421.642 37.6981 421.546L38.0884 418.5H42.7038L43.0845 421.556C43.3845 421.665 43.656 421.792 43.899 421.937C44.1419 422.083 44.3871 422.254 44.6346 422.452L47.4846 421.269L49.7922 425.25L47.3134 427.123C47.3493 427.285 47.3688 427.436 47.372 427.576C47.3752 427.716 47.3768 427.858 47.3768 428C47.3768 428.136 47.3736 428.274 47.3672 428.414C47.3608 428.555 47.3377 428.715 47.298 428.896L49.7576 430.75L47.4499 434.75L44.6346 433.548C44.3871 433.745 44.1346 433.92 43.8769 434.072C43.6192 434.224 43.3551 434.348 43.0845 434.444L42.7038 437.5H38.0884ZM39.3961 436H41.3615L41.7211 433.321C42.2314 433.188 42.6977 432.998 43.1201 432.753C43.5426 432.507 43.9499 432.192 44.3423 431.806L46.8269 432.85L47.8115 431.15L45.6423 429.515C45.7256 429.256 45.7823 429.003 45.8124 428.754C45.8426 428.505 45.8576 428.254 45.8576 428C45.8576 427.74 45.8426 427.488 45.8124 427.246C45.7823 427.004 45.7256 426.756 45.6423 426.504L47.8307 424.85L46.8461 423.15L44.3326 424.21C43.998 423.852 43.5971 423.536 43.1298 423.262C42.6624 422.987 42.1897 422.793 41.7115 422.679L41.3961 420H39.4115L39.0807 422.669C38.5705 422.79 38.0993 422.974 37.6673 423.223C37.2352 423.472 36.823 423.792 36.4307 424.185L33.9461 423.15L32.9615 424.85L35.1211 426.46C35.0378 426.697 34.9794 426.944 34.9461 427.2C34.9128 427.456 34.8961 427.726 34.8961 428.01C34.8961 428.27 34.9128 428.525 34.9461 428.775C34.9794 429.025 35.0346 429.272 35.1115 429.515L32.9615 431.15L33.9461 432.85L36.4211 431.8C36.8006 432.19 37.2064 432.509 37.6384 432.758C38.0705 433.006 38.548 433.197 39.0711 433.331L39.3961 436ZM40.4076 431C41.2397 431 41.9477 430.708 42.5317 430.124C43.1156 429.54 43.4076 428.832 43.4076 428C43.4076 427.168 43.1156 426.46 42.5317 425.876C41.9477 425.292 41.2397 425 40.4076 425C39.5653 425 38.8548 425.292 38.2759 425.876C37.6971 426.46 37.4077 427.168 37.4077 428C37.4077 428.832 37.6971 429.54 38.2759 430.124C38.8548 430.708 39.5653 431 40.4076 431Z" fill="#1A1C1C"/>
<path d="M69.417 425.42C69.3564 424.883 69.1064 424.466 68.667 424.17C68.2276 423.871 67.6746 423.722 67.0079 423.722C66.5306 423.722 66.1177 423.797 65.7693 423.949C65.4208 424.097 65.1499 424.301 64.9568 424.562C64.7674 424.82 64.6727 425.114 64.6727 425.443C64.6727 425.72 64.7371 425.958 64.8659 426.159C64.9984 426.36 65.1708 426.528 65.3829 426.665C65.5988 426.797 65.8299 426.909 66.0761 427C66.3223 427.087 66.559 427.159 66.7863 427.216L67.9227 427.511C68.2939 427.602 68.6746 427.725 69.0647 427.881C69.4549 428.036 69.8166 428.241 70.1499 428.494C70.4833 428.748 70.7522 429.062 70.9568 429.438C71.1651 429.812 71.2693 430.261 71.2693 430.784C71.2693 431.443 71.0988 432.028 70.7579 432.54C70.4208 433.051 69.9303 433.455 69.2863 433.75C68.6462 434.045 67.8715 434.193 66.9624 434.193C66.0912 434.193 65.3374 434.055 64.7011 433.778C64.0647 433.502 63.5666 433.11 63.2068 432.602C62.8469 432.091 62.6481 431.485 62.6102 430.784H64.3715C64.4056 431.205 64.542 431.555 64.7806 431.835C65.0231 432.112 65.3318 432.318 65.7068 432.455C66.0856 432.587 66.5003 432.653 66.9511 432.653C67.4473 432.653 67.8886 432.576 68.2749 432.42C68.6651 432.261 68.9719 432.042 69.1954 431.761C69.4189 431.477 69.5306 431.146 69.5306 430.767C69.5306 430.422 69.4321 430.14 69.2352 429.92C69.042 429.701 68.7787 429.519 68.4454 429.375C68.1159 429.231 67.7427 429.104 67.3261 428.994L65.9511 428.619C65.0193 428.366 64.2806 427.992 63.7352 427.5C63.1935 427.008 62.9227 426.356 62.9227 425.545C62.9227 424.875 63.1045 424.29 63.4681 423.79C63.8318 423.29 64.3242 422.902 64.9454 422.625C65.5666 422.345 66.2674 422.205 67.0477 422.205C67.8356 422.205 68.5306 422.343 69.1329 422.619C69.739 422.896 70.2162 423.277 70.5647 423.761C70.9132 424.242 71.095 424.795 71.1102 425.42H69.417ZM76.8323 434.176C75.9724 434.176 75.2319 433.992 74.6107 433.625C73.9933 433.254 73.516 432.733 73.1789 432.062C72.8455 431.388 72.6789 430.598 72.6789 429.693C72.6789 428.799 72.8455 428.011 73.1789 427.33C73.516 426.648 73.9857 426.116 74.588 425.733C75.194 425.35 75.9024 425.159 76.713 425.159C77.2054 425.159 77.6827 425.241 78.1448 425.403C78.6069 425.566 79.0217 425.822 79.3891 426.17C79.7565 426.519 80.0463 426.972 80.2584 427.528C80.4705 428.081 80.5766 428.754 80.5766 429.545V430.148H73.6391V428.875H78.9118C78.9118 428.428 78.8209 428.032 78.6391 427.688C78.4573 427.339 78.2016 427.064 77.872 426.864C77.5463 426.663 77.1637 426.562 76.7243 426.562C76.247 426.562 75.8304 426.68 75.4743 426.915C75.122 427.146 74.8493 427.449 74.6561 427.824C74.4667 428.195 74.372 428.598 74.372 429.034V430.028C74.372 430.612 74.4743 431.108 74.6789 431.517C74.8872 431.926 75.177 432.239 75.5482 432.455C75.9194 432.667 76.3531 432.773 76.8493 432.773C77.1713 432.773 77.4649 432.727 77.73 432.636C77.9952 432.542 78.2243 432.402 78.4175 432.216C78.6107 432.03 78.7584 431.801 78.8607 431.528L80.4686 431.818C80.3399 432.292 80.1088 432.706 79.7755 433.062C79.4459 433.415 79.0311 433.689 78.5311 433.886C78.0349 434.08 77.4686 434.176 76.8323 434.176ZM86.3754 425.273V426.636H81.6084V425.273H86.3754ZM82.8868 423.182H84.5856V431.438C84.5856 431.767 84.6349 432.015 84.7334 432.182C84.8318 432.345 84.9587 432.456 85.114 432.517C85.2731 432.574 85.4455 432.602 85.6311 432.602C85.7674 432.602 85.8868 432.593 85.989 432.574C86.0913 432.555 86.1709 432.54 86.2277 432.528L86.5345 433.932C86.436 433.97 86.2959 434.008 86.114 434.045C85.9322 434.087 85.7049 434.11 85.4322 434.114C84.9853 434.121 84.5686 434.042 84.1822 433.875C83.7959 433.708 83.4834 433.451 83.2447 433.102C83.0061 432.754 82.8868 432.316 82.8868 431.79V423.182ZM92.1685 425.273V426.636H87.4015V425.273H92.1685ZM88.6799 423.182H90.3788V431.438C90.3788 431.767 90.428 432.015 90.5265 432.182C90.625 432.345 90.7519 432.456 90.9072 432.517C91.0663 432.574 91.2386 432.602 91.4242 432.602C91.5606 432.602 91.6799 432.593 91.7822 432.574C91.8844 432.555 91.964 432.54 92.0208 432.528L92.3276 433.932C92.2291 433.97 92.089 434.008 91.9072 434.045C91.7253 434.087 91.4981 434.11 91.2253 434.114C90.7784 434.121 90.3617 434.042 89.9753 433.875C89.589 433.708 89.2765 433.451 89.0378 433.102C88.7992 432.754 88.6799 432.316 88.6799 431.79V423.182ZM93.8878 434V425.273H95.5867V434H93.8878ZM94.7457 423.926C94.4503 423.926 94.1965 423.828 93.9844 423.631C93.776 423.43 93.6719 423.191 93.6719 422.915C93.6719 422.634 93.776 422.396 93.9844 422.199C94.1965 421.998 94.4503 421.898 94.7457 421.898C95.0412 421.898 95.2931 421.998 95.5014 422.199C95.7135 422.396 95.8196 422.634 95.8196 422.915C95.8196 423.191 95.7135 423.43 95.5014 423.631C95.2931 423.828 95.0412 423.926 94.7457 423.926ZM99.411 428.818V434H97.7122V425.273H99.3428V426.693H99.4508C99.6516 426.231 99.966 425.86 100.394 425.58C100.826 425.299 101.369 425.159 102.025 425.159C102.619 425.159 103.14 425.284 103.587 425.534C104.034 425.78 104.381 426.148 104.627 426.636C104.873 427.125 104.996 427.729 104.996 428.449V434H103.297V428.653C103.297 428.021 103.133 427.527 102.803 427.17C102.474 426.811 102.021 426.631 101.445 426.631C101.051 426.631 100.701 426.716 100.394 426.886C100.091 427.057 99.8504 427.307 99.6724 427.636C99.4981 427.962 99.411 428.356 99.411 428.818ZM110.774 437.455C110.081 437.455 109.484 437.364 108.984 437.182C108.488 437 108.082 436.759 107.768 436.46C107.454 436.161 107.219 435.833 107.064 435.477L108.524 434.875C108.626 435.042 108.762 435.218 108.933 435.403C109.107 435.593 109.342 435.754 109.637 435.886C109.937 436.019 110.321 436.085 110.791 436.085C111.435 436.085 111.967 435.928 112.387 435.614C112.808 435.303 113.018 434.807 113.018 434.125V432.409H112.91C112.808 432.595 112.66 432.801 112.467 433.028C112.278 433.256 112.016 433.453 111.683 433.619C111.35 433.786 110.916 433.869 110.382 433.869C109.692 433.869 109.071 433.708 108.518 433.386C107.969 433.061 107.533 432.581 107.211 431.949C106.893 431.312 106.734 430.53 106.734 429.602C106.734 428.674 106.891 427.879 107.206 427.216C107.524 426.553 107.959 426.045 108.512 425.693C109.065 425.337 109.692 425.159 110.393 425.159C110.935 425.159 111.372 425.25 111.706 425.432C112.039 425.61 112.298 425.818 112.484 426.057C112.673 426.295 112.819 426.506 112.921 426.688H113.046V425.273H114.711V434.193C114.711 434.943 114.537 435.559 114.189 436.04C113.84 436.521 113.368 436.877 112.774 437.108C112.183 437.339 111.516 437.455 110.774 437.455ZM110.757 432.46C111.245 432.46 111.658 432.347 111.995 432.119C112.336 431.888 112.594 431.559 112.768 431.131C112.946 430.699 113.035 430.182 113.035 429.58C113.035 428.992 112.948 428.475 112.774 428.028C112.6 427.581 112.344 427.233 112.007 426.983C111.67 426.729 111.253 426.602 110.757 426.602C110.245 426.602 109.819 426.735 109.478 427C109.137 427.261 108.88 427.617 108.706 428.068C108.535 428.519 108.45 429.023 108.45 429.58C108.45 430.152 108.537 430.653 108.711 431.085C108.885 431.517 109.143 431.854 109.484 432.097C109.829 432.339 110.253 432.46 110.757 432.46ZM123.369 427.403L121.83 427.676C121.765 427.479 121.663 427.292 121.523 427.114C121.386 426.936 121.201 426.79 120.966 426.676C120.731 426.562 120.438 426.506 120.085 426.506C119.604 426.506 119.203 426.614 118.881 426.83C118.559 427.042 118.398 427.316 118.398 427.653C118.398 427.945 118.506 428.18 118.722 428.358C118.938 428.536 119.286 428.682 119.767 428.795L121.154 429.114C121.957 429.299 122.555 429.585 122.949 429.972C123.343 430.358 123.54 430.86 123.54 431.477C123.54 432 123.388 432.466 123.085 432.875C122.786 433.28 122.368 433.598 121.83 433.83C121.296 434.061 120.676 434.176 119.972 434.176C118.994 434.176 118.197 433.968 117.58 433.551C116.962 433.131 116.583 432.534 116.443 431.761L118.085 431.511C118.188 431.939 118.398 432.263 118.716 432.483C119.034 432.699 119.449 432.807 119.96 432.807C120.517 432.807 120.962 432.691 121.296 432.46C121.629 432.225 121.796 431.939 121.796 431.602C121.796 431.33 121.693 431.1 121.489 430.915C121.288 430.729 120.979 430.589 120.563 430.494L119.085 430.17C118.271 429.985 117.669 429.689 117.279 429.284C116.892 428.879 116.699 428.366 116.699 427.744C116.699 427.229 116.843 426.778 117.131 426.392C117.419 426.006 117.816 425.705 118.324 425.489C118.832 425.269 119.413 425.159 120.068 425.159C121.011 425.159 121.754 425.364 122.296 425.773C122.837 426.178 123.195 426.722 123.369 427.403Z" fill="#1A1C1C"/>
<path d="M306.892 428L302.292 423.4L303.346 422.346L309 428L303.346 433.654L302.292 432.6L306.892 428Z" fill="#C4C7C7"/>
<mask id="path-46-inside-8_395_4420" fill="white">
<path d="M15 454H325V506H15V454Z"/>
</mask>
<path d="M325 506V505H15V506V507H325V506Z" fill="black" fill-opacity="0.06" mask="url(#path-46-inside-8_395_4420)"/>
<path d="M42.4988 479.231C43.2624 479.231 43.9118 478.964 44.4471 478.429C44.9823 477.895 45.2499 477.245 45.2499 476.482C45.2499 475.718 44.9827 475.069 44.4482 474.534C43.9137 473.998 43.2647 473.731 42.5011 473.731C41.7375 473.731 41.0881 473.998 40.5529 474.533C40.0176 475.067 39.75 475.716 39.75 476.48C39.75 477.243 40.0172 477.893 40.5517 478.428C41.0862 478.963 41.7353 479.231 42.4988 479.231ZM36.7884 483.846C37.5192 483.02 38.3807 482.385 39.3731 481.938C40.3654 481.492 41.4077 481.269 42.5 481.269C43.5923 481.269 44.6346 481.492 45.6269 481.938C46.6192 482.385 47.4807 483.02 48.2115 483.846C48.2948 483.846 48.3637 483.816 48.4182 483.755C48.4727 483.694 48.5 483.622 48.5 483.538V472.308C48.5 472.218 48.4711 472.144 48.4134 472.087C48.3557 472.029 48.282 472 48.1922 472H36.8077C36.7179 472 36.6442 472.029 36.5865 472.087C36.5288 472.144 36.5 472.218 36.5 472.308V483.538C36.5 483.622 36.5272 483.694 36.5817 483.755C36.6362 483.816 36.7051 483.846 36.7884 483.846ZM36.8077 485.5C36.3106 485.5 35.885 485.323 35.531 484.969C35.177 484.615 35 484.189 35 483.692V472.308C35 471.811 35.177 471.385 35.531 471.031C35.885 470.677 36.3106 470.5 36.8077 470.5H48.1922C48.6894 470.5 49.1149 470.677 49.4689 471.031C49.8229 471.385 49.9999 471.811 49.9999 472.308V483.692C49.9999 484.189 49.8229 484.615 49.4689 484.969C49.1149 485.323 48.6894 485.5 48.1922 485.5H36.8077ZM32.8077 489.5C32.3106 489.5 31.885 489.323 31.531 488.969C31.177 488.615 31 488.189 31 487.692V474.5H32.5V487.692C32.5 487.782 32.5288 487.856 32.5865 487.913C32.6442 487.971 32.7179 488 32.8077 488H45.9999V489.5H32.8077ZM42.5 477.731C42.1525 477.731 41.8573 477.609 41.6144 477.366C41.3714 477.123 41.2499 476.828 41.2499 476.481C41.2499 476.133 41.3714 475.838 41.6144 475.595C41.8573 475.352 42.1525 475.231 42.5 475.231C42.8474 475.231 43.1426 475.352 43.3856 475.595C43.6285 475.838 43.75 476.133 43.75 476.481C43.75 476.828 43.6285 477.123 43.3856 477.366C43.1426 477.609 42.8474 477.731 42.5 477.731ZM38.8346 484H46.1654C45.6436 483.59 45.0689 483.282 44.4413 483.077C43.8138 482.872 43.1666 482.769 42.5 482.769C41.8333 482.769 41.1862 482.872 40.5586 483.077C39.931 483.282 39.3563 483.59 38.8346 484Z" fill="#1A1C1C"/>
<path d="M69.625 477.42C69.5644 476.883 69.3144 476.466 68.875 476.17C68.4356 475.871 67.8826 475.722 67.2159 475.722C66.7386 475.722 66.3258 475.797 65.9773 475.949C65.6288 476.097 65.358 476.301 65.1648 476.562C64.9754 476.82 64.8807 477.114 64.8807 477.443C64.8807 477.72 64.9451 477.958 65.0739 478.159C65.2064 478.36 65.3788 478.528 65.5909 478.665C65.8068 478.797 66.0379 478.909 66.2841 479C66.5303 479.087 66.767 479.159 66.9943 479.216L68.1307 479.511C68.5019 479.602 68.8826 479.725 69.2727 479.881C69.6629 480.036 70.0246 480.241 70.358 480.494C70.6913 480.748 70.9602 481.062 71.1648 481.438C71.3731 481.812 71.4773 482.261 71.4773 482.784C71.4773 483.443 71.3068 484.028 70.9659 484.54C70.6288 485.051 70.1383 485.455 69.4943 485.75C68.8542 486.045 68.0795 486.193 67.1705 486.193C66.2992 486.193 65.5455 486.055 64.9091 485.778C64.2727 485.502 63.7746 485.11 63.4148 484.602C63.0549 484.091 62.8561 483.485 62.8182 482.784H64.5795C64.6136 483.205 64.75 483.555 64.9886 483.835C65.2311 484.112 65.5398 484.318 65.9148 484.455C66.2936 484.587 66.7083 484.653 67.1591 484.653C67.6553 484.653 68.0966 484.576 68.483 484.42C68.8731 484.261 69.1799 484.042 69.4034 483.761C69.6269 483.477 69.7386 483.146 69.7386 482.767C69.7386 482.422 69.6402 482.14 69.4432 481.92C69.25 481.701 68.9867 481.519 68.6534 481.375C68.3239 481.231 67.9508 481.104 67.5341 480.994L66.1591 480.619C65.2273 480.366 64.4886 479.992 63.9432 479.5C63.4015 479.008 63.1307 478.356 63.1307 477.545C63.1307 476.875 63.3125 476.29 63.6761 475.79C64.0398 475.29 64.5322 474.902 65.1534 474.625C65.7746 474.345 66.4754 474.205 67.2557 474.205C68.0436 474.205 68.7386 474.343 69.3409 474.619C69.947 474.896 70.4242 475.277 70.7727 475.761C71.1212 476.242 71.303 476.795 71.3182 477.42H69.625ZM75.171 486L72.6028 477.273H74.3585L76.0687 483.682H76.1539L77.8698 477.273H79.6255L81.3301 483.653H81.4153L83.1141 477.273H84.8698L82.3073 486H80.5744L78.8016 479.699H78.671L76.8982 486H75.171ZM86.322 486V477.273H88.0209V486H86.322ZM87.18 475.926C86.8845 475.926 86.6308 475.828 86.4186 475.631C86.2103 475.43 86.1061 475.191 86.1061 474.915C86.1061 474.634 86.2103 474.396 86.4186 474.199C86.6308 473.998 86.8845 473.898 87.18 473.898C87.4755 473.898 87.7273 473.998 87.9357 474.199C88.1478 474.396 88.2539 474.634 88.2539 474.915C88.2539 475.191 88.1478 475.43 87.9357 475.631C87.7273 475.828 87.4755 475.926 87.18 475.926ZM94.2203 477.273V478.636H89.4532V477.273H94.2203ZM90.7316 475.182H92.4305V483.438C92.4305 483.767 92.4798 484.015 92.5782 484.182C92.6767 484.345 92.8036 484.456 92.9589 484.517C93.118 484.574 93.2904 484.602 93.476 484.602C93.6123 484.602 93.7316 484.593 93.8339 484.574C93.9362 484.555 94.0157 484.54 94.0726 484.528L94.3794 485.932C94.2809 485.97 94.1407 486.008 93.9589 486.045C93.7771 486.087 93.5498 486.11 93.2771 486.114C92.8301 486.121 92.4135 486.042 92.0271 485.875C91.6407 485.708 91.3282 485.451 91.0896 485.102C90.851 484.754 90.7316 484.316 90.7316 483.79V475.182ZM99.5219 486.176C98.6772 486.176 97.95 485.985 97.3401 485.602C96.7341 485.216 96.2681 484.684 95.9424 484.006C95.6166 483.328 95.4538 482.551 95.4538 481.676C95.4538 480.79 95.6204 480.008 95.9538 479.33C96.2871 478.648 96.7568 478.116 97.3628 477.733C97.9689 477.35 98.6829 477.159 99.5049 477.159C100.168 477.159 100.759 477.282 101.278 477.528C101.797 477.771 102.215 478.112 102.533 478.551C102.855 478.991 103.047 479.504 103.107 480.091H101.454C101.363 479.682 101.155 479.33 100.829 479.034C100.507 478.739 100.075 478.591 99.5333 478.591C99.0598 478.591 98.645 478.716 98.289 478.966C97.9367 479.212 97.6621 479.564 97.4651 480.023C97.2681 480.477 97.1697 481.015 97.1697 481.636C97.1697 482.273 97.2663 482.822 97.4594 483.284C97.6526 483.746 97.9253 484.104 98.2776 484.358C98.6337 484.612 99.0522 484.739 99.5333 484.739C99.8553 484.739 100.147 484.68 100.408 484.562C100.673 484.441 100.895 484.269 101.073 484.045C101.255 483.822 101.382 483.553 101.454 483.239H103.107C103.047 483.803 102.863 484.307 102.556 484.75C102.249 485.193 101.838 485.542 101.323 485.795C100.812 486.049 100.211 486.176 99.5219 486.176ZM106.463 480.818V486H104.764V474.364H106.44V478.693H106.548C106.753 478.223 107.065 477.85 107.486 477.574C107.906 477.297 108.455 477.159 109.133 477.159C109.732 477.159 110.254 477.282 110.701 477.528C111.152 477.775 111.501 478.142 111.747 478.631C111.997 479.116 112.122 479.722 112.122 480.449V486H110.423V480.653C110.423 480.013 110.258 479.517 109.929 479.165C109.599 478.809 109.141 478.631 108.554 478.631C108.152 478.631 107.792 478.716 107.474 478.886C107.16 479.057 106.912 479.307 106.73 479.636C106.552 479.962 106.463 480.356 106.463 480.818ZM119.423 486H117.559L121.746 474.364H123.775L127.962 486H126.099L122.809 476.477H122.718L119.423 486ZM119.735 481.443H125.781V482.92H119.735V481.443ZM132.882 486.176C132.037 486.176 131.31 485.985 130.7 485.602C130.094 485.216 129.628 484.684 129.302 484.006C128.977 483.328 128.814 482.551 128.814 481.676C128.814 480.79 128.98 480.008 129.314 479.33C129.647 478.648 130.117 478.116 130.723 477.733C131.329 477.35 132.043 477.159 132.865 477.159C133.528 477.159 134.119 477.282 134.638 477.528C135.157 477.771 135.575 478.112 135.893 478.551C136.215 478.991 136.407 479.504 136.467 480.091H134.814C134.723 479.682 134.515 479.33 134.189 479.034C133.867 478.739 133.435 478.591 132.893 478.591C132.42 478.591 132.005 478.716 131.649 478.966C131.297 479.212 131.022 479.564 130.825 480.023C130.628 480.477 130.53 481.015 130.53 481.636C130.53 482.273 130.626 482.822 130.819 483.284C131.013 483.746 131.285 484.104 131.638 484.358C131.994 484.612 132.412 484.739 132.893 484.739C133.215 484.739 133.507 484.68 133.768 484.562C134.033 484.441 134.255 484.269 134.433 484.045C134.615 483.822 134.742 483.553 134.814 483.239H136.467C136.407 483.803 136.223 484.307 135.916 484.75C135.609 485.193 135.198 485.542 134.683 485.795C134.172 486.049 133.571 486.176 132.882 486.176ZM141.8 486.176C140.955 486.176 140.228 485.985 139.618 485.602C139.012 485.216 138.546 484.684 138.221 484.006C137.895 483.328 137.732 482.551 137.732 481.676C137.732 480.79 137.899 480.008 138.232 479.33C138.565 478.648 139.035 478.116 139.641 477.733C140.247 477.35 140.961 477.159 141.783 477.159C142.446 477.159 143.037 477.282 143.556 477.528C144.075 477.771 144.493 478.112 144.811 478.551C145.133 478.991 145.325 479.504 145.385 480.091H143.732C143.641 479.682 143.433 479.33 143.107 479.034C142.785 478.739 142.353 478.591 141.811 478.591C141.338 478.591 140.923 478.716 140.567 478.966C140.215 479.212 139.94 479.564 139.743 480.023C139.546 480.477 139.448 481.015 139.448 481.636C139.448 482.273 139.544 482.822 139.738 483.284C139.931 483.746 140.203 484.104 140.556 484.358C140.912 484.612 141.33 484.739 141.811 484.739C142.133 484.739 142.425 484.68 142.686 484.562C142.952 484.441 143.173 484.269 143.351 484.045C143.533 483.822 143.66 483.553 143.732 483.239H145.385C145.325 483.803 145.141 484.307 144.834 484.75C144.527 485.193 144.116 485.542 143.601 485.795C143.09 486.049 142.489 486.176 141.8 486.176ZM150.718 486.176C149.9 486.176 149.186 485.989 148.576 485.614C147.966 485.239 147.493 484.714 147.156 484.04C146.819 483.366 146.65 482.578 146.65 481.676C146.65 480.771 146.819 479.979 147.156 479.301C147.493 478.623 147.966 478.097 148.576 477.722C149.186 477.347 149.9 477.159 150.718 477.159C151.536 477.159 152.25 477.347 152.86 477.722C153.47 478.097 153.944 478.623 154.281 479.301C154.618 479.979 154.786 480.771 154.786 481.676C154.786 482.578 154.618 483.366 154.281 484.04C153.944 484.714 153.47 485.239 152.86 485.614C152.25 485.989 151.536 486.176 150.718 486.176ZM150.724 484.75C151.254 484.75 151.694 484.61 152.042 484.33C152.391 484.049 152.648 483.676 152.815 483.21C152.985 482.744 153.07 482.231 153.07 481.67C153.07 481.114 152.985 480.602 152.815 480.136C152.648 479.667 152.391 479.29 152.042 479.006C151.694 478.722 151.254 478.58 150.724 478.58C150.19 478.58 149.747 478.722 149.394 479.006C149.046 479.29 148.786 479.667 148.616 480.136C148.449 480.602 148.366 481.114 148.366 481.67C148.366 482.231 148.449 482.744 148.616 483.21C148.786 483.676 149.046 484.049 149.394 484.33C149.747 484.61 150.19 484.75 150.724 484.75ZM162.051 482.381V477.273H163.756V486H162.085V484.489H161.994C161.794 484.955 161.472 485.343 161.028 485.653C160.589 485.96 160.042 486.114 159.386 486.114C158.826 486.114 158.329 485.991 157.898 485.744C157.47 485.494 157.133 485.125 156.886 484.636C156.644 484.148 156.523 483.544 156.523 482.824V477.273H158.222V482.619C158.222 483.214 158.386 483.687 158.716 484.04C159.045 484.392 159.473 484.568 160 484.568C160.318 484.568 160.634 484.489 160.949 484.33C161.267 484.17 161.53 483.93 161.739 483.608C161.951 483.286 162.055 482.877 162.051 482.381ZM167.577 480.818V486H165.878V477.273H167.509V478.693H167.617C167.818 478.231 168.132 477.86 168.56 477.58C168.992 477.299 169.535 477.159 170.191 477.159C170.785 477.159 171.306 477.284 171.753 477.534C172.2 477.78 172.547 478.148 172.793 478.636C173.039 479.125 173.162 479.729 173.162 480.449V486H171.464V480.653C171.464 480.021 171.299 479.527 170.969 479.17C170.64 478.811 170.187 478.631 169.611 478.631C169.217 478.631 168.867 478.716 168.56 478.886C168.257 479.057 168.017 479.307 167.839 479.636C167.664 479.962 167.577 480.356 167.577 480.818ZM179.355 477.273V478.636H174.588V477.273H179.355ZM175.866 475.182H177.565V483.438C177.565 483.767 177.614 484.015 177.713 484.182C177.811 484.345 177.938 484.456 178.093 484.517C178.252 484.574 178.425 484.602 178.61 484.602C178.747 484.602 178.866 484.593 178.968 484.574C179.071 484.555 179.15 484.54 179.207 484.528L179.514 485.932C179.415 485.97 179.275 486.008 179.093 486.045C178.911 486.087 178.684 486.11 178.411 486.114C177.965 486.121 177.548 486.042 177.161 485.875C176.775 485.708 176.463 485.451 176.224 485.102C175.985 484.754 175.866 484.316 175.866 483.79V475.182ZM187.473 479.403L185.933 479.676C185.869 479.479 185.767 479.292 185.626 479.114C185.49 478.936 185.305 478.79 185.07 478.676C184.835 478.562 184.541 478.506 184.189 478.506C183.708 478.506 183.306 478.614 182.984 478.83C182.662 479.042 182.501 479.316 182.501 479.653C182.501 479.945 182.609 480.18 182.825 480.358C183.041 480.536 183.39 480.682 183.871 480.795L185.257 481.114C186.06 481.299 186.659 481.585 187.053 481.972C187.447 482.358 187.644 482.86 187.644 483.477C187.644 484 187.492 484.466 187.189 484.875C186.89 485.28 186.471 485.598 185.933 485.83C185.399 486.061 184.78 486.176 184.075 486.176C183.098 486.176 182.301 485.968 181.683 485.551C181.066 485.131 180.687 484.534 180.547 483.761L182.189 483.511C182.291 483.939 182.501 484.263 182.82 484.483C183.138 484.699 183.553 484.807 184.064 484.807C184.621 484.807 185.066 484.691 185.399 484.46C185.733 484.225 185.899 483.939 185.899 483.602C185.899 483.33 185.797 483.1 185.592 482.915C185.392 482.729 185.083 482.589 184.666 482.494L183.189 482.17C182.375 481.985 181.772 481.689 181.382 481.284C180.996 480.879 180.803 480.366 180.803 479.744C180.803 479.229 180.947 478.778 181.234 478.392C181.522 478.006 181.92 477.705 182.428 477.489C182.935 477.269 183.517 477.159 184.172 477.159C185.115 477.159 185.858 477.364 186.399 477.773C186.941 478.178 187.299 478.722 187.473 479.403Z" fill="#1A1C1C"/>
<path d="M306.892 480L302.292 475.4L303.346 474.346L309 480L303.346 485.654L302.292 484.6L306.892 480Z" fill="#C4C7C7"/>
<rect x="16.5" y="513.5" width="309" height="57" rx="7.5" fill="#F9F9F9"/>
<rect x="16.5" y="513.5" width="309" height="57" rx="7.5" stroke="#C4C7C7"/>
<path d="M136.617 550.5C136.112 550.5 135.685 550.325 135.335 549.975C134.985 549.625 134.81 549.197 134.81 548.692V535.308C134.81 534.803 134.985 534.375 135.335 534.025C135.685 533.675 136.112 533.5 136.617 533.5H143.319V535H136.617C136.54 535 136.47 535.032 136.406 535.096C136.342 535.16 136.31 535.231 136.31 535.308V548.692C136.31 548.769 136.342 548.84 136.406 548.904C136.47 548.968 136.54 549 136.617 549H143.319V550.5H136.617ZM147.54 546.269L146.502 545.185L148.936 542.75H140.406V541.25H148.936L146.502 538.815L147.54 537.731L151.809 542L147.54 546.269Z" fill="#1A1C1C"/>
<path d="M162.597 536.359V548H160.879V536.359H162.597ZM168.423 548.182C167.603 548.182 166.887 547.994 166.277 547.619C165.666 547.243 165.191 546.717 164.854 546.041C164.516 545.364 164.348 544.578 164.348 543.682C164.348 542.773 164.516 541.98 164.854 541.301C165.191 540.622 165.666 540.095 166.277 539.719C166.887 539.344 167.603 539.156 168.423 539.156C169.247 539.156 169.965 539.344 170.577 539.719C171.189 540.095 171.664 540.622 172.001 541.301C172.339 541.98 172.508 542.773 172.508 543.682C172.508 544.578 172.339 545.364 172.001 546.041C171.664 546.717 171.189 547.243 170.577 547.619C169.965 547.994 169.247 548.182 168.423 548.182ZM168.423 546.729C168.954 546.729 169.393 546.589 169.74 546.311C170.087 546.032 170.345 545.662 170.513 545.199C170.681 544.737 170.765 544.23 170.765 543.679C170.765 543.122 170.681 542.612 170.513 542.147C170.345 541.682 170.087 541.309 169.74 541.029C169.393 540.749 168.954 540.61 168.423 540.61C167.895 540.61 167.459 540.749 167.116 541.029C166.773 541.309 166.517 541.681 166.349 542.143C166.181 542.606 166.097 543.118 166.097 543.679C166.097 544.23 166.181 544.737 166.349 545.199C166.517 545.662 166.773 546.032 167.116 546.311C167.459 546.589 167.895 546.729 168.423 546.729ZM177.907 551.453C177.234 551.453 176.65 551.368 176.156 551.197C175.661 551.027 175.254 550.797 174.932 550.509C174.611 550.221 174.368 549.901 174.203 549.551L175.635 548.876C175.743 549.04 175.884 549.216 176.058 549.403C176.233 549.59 176.467 549.747 176.762 549.875C177.057 550.004 177.438 550.068 177.904 550.068C178.568 550.068 179.107 549.911 179.522 549.597C179.936 549.284 180.144 548.791 180.144 548.119V546.417H179.994C179.893 546.606 179.75 546.813 179.564 547.039C179.378 547.264 179.12 547.458 178.789 547.621C178.458 547.784 178.027 547.865 177.494 547.865C176.81 547.865 176.193 547.703 175.642 547.38C175.092 547.057 174.655 546.579 174.334 545.945C174.012 545.311 173.852 544.531 173.852 543.602C173.852 542.673 174.012 541.877 174.332 541.214C174.652 540.551 175.088 540.042 175.641 539.688C176.194 539.333 176.819 539.156 177.517 539.156C178.056 539.156 178.493 539.245 178.827 539.424C179.162 539.602 179.424 539.812 179.615 540.053C179.805 540.295 179.951 540.506 180.053 540.688H180.173V539.266H181.854V548.127C181.854 548.889 181.68 549.516 181.334 550.008C180.987 550.5 180.516 550.864 179.921 551.1C179.325 551.335 178.654 551.453 177.907 551.453ZM177.894 546.438C178.383 546.438 178.795 546.324 179.131 546.097C179.467 545.87 179.722 545.542 179.896 545.114C180.069 544.686 180.156 544.174 180.156 543.577C180.156 542.991 180.07 542.476 179.899 542.034C179.727 541.592 179.473 541.246 179.137 540.996C178.801 540.746 178.387 540.621 177.894 540.621C177.39 540.621 176.968 540.752 176.628 541.015C176.289 541.278 176.033 541.631 175.862 542.076C175.692 542.52 175.606 543.02 175.606 543.577C175.606 544.145 175.693 544.644 175.866 545.074C176.039 545.504 176.295 545.839 176.635 546.079C176.975 546.318 177.394 546.438 177.894 546.438ZM187.681 548.182C186.861 548.182 186.146 547.994 185.535 547.619C184.924 547.243 184.45 546.717 184.112 546.041C183.775 545.364 183.606 544.578 183.606 543.682C183.606 542.773 183.775 541.98 184.112 541.301C184.45 540.622 184.924 540.095 185.535 539.719C186.146 539.344 186.861 539.156 187.681 539.156C188.505 539.156 189.223 539.344 189.835 539.719C190.447 540.095 190.922 540.622 191.259 541.301C191.597 541.98 191.766 542.773 191.766 543.682C191.766 544.578 191.597 545.364 191.259 546.041C190.922 546.717 190.447 547.243 189.835 547.619C189.223 547.994 188.505 548.182 187.681 548.182ZM187.681 546.729C188.212 546.729 188.651 546.589 188.998 546.311C189.345 546.032 189.603 545.662 189.771 545.199C189.939 544.737 190.023 544.23 190.023 543.679C190.023 543.122 189.939 542.612 189.771 542.147C189.603 541.682 189.345 541.309 188.998 541.029C188.651 540.749 188.212 540.61 187.681 540.61C187.153 540.61 186.717 540.749 186.374 541.029C186.031 541.309 185.775 541.681 185.607 542.143C185.439 542.606 185.355 543.118 185.355 543.679C185.355 544.23 185.439 544.737 185.607 545.199C185.775 545.662 186.031 546.032 186.374 546.311C186.717 546.589 187.153 546.729 187.681 546.729ZM196.488 548.109C195.895 548.109 195.375 547.985 194.927 547.736C194.479 547.486 194.132 547.116 193.884 546.626C193.636 546.135 193.512 545.532 193.512 544.815V539.266H195.23V544.601C195.23 545.23 195.395 545.722 195.725 546.079C196.055 546.435 196.505 546.613 197.076 546.613C197.465 546.613 197.811 546.528 198.116 546.359C198.421 546.189 198.662 545.941 198.839 545.616C199.016 545.29 199.104 544.898 199.104 544.441V539.266H200.829V548H199.184L199.173 545.862H199.344C199.086 546.651 198.713 547.223 198.225 547.578C197.737 547.932 197.158 548.109 196.488 548.109ZM206.715 539.266V540.663H201.978V539.266H206.715ZM203.254 537.188H204.972V545.637C204.972 545.99 205.046 546.249 205.193 546.413C205.34 546.576 205.584 546.658 205.924 546.658C206.014 546.658 206.131 546.648 206.277 546.626C206.423 546.605 206.547 546.584 206.652 546.563L206.956 547.94C206.772 548.001 206.575 548.045 206.367 548.072C206.158 548.1 205.953 548.114 205.753 548.114C204.958 548.114 204.342 547.91 203.907 547.503C203.471 547.095 203.254 546.521 203.254 545.779V537.188Z" fill="#1A1C1C"/>
</svg>