<svg width="43" height="150" viewBox="0 0 43 150" fill="none" xmlns="http://www.w3.org/2000/svg">
<path d="M0 0H32.0918C37.6147 0 42.0918 4.47715 42.0918 10V140C42.0918 145.523 37.6147 150 32.0918 150H0V0Z" fill="#1A1A1A"/>
<path d="M21 42C19.755 42 18.585 41.7638 17.49 41.2912C16.395 40.8187 15.4425 40.1775 14.6325 39.3675C13.8225 38.5575 13.1812 37.605 12.7088 36.51C12.2363 35.415 12 34.245 12 33C12 31.755 12.2363 30.585 12.7088 29.49C13.1812 28.395 13.8225 27.4425 14.6325 26.6325C15.4425 25.8225 16.395 25.1812 17.49 24.7088C18.585 24.2363 19.755 24 21 24C22.245 24 23.415 24.2363 24.51 24.7088C25.605 25.1812 26.5575 25.8225 27.3675 26.6325C28.1775 27.4425 28.8187 28.395 29.2912 29.49C29.7638 30.585 30 31.755 30 33C30 34.245 29.7638 35.415 29.2912 36.51C28.8187 37.605 28.1775 38.5575 27.3675 39.3675C26.5575 40.1775 25.605 40.8187 24.51 41.2912C23.415 41.7638 22.245 42 21 42ZM21 40.2C23.01 40.2 24.7125 39.5025 26.1075 38.1075C27.5025 36.7125 28.2 35.01 28.2 33C28.2 30.99 27.5025 29.2875 26.1075 27.8925C24.7125 26.4975 23.01 25.8 21 25.8C18.99 25.8 17.2875 26.4975 15.8925 27.8925C14.4975 29.2875 13.8 30.99 13.8 33C13.8 35.01 14.4975 36.7125 15.8925 38.1075C17.2875 39.5025 18.99 40.2 21 40.2Z" fill="white"/>
<path fill-rule="evenodd" clip-rule="evenodd" d="M21.375 84.5C16.611 84.5 12.75 80.4807 12.75 75.9688C12.75 74.921 12.7732 74.0705 13.5 73.25C13.4213 73.7255 14.5477 77.7912 18.2287 77.5782C18.069 74.489 17.2335 66.9207 21.114 64.3047C20.7713 68.4177 21.7785 73.943 26.2717 74.75C26.0145 73.1007 26.0452 70.3573 27.2002 69.8503C27.3247 72.377 29.193 73.9355 29.193 76.364C29.193 80.762 24.9382 84.5 21.375 84.5ZM28.4287 67.2148C25.14 68.1523 24.5378 70.811 24.75 72.5C22.404 69.7415 22.5 66.5697 22.5 62C14.976 64.8372 16.7257 73.016 16.5 75.5C14.6077 73.9513 14.25 70.25 14.25 70.25C12.252 71.2782 11.25 74.0232 11.25 76.25C11.25 81.635 15.615 86 21 86C26.385 86 30.75 81.635 30.75 76.25C30.75 73.0497 28.4002 71.5738 28.4287 67.2148Z" fill="white"/>
<path d="M13 108H11V127C11 127.55 11.45 128 12 128H31V126H13V108Z" fill="white"/>
<path d="M15 121H21V123H15V121ZM15 116H29V118H15V116ZM15 111H24V113H15V111Z" fill="white"/>
</svg>
