<svg width="43" height="150" viewBox="0 0 43 150" fill="none" xmlns="http://www.w3.org/2000/svg">
<path d="M0 0H32.0918C37.6147 0 42.0918 4.47715 42.0918 10V140C42.0918 145.523 37.6147 150 32.0918 150H0V0Z" fill="#1A1A1A"/>
<path d="M21 42C19.755 42 18.585 41.7638 17.49 41.2912C16.395 40.8187 15.4425 40.1775 14.6325 39.3675C13.8225 38.5575 13.1812 37.605 12.7088 36.51C12.2363 35.415 12 34.245 12 33C12 31.755 12.2363 30.585 12.7088 29.49C13.1812 28.395 13.8225 27.4425 14.6325 26.6325C15.4425 25.8225 16.395 25.1812 17.49 24.7088C18.585 24.2363 19.755 24 21 24C22.245 24 23.415 24.2363 24.51 24.7088C25.605 25.1812 26.5575 25.8225 27.3675 26.6325C28.1775 27.4425 28.8187 28.395 29.2912 29.49C29.7638 30.585 30 31.755 30 33C30 34.245 29.7638 35.415 29.2912 36.51C28.8187 37.605 28.1775 38.5575 27.3675 39.3675C26.5575 40.1775 25.605 40.8187 24.51 41.2912C23.415 41.7638 22.245 42 21 42ZM21 40.2C23.01 40.2 24.7125 39.5025 26.1075 38.1075C27.5025 36.7125 28.2 35.01 28.2 33C28.2 30.99 27.5025 29.2875 26.1075 27.8925C24.7125 26.4975 23.01 25.8 21 25.8C18.99 25.8 17.2875 26.4975 15.8925 27.8925C14.4975 29.2875 13.8 30.99 13.8 33C13.8 35.01 14.4975 36.7125 15.8925 38.1075C17.2875 39.5025 18.99 40.2 21 40.2Z" fill="white"/>
<g transform="translate(10.5, 64)">
<path fill-rule="evenodd" clip-rule="evenodd" d="M10.75 1.5C5.64137 1.5 1.5 5.64137 1.5 10.75C1.5 15.8586 5.64137 20 10.75 20C15.8586 20 20 15.8586 20 10.75C20 5.64137 15.8586 1.5 10.75 1.5ZM0 10.75C0 4.81294 4.81294 0 10.75 0C16.6871 0 21.5 4.81294 21.5 10.75C21.5 16.6871 16.6871 21.5 10.75 21.5C4.81294 21.5 0 16.6871 0 10.75ZM10.75 4C11.1642 4 11.5 4.33579 11.5 4.75V5.06673C13.1304 5.35867 14.5 6.58361 14.5 8.25C14.5 8.66421 14.1642 9 13.75 9C13.3358 9 13 8.66421 13 8.25C13 7.57154 12.4359 6.85339 11.5 6.59748V10.0667C13.1304 10.3587 14.5 11.5836 14.5 13.25C14.5 14.9164 13.1304 16.1413 11.5 16.4333V16.75C11.5 17.1642 11.1642 17.5 10.75 17.5C10.3358 17.5 10 17.1642 10 16.75V16.4333C8.36957 16.1413 7 14.9164 7 13.25C7 12.8358 7.33579 12.5 7.75 12.5C8.16421 12.5 8.5 12.8358 8.5 13.25C8.5 13.9285 9.0641 14.6466 10 14.9025V11.4333C8.36957 11.1413 7 9.9164 7 8.25C7 6.58361 8.36957 5.35867 10 5.06673V4.75C10 4.33579 10.3358 4 10.75 4ZM10 6.59748C9.0641 6.85339 8.5 7.57154 8.5 8.25C8.5 8.9285 9.0641 9.6466 10 9.9025V6.59748ZM11.5 11.5975V14.9025C12.4359 14.6466 13 13.9285 13 13.25C13 12.5715 12.4359 11.8534 11.5 11.5975Z" fill="white"/>
</g>
<path d="M13 108H11V127C11 127.55 11.45 128 12 128H31V126H13V108Z" fill="white"/>
<path d="M15 121H21V123H15V121ZM15 116H29V118H15V116ZM15 111H24V113H15V111Z" fill="white"/>
</svg>
